<?xml version="1.0" encoding="iso-8859-1"?>
<!-- Generator: Adobe Illustrator 19.0.0, SVG Export Plug-In . SVG Version: 6.00 Build 0)  -->
<svg version="1.1" id="Capa_1" xmlns="http://www.w3.org/2000/svg" xmlns:xlink="http://www.w3.org/1999/xlink" x="0px" y="0px"
	 viewBox="0 0 512 512" style="enable-background:new 0 0 512 512;" xml:space="preserve">
<rect x="118.561" y="134.337" style="fill:#676775;" width="78.189" height="78.067"/>
<rect x="118.561" y="178.44" style="fill:#4C4C59;" width="78.189" height="33.964"/>
<path style="fill:#DDB200;" d="M434.44,460.8h-30.524v15.208h30.524c4.2,0,7.604-3.404,7.604-7.604
	C442.044,464.204,438.64,460.8,434.44,460.8z"/>
<rect x="403.912" y="460.8" style="fill:#BA9806;" width="20.952" height="15.208"/>
<path style="fill:#F5C882;" d="M182.495,155.628V52.214c0-16.212,13.189-29.402,29.402-29.402s29.402,13.19,29.402,29.402v103.414
	H182.495z"/>
<path style="fill:#F9B264;" d="M182.495,155.628V52.214c0-16.212,13.189-29.402,29.402-29.402s29.402,13.19,29.402,29.402v103.414
	H182.495z"/>
<path style="fill:#EA9939;" d="M211.656,48.397c0-9.415,4.43-17.828,11.349-23.399c-3.43-1.405-7.179-2.186-11.108-2.186
	c-16.213,0-29.402,13.19-29.402,29.402v103.414h29.161V48.397z"/>
<path style="fill:#C6C5CA;" d="M488.174,165.766h-45.117v15.208h45.117c4.752,0,8.618,3.866,8.618,8.618v184.523
	c0,13.138-10.688,23.826-23.826,23.826H132.309c-21.523,0-39.034,17.51-39.034,39.034s17.51,39.034,39.034,39.034h235.216V460.8
	H132.309c-13.138,0-23.826-10.688-23.826-23.826s10.688-23.826,23.826-23.826h340.657c21.353,0,38.748-17.238,39.021-38.527H512
	v-185.03C512,176.455,501.312,165.766,488.174,165.766z"/>
<path style="fill:#ABAAB0;" d="M59.311,232.681C26.607,232.681,0,206.074,0,173.37s26.607-59.311,59.311-59.311
	c16.105,0,31.73,6.678,42.867,18.324l2.25,2.351v77.248l-2.249,2.351C91.028,225.994,75.403,232.681,59.311,232.681z"/>
<path style="fill:#929296;" d="M59.311,198.717c-26.803,0-49.499-17.876-56.821-42.329C0.878,161.772,0,167.47,0,173.37
	c0,32.704,26.607,59.311,59.311,59.311c16.092,0,31.717-6.687,42.868-18.347l2.249-2.351v-33.964l-2.249,2.351
	C91.028,192.029,75.403,198.717,59.311,198.717z"/>
<path style="fill:#FFC477;" d="M384.376,22.825c-15.992,0.476-28.511,14.017-28.511,30.014v78.963v58.804
	c0,2.634-0.368,5.182-1.042,7.604h-61.817c16.508,0,29.883-13.676,29.389-30.293c-0.475-15.992-14.016-28.511-30.014-28.511h-34.019
	h-61.419c-7.979,0-14.448,6.468-14.448,14.448v45.107c0,64.059,51.352,116.995,115.41,117.363
	c64.32,0.369,116.764-51.849,116.764-116.085V52.214C414.669,35.706,400.993,22.331,384.376,22.825z"/>
<path style="fill:#FFA733;" d="M210.015,198.96v-45.107c0-7.979,6.468-14.448,14.448-14.448h-27.52
	c-7.979,0-14.448,6.468-14.448,14.448v45.107c0,64.059,51.352,116.995,115.41,117.363c4.904,0.028,9.738-0.253,14.486-0.818
	C254.543,308.605,210.015,258.609,210.015,198.96z"/>
<path style="fill:#F5AF73;" d="M383.386,190.606v-58.804V52.839c0-11.362,6.318-21.48,15.707-26.562
	c-4.369-2.338-9.389-3.61-14.716-3.452c-15.992,0.476-28.511,14.016-28.511,30.014v78.963v58.804c0,2.634-0.368,5.182-1.042,7.604
	h27.52C383.017,195.788,383.386,193.24,383.386,190.606z"/>
<path style="fill:#FFA733;" d="M374.835,169.729c6.094,0,11.035-4.941,11.035-11.035V52.214c0-10.735,5.786-20.14,14.4-25.273
	c-4.873-2.904-10.649-4.444-16.8-4.075c-15.621,0.937-27.604,14.307-27.604,29.956v116.906L374.835,169.729L374.835,169.729z"/>
<path style="fill:#676775;" d="M334.574,212.404v-78.067h103.55c8.87,0,16.086,7.216,16.086,16.086v45.895
	c0,8.87-7.216,16.086-16.086,16.086H334.574z"/>
<path style="fill:#4C4C59;" d="M438.124,178.44h-93.411v33.964h93.411c8.87,0,16.086-7.216,16.086-16.086v-33.964
	C454.21,171.224,446.994,178.44,438.124,178.44z"/>
<g>
	<path style="fill:#F9B264;" d="M325.389,220.008c-0.454,0-0.909-0.009-1.365-0.028c-14.91-0.612-26.627-13.048-27.037-27.965
		l-1.396-50.802c-0.319-11.64,6.311-22.528,17.026-27.088c3.938-1.676,8.274-2.6,12.772-2.6c17.224,0,31.236,13.19,31.236,29.402
		v49.679C356.625,206.818,342.611,220.008,325.389,220.008z"/>
	<path style="fill:#F9B264;" d="M268.798,220.008c-0.428,0-0.857-0.01-1.288-0.031c-14.447-0.703-25.673-12.921-25.927-27.382
		l-1.048-59.707c3.821-13.418,16.794-22.519,30.897-21.243c15.274,1.382,26.768,14.595,26.768,29.93v49.032
		C298.2,206.818,285.01,220.008,268.798,220.008z"/>
</g>
<g>
	<path style="fill:#EA9939;" d="M320.307,192.014l-1.396-50.802c-0.32-11.64,6.311-22.528,17.026-27.089
		c0.376-0.16,0.76-0.307,1.144-0.454c-3.614-1.379-7.559-2.145-11.693-2.145c-0.496,0-0.989,0.011-1.48,0.033
		c-16.265,0.734-28.726,14.826-28.279,31.101l1.355,49.302c0.409,14.873,12.035,27.336,26.898,28.012
		c0.503,0.023,1.005,0.034,1.506,0.034c4.239,0,8.282-0.8,11.971-2.246c0.048-0.019,0.049-0.086,0.001-0.107
		C327.505,213.304,320.62,203.384,320.307,192.014z"/>
	<path style="fill:#EA9939;" d="M264.905,192.594l-0.92-52.392c-0.189-10.715,5.557-20.855,15.157-25.618
		c0.428-0.212,0.861-0.415,1.299-0.605c-2.792-1.234-5.817-2.046-9.008-2.335c-14.104-1.275-27.076,7.825-30.897,21.243
		l1.048,59.713c0.254,14.471,11.497,26.686,25.954,27.377c0.422,0.02,0.843,0.03,1.26,0.03c4.259,0,8.307-0.918,11.965-2.555
		C271.477,213.052,265.095,203.457,264.905,192.594z"/>
</g>
<path style="fill:#F5C882;" d="M228.873,198.21h63.454c16.587,0,30.082-13.19,30.082-29.402s-13.496-29.402-30.082-29.402h-63.454
	L228.873,198.21L228.873,198.21z"/>
<path style="fill:#676775;" d="M376.65,489.188c-11.713,0-21.195-9.74-20.77-21.547c0.406-11.27,10.043-20.022,21.32-20.022h33.31
	c2.857,0,5.173,2.316,5.173,5.173v31.222c0,2.857-2.316,5.173-5.173,5.173H376.65V489.188z"/>
<path style="fill:#4C4C59;" d="M410.51,469.355H376.65c-7.84,0-14.676-4.368-18.215-10.794c-1.51,2.71-2.437,5.782-2.556,9.08
	c-0.425,11.806,9.057,21.547,20.77,21.547h33.861c2.857,0,5.173-2.316,5.173-5.173v-19.833
	C415.683,467.039,413.368,469.355,410.51,469.355z"/>
<path style="fill:#DDB200;" d="M118.115,224.57c-8.106,0-14.701-6.595-14.701-14.701v-72.998c0-8.106,6.595-14.701,14.701-14.701
	s14.701,6.595,14.701,14.701v72.998C132.816,217.975,126.221,224.57,118.115,224.57z"/>
<path style="fill:#BA9806;" d="M118.115,190.606c-8.106,0-14.701-6.595-14.701-14.701v33.964c0,8.106,6.595,14.701,14.701,14.701
	s14.701-6.595,14.701-14.701v-33.964C132.816,184.011,126.221,190.606,118.115,190.606z"/>
<g>
	<path style="fill:#929296;" d="M86.797,142.711l-7.225,7.225c-1.092,1.092-2.862,1.092-3.955,0l-7.225-7.225
		c-1.092-1.092-1.092-2.862,0-3.955l7.225-7.225c1.092-1.092,2.862-1.092,3.955,0l7.225,7.225
		C87.889,139.849,87.889,141.619,86.797,142.711z"/>
	<path style="fill:#929296;" d="M85.638,170.785l-6.066,6.066c-1.092,1.092-2.862,1.092-3.955,0l-6.066-6.066
		c-1.092-1.092-1.092-2.862,0-3.955l6.066-6.066c1.092-1.092,2.862-1.092,3.955,0l6.066,6.066
		C86.73,167.923,86.73,169.693,85.638,170.785z"/>
	<path style="fill:#929296;" d="M59.099,155.425l-4.908,4.908c-1.092,1.092-2.862,1.092-3.955,0l-4.908-4.908
		c-1.092-1.092-1.092-2.862,0-3.955l4.908-4.908c1.092-1.092,2.862-1.092,3.955,0l4.908,4.908
		C60.191,152.563,60.191,154.333,59.099,155.425z"/>
</g>
<g>
</g>
<g>
</g>
<g>
</g>
<g>
</g>
<g>
</g>
<g>
</g>
<g>
</g>
<g>
</g>
<g>
</g>
<g>
</g>
<g>
</g>
<g>
</g>
<g>
</g>
<g>
</g>
<g>
</g>
</svg>
