<?xml version="1.0" encoding="iso-8859-1"?>
<!-- Generator: Adobe Illustrator 19.0.0, SVG Export Plug-In . SVG Version: 6.00 Build 0)  -->
<svg version="1.1" id="Capa_1" xmlns="http://www.w3.org/2000/svg" xmlns:xlink="http://www.w3.org/1999/xlink" x="0px" y="0px"
	 viewBox="0 0 512 512" style="enable-background:new 0 0 512 512;" xml:space="preserve">
<circle style="fill:#4A5058;" cx="223.71" cy="238.898" r="223.71"/>
<g style="opacity:0.1;">
	<path d="M120.555,312.98c-2.46,0-4.869-1.208-6.305-3.428c-10.736-16.6-17.626-35.744-19.922-55.363
		c-0.481-4.114,2.463-7.84,6.577-8.321c4.111-0.484,7.839,2.463,8.321,6.577c2.06,17.597,7.987,34.07,17.619,48.96
		c2.249,3.478,1.253,8.121-2.225,10.371C123.362,312.591,121.95,312.98,120.555,312.98z"/>
	<path d="M115.547,188.251c-1.2,0-2.419-0.289-3.55-0.898c-3.647-1.965-5.011-6.513-3.046-10.16
		c17.877-33.186,49.132-56.997,85.75-65.326c9.46-2.152,19.22-3.243,29.008-3.243c4.143,0,7.5,3.358,7.5,7.5s-3.357,7.5-7.5,7.5
		c-8.67,0-17.311,0.965-25.682,2.869c-32.393,7.369-60.048,28.441-75.871,57.814C120.802,186.822,118.217,188.251,115.547,188.251z"
		/>
	<path d="M157.697,411.456c-0.928,0-1.871-0.173-2.785-0.539c-44.712-17.897-80.26-51.944-100.095-95.869
		c-1.705-3.775-0.026-8.218,3.748-9.922c3.777-1.706,8.218-0.026,9.922,3.749c17.968,39.789,51.5,71.906,91.999,88.117
		c3.846,1.539,5.715,5.904,4.176,9.75C163.488,409.673,160.673,411.456,157.697,411.456z"/>
	<path d="M346.478,117.887c-1.862,0-3.728-0.689-5.181-2.078c-31.812-30.399-73.571-47.141-117.588-47.141
		c-27.304,0-53.38,6.267-77.503,18.625c-3.688,1.891-8.206,0.431-10.095-3.255c-1.889-3.687-0.432-8.206,3.255-10.095
		c26.261-13.454,54.638-20.275,84.343-20.275c47.895,0,93.336,18.217,127.951,51.296c2.994,2.862,3.103,7.609,0.24,10.604
		C350.428,117.11,348.454,117.887,346.478,117.887z"/>
	<path d="M45.984,246.392c-4.143,0-7.5-3.358-7.5-7.5c0-37.117,10.94-72.93,31.638-103.566c2.318-3.432,6.98-4.335,10.413-2.016
		s4.335,6.981,2.017,10.414c-19.016,28.147-29.067,61.056-29.067,95.168C53.484,243.035,50.127,246.392,45.984,246.392z"/>
</g>
<circle style="fill:#EEEDED;" cx="223.71" cy="238.898" r="73.8"/>
<path style="opacity:0.1;enable-background:new    ;" d="M446.067,214.307c-6.939-6.127-16.542-8.973-26.127-6.684
	c-16.166,3.859-25.864,20.259-21.592,36.207l-10.708-39.964c-4.146-15.474-19.783-25.303-35.365-21.583
	c-16.166,3.86-25.863,20.26-21.59,36.209l-9.676-36.113c-4.202-15.684-20.323-24.991-36.007-20.789s-24.992,20.324-20.789,36.007
	l13.232,49.384c-4.203-15.683-20.324-24.991-36.007-20.788c-15.684,4.202-24.991,20.324-20.789,36.007l28.459,106.209l5.729,21.382
	c0.639,2.385-1.925,4.352-4.063,3.118l-33.247-19.195c-14.275-8.241-33.045-3.503-41.014,10.925
	c-7.725,13.986-2.857,31.642,11.041,39.666l63.453,36.635c110.675-13.465,196.414-107.739,196.414-222.048
	C447.418,230.582,446.95,222.382,446.067,214.307z"/>
<path style="fill:#F3DE6A;" d="M507.957,347.4l-16.015-59.771l-20.989-78.331c-4.146-15.473-19.782-25.303-35.363-21.583
	c-16.166,3.859-25.864,20.259-21.592,36.207l-10.708-39.964c-4.146-15.474-19.783-25.303-35.365-21.583
	c-16.166,3.86-25.863,20.261-21.59,36.21l32.015,119.48l-41.691-155.594c-4.202-15.684-20.323-24.991-36.007-20.789
	s-24.992,20.324-20.789,36.008l41.691,155.594l-28.459-106.209c-4.203-15.684-20.324-24.991-36.008-20.789
	s-24.991,20.324-20.789,36.007l28.459,106.209l5.729,21.382c0.639,2.385-1.925,4.352-4.063,3.118l-33.247-19.195
	c-14.275-8.241-33.045-3.503-41.014,10.925c-7.725,13.986-2.857,31.642,11.041,39.666l132.724,76.628
	c25.828,14.912,57.292,20.06,88.383,11.974C487.376,476.599,524.823,410.346,507.957,347.4z"/>
<g>
	<path style="fill:#F5A85B;" d="M321.548,340.788c-3.312,0-6.342-2.21-7.239-5.561L285.85,229.018
		c-1.072-4.001,1.302-8.114,5.303-9.186c4.001-1.069,8.114,1.302,9.186,5.303l28.459,106.209c1.072,4.002-1.302,8.114-5.303,9.186
		C322.844,340.704,322.19,340.788,321.548,340.788z"/>
	<path style="fill:#F5A85B;" d="M378.344,325.569c-3.312,0-6.342-2.21-7.239-5.561l-32.015-119.48
		c-1.072-4.001,1.302-8.113,5.303-9.186c4.003-1.07,8.114,1.302,9.185,5.304l32.015,119.48c1.072,4.001-1.302,8.113-5.303,9.186
		C379.64,325.485,378.986,325.569,378.344,325.569z"/>
	<path style="fill:#F5A85B;" d="M435.141,310.35c-3.311,0-6.342-2.21-7.239-5.561l-21.147-78.922
		c-1.072-4.001,1.302-8.114,5.303-9.186c4.001-1.068,8.113,1.303,9.186,5.303l21.147,78.922c1.072,4.001-1.302,8.114-5.303,9.186
		C436.436,310.267,435.783,310.35,435.141,310.35z"/>
</g>
<g>
</g>
<g>
</g>
<g>
</g>
<g>
</g>
<g>
</g>
<g>
</g>
<g>
</g>
<g>
</g>
<g>
</g>
<g>
</g>
<g>
</g>
<g>
</g>
<g>
</g>
<g>
</g>
<g>
</g>
</svg>
