<?xml version="1.0" encoding="iso-8859-1"?>
<!-- Generator: Adobe Illustrator 19.0.0, SVG Export Plug-In . SVG Version: 6.00 Build 0)  -->
<svg version="1.1" id="Capa_1" xmlns="http://www.w3.org/2000/svg" xmlns:xlink="http://www.w3.org/1999/xlink" x="0px" y="0px"
	 viewBox="0 0 512.002 512.002" style="enable-background:new 0 0 512.002 512.002;" xml:space="preserve">
<g>
	<g>
		<path d="M503.722,305.27c-5.525-5.934-12.907-9.201-20.784-9.201c-3.441,0-6.742,0.634-9.809,1.79
			c-2.172-9.906-8.961-17.98-17.859-21.593c3.124-15.216,4.731-30.729,4.731-46.266c0-61.436-23.924-119.193-67.365-162.635
			C349.195,23.923,291.437,0,230.001,0C168.566,0,110.808,23.924,67.366,67.365C23.924,110.807,0,168.564,0,230
			s23.924,119.193,67.366,162.635C110.808,436.076,168.566,460,230.001,460c33.449,0,66.771-7.43,97.081-21.523
			c7.629,17.456,20.373,32.521,36.924,42.986v20.539c0,5.522,4.478,10,10,10h97.625c5.523,0,10-4.478,10-10v-31.927
			C500.984,451.817,512,426.522,512,399.953v-68.941l0.002-4.47C512.005,318.562,509.064,311.007,503.722,305.27z M319.02,350.802
			v49.151c0,6.557,0.669,13.017,1.956,19.298C292.685,432.836,261.402,440,230.001,440C114.206,440,20,345.794,20,230
			S114.206,20,230.001,20c115.794,0,210,94.206,210,210c0,14.079-1.446,28.137-4.255,41.929v-63.016
			c0-16.801-13.038-30.469-29.064-30.469s-29.065,13.668-29.065,30.469v0.66c-2.853-0.985-5.898-1.525-9.063-1.525
			c-16.025,0-29.064,13.669-29.064,30.471v83.508C327.588,326.176,319.02,337.504,319.02,350.802z M492.001,331.003
			c0,0,0,0.001,0,0.002c0,0,0,0.001,0,0.002v68.946H492c0,22.282-9.795,43.453-26.874,58.082c-0.093,0.079-0.174,0.167-0.263,0.249
			c-0.129,0.119-0.259,0.236-0.381,0.361c-0.121,0.124-0.233,0.253-0.347,0.381c-0.101,0.114-0.202,0.228-0.298,0.346
			c-0.113,0.142-0.219,0.287-0.324,0.434c-0.084,0.117-0.169,0.234-0.248,0.355c-0.098,0.148-0.187,0.3-0.275,0.452
			c-0.076,0.131-0.152,0.262-0.223,0.396c-0.075,0.145-0.145,0.293-0.213,0.441c-0.069,0.151-0.138,0.302-0.2,0.457
			c-0.056,0.138-0.104,0.278-0.153,0.418c-0.059,0.17-0.117,0.339-0.167,0.513c-0.04,0.135-0.072,0.273-0.105,0.409
			c-0.044,0.179-0.087,0.357-0.12,0.538c-0.027,0.146-0.047,0.293-0.067,0.439c-0.025,0.173-0.05,0.346-0.065,0.521
			c-0.016,0.17-0.02,0.34-0.026,0.511c-0.005,0.125-0.019,0.247-0.019,0.373V492h-77.625v-16.153c0-0.024,0-0.048,0-0.071v-0.012
			c0-0.026-0.004-0.053-0.004-0.079c-0.003-0.299-0.016-0.598-0.045-0.894c-0.015-0.15-0.042-0.298-0.064-0.446
			c-0.024-0.168-0.044-0.338-0.077-0.504c-0.037-0.194-0.088-0.384-0.138-0.574c-0.03-0.119-0.057-0.24-0.093-0.359
			c-0.059-0.196-0.129-0.388-0.199-0.579c-0.041-0.112-0.078-0.225-0.123-0.337c-0.072-0.176-0.154-0.347-0.235-0.518
			c-0.06-0.125-0.115-0.25-0.18-0.372c-0.076-0.146-0.161-0.284-0.245-0.425c-0.084-0.143-0.166-0.285-0.257-0.424
			c-0.075-0.114-0.157-0.223-0.237-0.333c-0.111-0.154-0.223-0.309-0.344-0.459c-0.075-0.093-0.157-0.18-0.236-0.27
			c-0.133-0.153-0.266-0.307-0.41-0.452c-0.09-0.091-0.186-0.175-0.28-0.263c-0.14-0.131-0.277-0.263-0.426-0.387
			c-0.139-0.116-0.286-0.222-0.433-0.331c-0.11-0.083-0.217-0.17-0.332-0.248c-0.289-0.198-0.586-0.383-0.896-0.549
			c-24.509-13.477-39.732-39.146-39.732-67.011v-49.151c0-5.772,4.696-10.469,10.47-10.469c5.522,0,10-4.478,10-10v-91.814
			c0-5.676,4.15-10.471,9.064-10.471c4.913,0,9.063,4.795,9.063,10.471v91.814c0,5.522,4.478,10,10,10c5.523,0,10-4.478,10-10
			v-91.814v-29.605c0-5.675,4.151-10.469,9.065-10.469c4.913,0,9.064,4.794,9.064,10.469v88.705v32.715c0,5.522,4.478,10,10,10
			c5.522,0,10-4.478,10-10v-25.646c0-5.676,4.15-10.471,9.064-10.471s9.065,4.795,9.065,10.471v21.849l-0.002,7.86
			c-0.001,5.523,4.475,10.001,9.997,10.003h0.003c5.521,0,9.998-4.476,10-9.997l0.002-7.86c0.001-5.677,4.152-10.473,9.063-10.473
			c2.265,0,4.447,1.005,6.147,2.831c1.882,2.022,2.918,4.732,2.917,7.635L492.001,331.003z"/>
	</g>
</g>
<g>
	<g>
		<path d="M360.816,99.185c-17.266-17.266-37.459-30.759-60.019-40.104C278.238,49.738,254.419,45,230,45
			C127.99,45,45,127.99,45,230c0,5.522,4.478,10,10,10s10-4.478,10-10c0-90.981,74.019-165,165-165
			c44.074,0,85.509,17.163,116.673,48.328c3.906,3.903,10.236,3.905,14.143,0C364.721,109.423,364.721,103.091,360.816,99.185z"/>
	</g>
</g>
<g>
	<g>
		<path d="M300.001,108.757C278.748,96.486,254.542,90,230,90c-52.335,0-99.891,28.82-124.108,75.215
			c-2.556,4.897-0.658,10.938,4.237,13.493c1.479,0.771,3.061,1.137,4.619,1.137c3.606,0,7.09-1.956,8.874-5.374
			C144.38,134.703,185.142,110,230,110c21.036,0,41.784,5.559,60.001,16.077c4.784,2.762,10.899,1.122,13.66-3.66
			C306.423,117.634,304.784,111.519,300.001,108.757z"/>
	</g>
</g>
<g>
	<g>
		<path d="M230,200c-16.542,0-29.999,13.458-29.999,30s13.457,30,29.999,30s30-13.458,30-30S246.542,200,230,200z M230,240
			c-5.514,0-9.999-4.486-9.999-10c0-5.514,4.485-10,9.999-10c5.514,0,10,4.486,10,10C240,235.514,235.514,240,230,240z"/>
	</g>
</g>
<g>
	<g>
		<path d="M230,140c-49.626,0-90,40.374-90,90c0,49.626,40.374,90,90,90c49.627,0,90.001-40.374,90.001-90
			C320.001,180.374,279.627,140,230,140z M230,300c-38.598,0-70-31.402-70-70c0-38.598,31.402-70,70-70
			c38.599,0,70.001,31.402,70.001,70C300.001,268.598,268.599,300,230,300z"/>
	</g>
</g>
<g>
	<g>
		<path d="M107.047,186.378c-5.345-1.406-10.81,1.794-12.209,7.137l-0.058,0.216c-1.449,5.329,1.696,10.824,7.026,12.272
			c0.878,0.239,1.761,0.354,2.629,0.354c4.401,0,8.434-2.929,9.644-7.38l0.104-0.39
			C115.584,193.244,112.389,187.778,107.047,186.378z"/>
	</g>
</g>
<g>
	<g>
		<path d="M284.953,396.45c-1.428-5.335-6.915-8.502-12.247-7.071c-13.924,3.73-28.292,5.622-42.706,5.622
			c-5.572,0-11.207-0.287-16.749-0.853c-5.496-0.555-10.403,3.439-10.964,8.933c-0.561,5.494,3.438,10.403,8.933,10.964
			c6.214,0.635,12.532,0.956,18.78,0.956c16.161,0,32.271-2.121,47.882-6.304C283.217,407.268,286.383,401.785,284.953,396.45z"/>
	</g>
</g>
<g>
	<g>
		<path d="M187.523,389.439l-0.267-0.07c-5.337-1.409-10.811,1.778-12.219,7.119c-1.409,5.34,1.778,10.811,7.119,12.219l0.267,0.07
			c0.854,0.226,1.712,0.334,2.557,0.334c4.43,0,8.48-2.968,9.662-7.453C196.052,396.318,192.864,390.848,187.523,389.439z"/>
	</g>
</g>
<g>
</g>
<g>
</g>
<g>
</g>
<g>
</g>
<g>
</g>
<g>
</g>
<g>
</g>
<g>
</g>
<g>
</g>
<g>
</g>
<g>
</g>
<g>
</g>
<g>
</g>
<g>
</g>
<g>
</g>
</svg>
