<?xml version="1.0" encoding="iso-8859-1"?>
<!-- Generator: Adobe Illustrator 19.0.0, SVG Export Plug-In . SVG Version: 6.00 Build 0)  -->
<svg version="1.1" id="Capa_1" xmlns="http://www.w3.org/2000/svg" xmlns:xlink="http://www.w3.org/1999/xlink" x="0px" y="0px"
	 viewBox="0 0 511.999 511.999" style="enable-background:new 0 0 511.999 511.999;" xml:space="preserve">
<path style="fill:#9DACCF;" d="M178.94,481.997h-74.85c-12.15,0-23.554-5.95-30.506-15.915
	c-10.327-14.804-8.558-34.814,4.206-47.578l7.945-7.945c5.859-5.859,5.859-15.356,0-21.215c-5.858-5.859-15.356-5.859-21.215,0
	l-7.945,7.945c-23.06,23.06-26.255,59.211-7.599,85.958c12.559,18.004,33.162,28.753,55.113,28.753h74.85
	c8.285,0,15.001-6.717,15.001-15.001C193.942,488.712,187.225,481.997,178.94,481.997z"/>
<path style="fill:#DBE2F2;" d="M375.711,179.079L296,99.369c-5.858-5.859-15.356-5.859-21.215,0L78.248,295.904
	c-19.317,19.317-32.811,43.589-39.022,70.193c-1.179,5.05,0.333,10.352,4,14.018l51.736,51.736
	c2.845,2.846,6.675,4.394,10.608,4.394c1.135,0,2.279-0.129,3.41-0.394c26.603-6.211,50.876-19.705,70.193-39.022L375.71,200.292
	C381.568,194.435,381.568,184.937,375.711,179.079z"/>
<path style="fill:#F9F7FF;" d="M335.855,139.224L296,99.369c-5.858-5.859-15.356-5.859-21.215,0L78.248,295.904
	c-19.317,19.317-32.811,43.589-39.022,70.193c-1.179,5.05,0.333,10.352,4,14.018l25.869,25.869L335.855,139.224z"/>
<path style="fill:#9DACCF;" d="M213.083,261.996c-5.858-5.859-15.356-5.859-21.215,0l-38.884,38.884
	c-5.859,5.859-5.859,15.356,0,21.215c2.929,2.929,6.769,4.394,10.607,4.394c3.838,0,7.679-1.464,10.607-4.394l38.884-38.884
	C218.941,277.353,218.941,267.854,213.083,261.996z"/>
<path style="fill:#465066;" d="M445.398,29.68c-39.575-39.574-103.968-39.574-143.541,0c-19.171,19.171-29.729,44.659-29.729,71.771
	s10.558,52.6,29.729,71.771c19.787,19.788,45.778,29.681,71.771,29.681c25.991,0,51.984-9.894,71.771-29.681
	c19.171-19.17,29.729-44.659,29.729-71.771S464.569,48.851,445.398,29.68z"/>
<path style="fill:#677189;" d="M445.398,29.68c-39.575-39.574-103.968-39.574-143.541,0c-19.171,19.171-29.729,44.659-29.729,71.771
	s10.558,52.6,29.729,71.771L445.398,29.68z"/>
<path style="fill:#C3CEE6;" d="M213.083,261.996c-5.858-5.859-15.356-5.859-21.215,0l-38.884,38.884
	c-5.859,5.859-5.859,15.356,0,21.215L213.083,261.996z"/>
<g>
</g>
<g>
</g>
<g>
</g>
<g>
</g>
<g>
</g>
<g>
</g>
<g>
</g>
<g>
</g>
<g>
</g>
<g>
</g>
<g>
</g>
<g>
</g>
<g>
</g>
<g>
</g>
<g>
</g>
</svg>
