<?xml version="1.0" encoding="iso-8859-1"?>
<!-- Generator: Adobe Illustrator 19.0.0, SVG Export Plug-In . SVG Version: 6.00 Build 0)  -->
<svg version="1.1" id="Capa_1" xmlns="http://www.w3.org/2000/svg" xmlns:xlink="http://www.w3.org/1999/xlink" x="0px" y="0px"
	 viewBox="0 0 512 512" style="enable-background:new 0 0 512 512;" xml:space="preserve">
<path style="fill:#38B1C9;" d="M437.02,74.98C388.667,26.628,324.38,0,256,0S123.333,26.628,74.98,74.98
	C26.629,123.333,0,187.62,0,256s26.629,132.667,74.98,181.02C123.333,485.372,187.62,512,256,512s132.667-26.628,181.02-74.98
	C485.371,388.667,512,324.38,512,256S485.371,123.333,437.02,74.98z"/>
<path style="fill:#45CDD9;" d="M420.049,91.951C376.229,48.132,317.969,24,256,24S135.771,48.132,91.951,91.951
	C48.132,135.77,24,194.03,24,256s24.132,120.23,67.951,164.049C135.771,463.868,194.031,488,256,488s120.229-24.132,164.049-67.951
	C463.868,376.23,488,317.97,488,256S463.868,135.77,420.049,91.951z"/>
<path style="fill:#5DC43D;" d="M256,48C141.309,48,48,141.309,48,256s93.309,208,208,208s208-93.309,208-208S370.691,48,256,48z"/>
<path style="fill:#86D631;" d="M256,72C154.542,72,72,154.542,72,256s82.542,184,184,184s184-82.542,184-184S357.458,72,256,72z"/>
<g>
	<path style="fill:#FF6BB5;" d="M256,104c-83.813,0-152,68.187-152,152s68.187,152,152,152s152-68.187,152-152S339.813,104,256,104z
		"/>
	<path style="fill:#FF6BB5;" d="M256,144c-61.757,0-112,50.243-112,112s50.243,112,112,112s112-50.243,112-112S317.757,144,256,144z
		"/>
</g>
<circle style="fill:#7D7D8C;" cx="256" cy="152" r="40"/>
<polygon style="fill:#E9E9EC;" points="288,195.997 216.066,195.997 216,195.941 216,296 288,296 "/>
<path style="fill:#8759B5;" d="M405.15,473.707c0,0-96.742-161.166-97.149-161.711v-68.567l29.294,20.924l-12.698,50.79
	c-2.679,10.716,3.837,21.574,14.553,24.253c1.629,0.407,3.26,0.602,4.865,0.602c8.962,0,17.116-6.067,19.389-15.154l16-64
	c1.992-7.971-1.093-16.35-7.778-21.125l-56-40c-5.417-3.869-21.629-3.72-23.624-3.72h-9.332L248,248l-28.891-52.003h-3.044
	l-111.049-95.185c-8.385-7.188-21.011-6.218-28.201,2.169c-7.188,8.386-6.217,21.012,2.17,28.201c0,0,115.242,98.359,117.016,99.134
	v80.096l-58.6,36.625c-4.936,3.084-8.283,8.167-9.168,13.919l-16,104c-1.239,8.052,2.685,16.258,9.733,20.348
	c7.423,4.306,17.026,3.293,23.402-2.429c3.423-3.072,5.701-7.291,6.4-11.836l14.606-94.939l56.226-35.142
	c0.48-0.3,0.931-0.627,1.376-0.96h54.301l92.574,154.29c4.525,7.542,13.732,11.292,22.242,9.056
	c7.95-2.089,13.911-9.051,14.794-17.208C408.354,481.823,407.381,477.425,405.15,473.707z"/>
<g>
	<path style="fill:#676779;" d="M249,280h-1c-4.418,0-8-3.582-8-8s3.582-8,8-8h1c4.418,0,8,3.582,8,8S253.418,280,249,280z"/>
	<path style="fill:#676779;" d="M249,304h-1c-4.418,0-8-3.582-8-8s3.582-8,8-8h1c4.418,0,8,3.582,8,8S253.418,304,249,304z"/>
	<path style="fill:#676779;" d="M216,140.003c8.044,3.352,22.048,8,40,8c8.714,0,23.429-1.095,40-8c-1.115,1.149-10.119,10.748-8,24
		c1.296,8.102,6.064,13.284,8,15.176c3.728-3.84,10.162-11.499,13.633-23.026c1.54-5.113,2.367-10.534,2.367-16.15
		c0-30.928-25.072-56-56-56s-56,25.072-56,56c0,15.254,6.107,29.077,16,39.176c1.936-1.892,6.704-7.074,8-15.176
		C226.119,150.751,217.115,141.152,216,140.003z"/>
</g>
<g>
</g>
<g>
</g>
<g>
</g>
<g>
</g>
<g>
</g>
<g>
</g>
<g>
</g>
<g>
</g>
<g>
</g>
<g>
</g>
<g>
</g>
<g>
</g>
<g>
</g>
<g>
</g>
<g>
</g>
</svg>
