<?xml version="1.0" encoding="UTF-8" standalone="no"?>
<svg width="198px" height="159px" viewBox="0 0 198 159" version="1.1" xmlns="http://www.w3.org/2000/svg" xmlns:xlink="http://www.w3.org/1999/xlink">
    <!-- Generator: Sketch 41.2 (35397) - http://www.bohemiancoding.com/sketch -->
    <title>atmosphere</title>
    <desc>Created with Sketch.</desc>
    <defs></defs>
    <g id="Page-1" stroke="none" stroke-width="1" fill="none" fill-rule="evenodd">
        <g id="atmosphere">
            <g id="Group">
                <g id="Page-1">
                    <g id="Group">
                        <g id="028-placeholder" transform="translate(22.657534, 0.309278)" fill="#000000">
                            <ellipse id="Oval" cx="78.2872016" cy="79.3624473" rx="78.2006438" ry="78.7176888"></ellipse>
                        </g>
                        <g id="047-martini">
                            <g id="Capa_1">
                                <rect id="Rectangle-path" fill="#56B4DD" x="51.5407638" y="70.0155879" width="19.3811333" height="73.0188867"></rect>
                                <path d="M51.5416916,70.01683 L51.5416916,96.0537015 C57.4293255,99.7982752 65.0367372,99.7982752 70.9240618,96.0537015 L70.9240618,70.01683 L51.5416916,70.01683 L51.5416916,70.01683 Z" id="Shape" fill="#000000" opacity="0.1"></path>
                                <path d="M83.1152803,159 L39.3507825,159 C34.9605708,159 31.4016418,155.426227 31.4016418,151.017703 L31.4016418,151.017703 C31.4016418,146.60918 34.9605708,143.035406 39.3507825,143.035406 L83.1152803,143.035406 C87.5054918,143.035406 91.0644205,146.60918 91.0644205,151.017703 L91.0644205,151.017703 C91.0647304,155.426227 87.5054918,159 83.1152803,159 Z" id="Shape" fill="#9DD3EC"></path>
                                <path d="M39.5208738,151.017703 C39.5208738,146.60918 43.0798028,143.035406 47.4700145,143.035406 L39.3504732,143.035406 C34.9602615,143.035406 31.4013325,146.60918 31.4013325,151.017703 C31.4013325,155.426227 34.9602615,159 39.3504732,159 L47.4700145,159 C43.0798028,159 39.5208738,155.426227 39.5208738,151.017703 Z" id="Shape" fill="#000000" opacity="0.1"></path>
                                <path d="M47.059012,83.1548265 L2.00274803,26.4141855 C-2.02841636,21.3373652 1.57133458,13.8314473 8.03758821,13.8314473 L114.428475,13.8314473 C120.894728,13.8314473 124.494479,21.3373652 120.463314,26.4141855 L75.4070506,83.1548265 C68.1494084,92.2948415 54.3166542,92.2948415 47.059012,83.1548265 Z" id="Shape" fill="#56B4DD"></path>
                                <path d="M8.3452989,34.4011406 L47.059012,83.1548265 C54.3166542,92.2945308 68.1494084,92.2945308 75.4070506,83.1548265 L114.121073,34.4011406 L8.3452989,34.4011406 Z" id="Shape" fill="#E62D55"></path>
                                <path d="M61.4478103,77.5662246 C60.5005562,77.5662246 59.6111333,76.97867 59.2681673,76.0330547 L32.8421606,3.12596484 C32.4039436,1.91731641 33.0246223,0.580722657 34.2285596,0.140677734 C35.4321876,-0.298435547 36.7632296,0.324210938 37.2014467,1.53285938 L63.6274533,74.4399492 C64.0656704,75.6489082 63.4449917,76.9851914 62.2410544,77.4252363 C61.9791137,77.5205742 61.7109879,77.5662246 61.4478103,77.5662246 Z" id="Shape" fill="#4A5058"></path>
                                <ellipse id="Oval" fill="#6CC5A4" transform="translate(55.125073, 57.795802) rotate(250.001229) translate(-55.125073, -57.795802) " cx="55.1250726" cy="57.7958022" rx="12.3764638" ry="11.0896294"></ellipse>
                                <path d="M62.2426007,66.7088848 C56.5111415,68.8035234 49.9700477,65.2732266 47.6320652,58.823168 C46.1065006,54.6143262 46.7491366,50.2036289 48.971457,47.0636895 C44.5775342,49.8576797 42.688902,55.90558 44.7473163,61.5851719 C47.0849896,68.03492 53.6263927,71.5655273 59.3575425,69.4708887 C61.3488481,68.7429668 62.97956,67.4309063 64.1627771,65.7589219 C63.5674575,66.1377891 62.9269863,66.4588945 62.2426007,66.7088848 Z" id="Shape" fill="#000000" opacity="0.1"></path>
                            </g>
                        </g>
                        <path d="M195.716101,34.3822877 C194.804828,33.6780315 193.617252,33.4334183 192.500965,33.7213024 L134.705993,48.5941342 C133.059238,49.017571 131.908855,50.4989376 131.908855,52.1940094 L131.908855,98.0567646 C128.667593,96.1126642 124.604947,94.9527387 120.189835,94.9527387 C109.599057,94.9527387 101.013699,101.611603 101.013699,109.825571 C101.013699,118.039538 109.599057,124.69796 120.189835,124.69796 C130.780613,124.69796 139.365971,118.039097 139.365971,109.825571 L139.365971,55.0746161 L189.703826,42.1207169 L189.703826,81.6500229 C186.157922,79.3787414 181.611299,78.0139414 176.653321,78.0139414 C165.327059,78.0139414 156.145256,85.1350977 156.145256,93.9190937 C156.145256,102.70309 165.326617,109.824246 176.653321,109.824246 C186.995248,109.824246 195.752853,103.885975 197.161385,96.1665316 C197.293781,95.7854832 197.161385,37.3202945 197.161385,37.3202945 C197.161385,36.1722907 196.627816,35.0869854 195.716101,34.3822877 Z" id="Shape" fill="#4990E2"></path>
                    </g>
                </g>
            </g>
        </g>
    </g>
</svg>