<?xml version="1.0" encoding="UTF-8" standalone="no"?>
<svg width="190px" height="160px" viewBox="0 0 190 160" version="1.1" xmlns="http://www.w3.org/2000/svg" xmlns:xlink="http://www.w3.org/1999/xlink">
    <!-- Generator: Sketch 41.2 (35397) - http://www.bohemiancoding.com/sketch -->
    <title>blockparty</title>
    <desc>Created with Sketch.</desc>
    <defs></defs>
    <g id="Page-1" stroke="none" stroke-width="1" fill="none" fill-rule="evenodd">
        <g id="blockparty">
            <g id="Group-2">
                <g id="Page-1">
                    <g id="Group-2">
                        <g id="028-placeholder" transform="translate(25.559140, 1.133758)" fill="#000000">
                            <ellipse id="Oval" cx="78.5908142" cy="79.7492034" rx="78.3697575" ry="78.9265607"></ellipse>
                        </g>
                        <g id="146-garland">
                            <g id="Layer_1">
                                <polygon id="Shape" fill="#CDD6E0" points="69.9307407 116.451592 38.3440741 138.199045 37.1592593 103.556051"></polygon>
                                <polygon id="Shape" fill="#FF7058" points="107.84926 125.271975 81.0025926 151.094904 72.7077778 117.1207"></polygon>
                                <polygon id="Shape" fill="#CDD6E0" points="110.626666 125.621974 125.216297 157.877388 146.545556 128.328343"></polygon>
                                <g id="Group" transform="translate(0.000000, 83.121019)" fill="#FF7058">
                                    <polygon id="Shape" points="146.952963 45.2073248 171.059629 73.0684713 182.501852 39.794586"></polygon>
                                    <polygon id="Shape" points="37.1592593 20.0847134 0.0181481482 33.9996815 9.49777778 0.0566878981"></polygon>
                                </g>
                                <polygon id="Shape" fill="#84DBFF" points="119.698889 40.033121 151.285555 61.4305732 152.470371 26.7872611"></polygon>
                                <polygon id="Shape" fill="#FFD15C" points="81.7803704 48.5347134 108.627037 74.6767516 116.921852 40.7022293"></polygon>
                                <polygon id="Shape" fill="#84DBFF" points="79.002963 49.2038217 64.4133334 81.4585987 43.084074 51.9101911"></polygon>
                                <g id="Group" transform="translate(7.037037, 6.687898)" fill="#FFD15C">
                                    <polygon id="Shape" points="35.6396296 44.9038217 11.5329629 72.7328025 0.0907407408 39.8095541"></polygon>
                                    <polygon id="Shape" points="145.433333 19.7493631 182.574445 33.6958599 173.094814 0.0713375796"></polygon>
                                </g>
                                <g id="Group" opacity="0.8" transform="translate(7.037037, 6.687898)">
                                    <path d="M71.7437037,43.0570064 C59.2644444,44.8082803 47.1559259,45.572293 36.1207407,45.3178344 L38.8981482,49.1388535 C48.637037,49.2025478 59.1166667,48.5019108 69.9662963,47.0372611 L71.7437037,43.0570064 Z" id="Shape" fill="#66A8C4"></path>
                                    <g id="Shape" transform="translate(0.000000, 34.394904)" fill="#C4A046">
                                        <path d="M109.736667,0.256369427 C104.21926,1.94394904 98.4796297,3.47229299 92.6288889,4.84140127 C86.8522222,6.14681529 81.1125926,7.22961783 75.41,8.08917197 L78.6685185,11.2732484 C83.6674074,10.4136943 88.7037037,9.39458599 93.8137037,8.21656051 C98.8866667,7.07038217 103.885926,5.79649682 108.699629,4.42738854 L109.736667,0.256369427 Z"></path>
                                        <path d="M35.2692592,10.9229299 C22.1237037,10.5726115 10.4962963,8.82133758 1.46074074,5.60541401 L0.0537037037,5.41433121 L1.53481481,9.71273885 C10.0518519,12.4509554 20.4570371,14.1066879 32.0474074,14.616242 L35.2692592,10.9229299 Z"></path>
                                    </g>
                                    <path d="M145.433333,20.322293 C135.953703,25.2576433 124.955926,29.7789809 113.069259,33.6318471 L117.031482,36.3382166 C127.325926,32.9949045 136.842593,29.1101911 145.285185,24.8436306 L145.433333,20.322293 Z" id="Shape" fill="#66A8C4"></path>
                                    <path d="M174.353703,4.4656051 L173.131852,0.103503185 C167.132963,7.04490446 157.764445,13.8270701 146.1,20.0041401 L150.987778,21.8191083 C160.578518,16.4378981 168.54,10.5789809 174.353703,4.4656051 Z" id="Shape" fill="#C4A046"></path>
                                </g>
                                <g id="Group" opacity="0.8" transform="translate(8.148148, 83.121019)" fill="#C45643">
                                    <path d="M80.7788889,42.9786624 C85.7777778,44.1566879 90.777037,45.143949 95.7018518,46.0035032 L98.7011111,43.106051 C93.1466667,42.2464968 87.5551852,41.1636943 81.9637037,39.9219745 C76.112963,38.489172 70.3733334,36.9289809 64.8188889,35.177707 L65.7448149,39.0305732 C70.6325925,40.4630573 75.6688888,41.7684713 80.7788889,42.9786624 Z" id="Shape"></path>
                                    <path d="M172.724444,44.5073248 L174.168519,40.2726115 C165.022222,43.6796178 153.061482,45.5901274 139.434444,45.9404459 L142.322592,49.283758 C153.875926,48.8375796 164.207407,47.2136943 172.724444,44.5073248 Z" id="Shape"></path>
                                    <path d="M23.9377778,21.9952229 L28.4925926,20.2757962 C16.9022223,14.0987261 7.60777778,7.25286624 1.60888888,0.247770701 L1.34962963,0.0566878981 L0.164814815,4.32324841 C6.01555555,10.5324841 14.1251852,16.5191083 23.9377778,21.9952229 Z" id="Shape"></path>
                                </g>
                                <g id="Group" fill="#F2F2F2">
                                    <path d="M99.9618518,46.1468153 C60.4507408,55.316879 22.5322222,54.6484076 1.20296297,45.1280255 C0.0181481482,44.4592357 -0.389259259,43.4404459 0.425185185,42.4216561 C0.832592592,41.4028662 2.38777778,41.0525478 3.20259259,41.7528662 C23.3470371,50.9229299 60.8581482,51.2732484 98.7770371,42.7716561 C136.695555,33.9197452 169.06,17.6171975 181.316667,0.96433121 C182.094444,-0.0544585987 183.27926,-0.0544585987 184.094074,0.295541401 C185.278889,0.96433121 185.278889,1.98312102 184.871852,2.68375796 C171.837037,20.6738854 139.435926,37.3267516 99.9618518,46.1468153 Z" id="Shape"></path>
                                    <path d="M89.6677778,122.915605 C129.178889,132.085668 167.097407,131.417197 188.426666,121.896815 C189.611482,121.546497 190.018889,120.209235 189.204444,119.508598 C188.797037,118.489809 187.241852,118.13949 186.427037,118.839808 C166.282592,128.009872 128.771482,128.360191 90.8525926,119.858599 C52.9340741,110.688535 20.5325926,94.3856688 8.31296297,77.4146497 C7.53518519,76.3958599 6.35037037,76.3958599 5.53555555,76.7458599 C4.72074075,77.0961783 4.35074074,78.4334395 4.75777778,79.1340764 C17.7925926,97.0926752 50.1937038,113.745223 89.6677778,122.915605 Z" id="Shape"></path>
                                </g>
                            </g>
                        </g>
                    </g>
                </g>
            </g>
        </g>
    </g>
</svg>