<?xml version="1.0" encoding="iso-8859-1"?>
<!-- Generator: Adobe Illustrator 19.0.0, SVG Export Plug-In . SVG Version: 6.00 Build 0)  -->
<svg version="1.1" id="Capa_1" xmlns="http://www.w3.org/2000/svg" xmlns:xlink="http://www.w3.org/1999/xlink" x="0px" y="0px"
	 viewBox="0 0 512 512" style="enable-background:new 0 0 512 512;" xml:space="preserve">
<circle style="fill:#323E40;" cx="70.28" cy="73.505" r="70.28"/>
<path style="fill:#283133;" d="M92.562,121.509c-38.816,0-70.283-31.467-70.283-70.283c0-13.702,3.935-26.479,10.716-37.288
	C13.183,26.367,0,48.391,0,73.505c0,38.816,31.467,70.283,70.283,70.283c25.114,0,47.138-13.183,59.567-32.995
	C119.041,117.574,106.264,121.509,92.562,121.509z"/>
<circle style="fill:#323E40;" cx="441.718" cy="73.505" r="70.28"/>
<path style="fill:#283133;" d="M479.005,13.937c6.781,10.81,10.716,23.586,10.716,37.288c0,38.816-31.467,70.283-70.283,70.283
	c-13.702,0-26.479-3.934-37.288-10.716c12.43,19.813,34.453,32.995,59.567,32.995c38.816,0,70.283-31.467,70.283-70.283
	C512,48.391,498.817,26.367,479.005,13.937z"/>
<path style="fill:#323E40;" d="M488.923,242.096c0,43.909-5.041,83.851-13.547,119.997c-4.682,19.893-18.6,36.323-37.358,44.432
	c-29.837,12.9-85.324,27.9-182.018,27.9S103.82,419.426,73.982,406.526c-18.759-8.11-32.676-24.539-37.358-44.432
	c-8.507-36.146-13.547-76.089-13.547-119.997h465.845V242.096z"/>
<path style="fill:#283133;" d="M118.541,406.526c-18.759-8.11-32.676-24.539-37.358-44.432
	c-8.507-36.146-13.547-76.088-13.547-119.997H23.078c0,43.909,5.041,83.851,13.547,119.997c4.682,19.893,18.6,36.323,37.358,44.432
	c29.837,12.9,85.324,27.9,182.018,27.9c7.694,0,15.099-0.105,22.279-0.286C195.225,432.043,146.004,418.399,118.541,406.526z"/>
<g>
	<path style="fill:#FFC4B1;" d="M153.839,411.025c-11.763,7.274-52.935,37.028-52.935,97.75h52.935l26.39-48.875L153.839,411.025z"
		/>
	<path style="fill:#FFC4B1;" d="M358.161,411.025L358.161,411.025L358.161,411.025L358.161,411.025L358.161,411.025l-26.39,48.875
		l26.39,48.875l0,0h52.935C411.096,448.053,369.925,418.299,358.161,411.025z"/>
</g>
<g>
	<path style="fill:#E6B09F;" d="M358.161,411.025L358.161,411.025L358.161,411.025l-19.596,36.291
		c14.076-5.305,27.48-11.917,40.042-19.694C370.194,419.02,362.33,413.602,358.161,411.025L358.161,411.025L358.161,411.025z"/>
	<path style="fill:#E6B09F;" d="M173.433,447.315l-19.596-36.291c-4.168,2.578-12.033,7.995-20.447,16.597
		C145.954,435.398,159.357,442.011,173.433,447.315z"/>
</g>
<path style="fill:#FF9DC7;" d="M358.161,411.025v97.75H153.839v-97.75c1.961-1.203,3.108-1.793,3.108-1.793h198.106
	C355.053,409.231,356.201,409.822,358.161,411.025z"/>
<path style="fill:#E670A9;" d="M156.947,409.231c0,0-1.147,0.59-3.108,1.793v27.848c30.746,14.96,65.451,23.403,102.161,23.403
	s71.414-8.442,102.161-23.402v-27.849c-1.961-1.203-3.108-1.793-3.108-1.793H156.947z"/>
<circle style="fill:#FFC4B1;" cx="255.999" cy="423.292" r="51.276"/>
<path style="fill:#323E40;" d="M23.077,242.096C23.077,118.418,127.36,18.157,256,18.157s232.923,100.261,232.923,223.939H23.077z"
	/>
<path style="fill:#283133;" d="M278.279,19.182c-7.334-0.669-14.763-1.025-22.279-1.025c-128.64,0-232.923,100.261-232.923,223.939
	h44.558C67.635,125.644,160.093,29.966,278.279,19.182z"/>
<g>
	<circle style="fill:#E6B09F;" cx="456.044" cy="242.095" r="50.15"/>
	<path style="fill:#E6B09F;" d="M292.341,459.453c9.227-9.271,14.931-22.051,14.931-36.166c0-4.877-0.695-9.588-1.967-14.056
		h-98.611c-1.272,4.468-1.967,9.179-1.967,14.056c0,14.114,5.705,26.894,14.932,36.166c11.839,1.842,23.972,2.823,36.341,2.823
		C268.368,462.276,280.502,461.295,292.341,459.453z"/>
</g>
<path style="fill:#FFC4B1;" d="M449.292,192.412c-126.704,0-193.293-85.489-193.293-85.489s-66.587,85.489-193.292,85.489
	c-4.397,15.851-6.753,32.501-6.753,49.684c0,106.222,89.563,192.331,200.046,192.331s200.046-86.109,200.046-192.331
	C456.046,224.914,453.689,208.263,449.292,192.412L449.292,192.412z"/>
<path style="fill:#E6B09F;" d="M98.285,232.062c0-14.617,1.565-28.859,4.479-42.596c-12.603,1.881-25.954,2.946-40.056,2.946
	c-2.21-0.297-4.461-0.466-6.754-0.466c-27.696,0-50.149,22.453-50.149,50.149s22.453,50.149,50.149,50.149
	c2.291,0,4.543-0.168,6.753-0.466C85.49,373.916,163.389,434.427,256,434.427c7.235,0,14.377-0.379,21.413-1.098
	C176.762,422.748,98.285,336.679,98.285,232.062z"/>
<g>
	<path style="fill:#3A484A;" d="M167.002,258.596c-4.614,0-8.355-3.741-8.355-8.355v-16.107c0-4.614,3.741-8.355,8.355-8.355
		c4.614,0,8.355,3.741,8.355,8.355v16.107C175.357,254.855,171.617,258.596,167.002,258.596z"/>
	<path style="fill:#3A484A;" d="M344.998,258.596c-4.614,0-8.355-3.741-8.355-8.355v-16.107c0-4.614,3.741-8.355,8.355-8.355
		s8.355,3.741,8.355,8.355v16.107C353.352,254.855,349.612,258.596,344.998,258.596z"/>
	<path style="fill:#3A484A;" d="M256,270.499c-12.93,0-25.06-5.393-33.28-14.797c-3.037-3.474-2.682-8.752,0.792-11.789
		s8.752-2.682,11.789,0.792c5.046,5.774,12.59,9.084,20.698,9.084c8.107,0,15.651-3.311,20.697-9.084
		c3.038-3.474,8.316-3.829,11.789-0.792c3.474,3.037,3.829,8.315,0.792,11.789C281.059,265.106,268.93,270.499,256,270.499z"/>
</g>
<g>
</g>
<g>
</g>
<g>
</g>
<g>
</g>
<g>
</g>
<g>
</g>
<g>
</g>
<g>
</g>
<g>
</g>
<g>
</g>
<g>
</g>
<g>
</g>
<g>
</g>
<g>
</g>
<g>
</g>
</svg>
