<?xml version="1.0" encoding="UTF-8" standalone="no"?>
<svg width="219px" height="288px" viewBox="0 0 219 288" version="1.1" xmlns="http://www.w3.org/2000/svg" xmlns:xlink="http://www.w3.org/1999/xlink">
    <!-- Generator: Sketch 41.2 (35397) - http://www.bohemiancoding.com/sketch -->
    <title>Group</title>
    <desc>Created with Sketch.</desc>
    <defs></defs>
    <g id="Page-1" stroke="none" stroke-width="1" fill="none" fill-rule="evenodd">
        <g id="Group">
            <g id="028-placeholder" transform="translate(15.000000, 14.000000)">
                <path d="M150.396,200.976981 C180.533143,152.020392 202.671429,79.12024 159.060571,30.1734568 C142.056571,11.0886358 117.429143,0 92,0 C66.5702857,0 41.9434286,11.0886358 24.9388571,30.1734568 C-18.672,79.12024 3.46628571,152.019815 33.6034286,200.976981 C49.9474286,227.526716 70.1394286,251.559688 91.9994286,273.62736 C113.86,251.560265 134.052,227.527293 150.396,200.976981 Z" id="Shape" fill="#FF0B3D"></path>
                <ellipse id="Oval" fill="#000000" cx="91.9994286" cy="89.3101558" rx="76.2709953" ry="76.9935626"></ellipse>
            </g>
            <g id="047-martini">
                <g id="Capa_1">
                    <rect id="Rectangle-path" fill="#56B4DD" x="62.7079293" y="85.4278242" width="23.5803788" height="89.0922266"></rect>
                    <path d="M62.7090581,85.4293398 L62.7090581,117.197598 C69.872346,121.766449 79.1280303,121.766449 86.2909419,117.197598 L86.2909419,85.4293398 L62.7090581,85.4293398 L62.7090581,85.4293398 Z" id="Shape" fill="#000000" opacity="0.1"></path>
                    <path d="M101.123591,194 L47.8767854,194 C42.5353611,194 38.2053308,189.639547 38.2053308,184.260594 L38.2053308,184.260594 C38.2053308,178.881641 42.5353611,174.521187 47.8767854,174.521187 L101.123591,174.521187 C106.465015,174.521187 110.795045,178.881641 110.795045,184.260594 L110.795045,184.260594 C110.795422,189.639547 106.465015,194 101.123591,194 Z" id="Shape" fill="#9DD3EC"></path>
                    <path d="M48.0837298,184.260594 C48.0837298,178.881641 52.4137601,174.521187 57.7551843,174.521187 L47.8764091,174.521187 C42.5349848,174.521187 38.2049545,178.881641 38.2049545,184.260594 C38.2049545,189.639547 42.5349848,194 47.8764091,194 L57.7551843,194 C52.4137601,194 48.0837298,189.639547 48.0837298,184.260594 Z" id="Shape" fill="#000000" opacity="0.1"></path>
                    <path d="M57.2551313,101.459348 L2.43667677,32.2286289 C-2.46790657,26.0342695 1.9117904,16.8761055 9.77906566,16.8761055 L139.221311,16.8761055 C147.088586,16.8761055 151.468283,26.0342695 146.563699,32.2286289 L91.7452449,101.459348 C82.9151136,112.611316 66.0852626,112.611316 57.2551313,101.459348 Z" id="Shape" fill="#56B4DD"></path>
                    <path d="M10.153447,41.9737187 L57.2551313,101.459348 C66.0852626,112.610937 82.9151136,112.610937 91.7452449,101.459348 L138.847306,41.9737187 C138.847306,41.9737187 10.153447,41.9737187 10.153447,41.9737187 Z" id="Shape" fill="#E62D55"></path>
                    <path d="M74.7615025,94.6405508 C73.6090101,94.6405508 72.5268788,93.9236602 72.1096035,92.7698906 L39.9579621,3.81407031 C39.424798,2.33936719 40.1799571,0.708554688 41.6447475,0.171644531 C43.1091616,-0.364128906 44.728596,0.395578125 45.2617601,1.87028125 L77.4134015,90.8261016 C77.9465657,92.3011836 77.1914066,93.9316172 75.7266162,94.4685273 C75.4079217,94.5848516 75.081702,94.6405508 74.7615025,94.6405508 Z" id="Shape" fill="#4A5058"></path>
                    <ellipse id="Oval" fill="#6CC5A4" transform="translate(67.068838, 70.518149) rotate(250.001229) translate(-67.068838, -70.518149) " cx="67.0688383" cy="70.5181494" rx="15.058031" ry="13.5307428"></ellipse>
                    <path d="M75.7284975,81.3932305 C68.7552222,83.9489531 60.7968914,79.6415469 57.952346,71.7716641 C56.0962424,66.6363477 56.8781162,61.2547422 59.5819394,57.4236211 C54.236,60.8326406 51.9381641,68.2118398 54.4425682,75.1416563 C57.2867374,83.0111602 65.2454444,87.3189453 72.2183434,84.7632227 C74.6410985,83.8750664 76.6251313,82.2741875 78.0647121,80.2341563 C77.3404066,80.6964219 76.5611667,81.0882109 75.7284975,81.3932305 Z" id="Shape" fill="#000000" opacity="0.1"></path>
                </g>
            </g>
            <path d="M216.221256,41.9507158 C215.112541,41.0914346 213.667656,40.7929758 212.309507,41.1442306 L141.992292,59.2909562 C139.988739,59.8076024 138.589107,61.6150559 138.589107,63.6832568 L138.589107,119.641587 C134.645572,117.26954 129.702685,115.854285 124.330966,115.854285 C111.445519,115.854285 101,123.978937 101,134.001011 C101,144.023084 111.445519,152.147197 124.330966,152.147197 C137.216412,152.147197 147.661931,144.022546 147.661931,134.001011 L147.661931,67.1979593 L208.906322,51.3925728 L208.906322,99.6232984 C204.592138,96.8520492 199.060414,95.1868216 193.028207,95.1868216 C179.247922,95.1868216 168.076728,103.875528 168.076728,114.593108 C168.076728,125.310688 179.247384,133.999394 193.028207,133.999394 C205.610885,133.999394 216.265971,126.753957 217.979685,117.335265 C218.140767,116.870338 217.979685,45.5354537 217.979685,45.5354537 C217.979685,44.1347446 217.33051,42.8105357 216.221256,41.9507158 Z" id="Shape" fill="#4990E2"></path>
        </g>
    </g>
</svg>