<?xml version="1.0" encoding="UTF-8" standalone="no"?>
<svg width="196px" height="154px" viewBox="0 0 196 154" version="1.1" xmlns="http://www.w3.org/2000/svg" xmlns:xlink="http://www.w3.org/1999/xlink">
    <!-- Generator: Sketch 41.2 (35397) - http://www.bohemiancoding.com/sketch -->
    <title>concert</title>
    <desc>Created with Sketch.</desc>
    <defs></defs>
    <g id="Page-1" stroke="none" stroke-width="1" fill="none" fill-rule="evenodd">
        <g id="concert">
            <g id="Group-2">
                <g id="Page-1">
                    <g id="Group-2">
                        <g id="028-placeholder" transform="translate(27.869670, 0.430233)" fill="#000000">
                            <ellipse id="Oval" cx="76.5506855" cy="76.610492" rx="75.7694947" ry="76.3393305"></ellipse>
                        </g>
                        <g id="023-heavy-metal-1" transform="translate(0.000000, 10.000000)">
                            <g id="Capa_1">
                                <rect id="Rectangle-path" fill="#676775" x="51.1197039" y="48.3155658" width="33.7125912" height="33.5762151"></rect>
                                <rect id="Rectangle-path" fill="#4C4C59" x="51.1197039" y="67.2840392" width="33.7125912" height="14.6077416"></rect>
                                <path d="M78.6859959,57.4727154 L78.6859959,12.9948859 C78.6859959,6.02218817 84.3726703,0.349237023 91.3631962,0.349237023 C98.3537221,0.349237023 104.040396,6.02218817 104.040396,12.9948859 L104.040396,57.4727154 L78.6859959,57.4727154 Z" id="Shape" fill="#F5C882"></path>
                                <path d="M78.6859959,57.4727154 L78.6859959,12.9948859 C78.6859959,6.02218817 84.3726703,0.349237023 91.3631962,0.349237023 C98.3537221,0.349237023 104.040396,6.02218817 104.040396,12.9948859 L104.040396,57.4727154 L78.6859959,57.4727154 Z" id="Shape" fill="#F9B264"></path>
                                <path d="M91.259285,11.3532139 C91.259285,7.30387083 93.169359,3.68548282 96.15261,1.28942438 C94.6737036,0.685141105 93.0572551,0.349237023 91.3631962,0.349237023 C84.3726703,0.349237023 78.6859959,6.02218817 78.6859959,12.9948859 L78.6859959,57.4727154 L91.259285,57.4727154 L91.259285,11.3532139 Z" id="Shape" fill="#EA9939"></path>
                                <path d="M25.5730026,90.6128144 C11.4720858,90.6128144 0,79.1692804 0,65.1034583 C0,51.0376361 11.4720858,39.5941023 25.5730026,39.5941023 C32.5169625,39.5941023 39.2539617,42.4662758 44.0558793,47.4751604 L45.0260071,48.4863135 L45.0260071,81.7102809 L44.0563104,82.7214335 C39.2483566,87.7367702 32.5113573,90.6128144 25.5730026,90.6128144 Z" id="Shape" fill="#ABAAB0"></path>
                                <path d="M25.5730026,76.0050726 C14.0164078,76.0050726 4.23061997,68.3166969 1.07360821,57.7995874 C0.378565464,60.1152181 0,62.5658987 0,65.1034583 C0,79.1692804 11.4720858,90.6128144 25.5730026,90.6128144 C32.5113573,90.6128144 39.2483565,87.7367702 44.0563104,82.721864 L45.0260071,81.7107109 L45.0260071,67.1029692 L44.0563104,68.1141223 C39.2483566,73.1285982 32.5113573,76.0050726 25.5730026,76.0050726 Z" id="Shape" fill="#929296"></path>
                                <path d="M165.730613,0.354828256 C158.835376,0.559553407 153.437584,6.38346785 153.437584,13.2636953 L153.437584,47.2252753 L153.437584,72.5165732 C153.437584,73.6494431 153.278914,74.7453248 152.988307,75.7870145 L126.334798,75.7870145 C133.452518,75.7870145 139.21939,69.9050373 139.006393,62.7581511 C138.801588,55.8800741 132.963143,50.4957166 126.065318,50.4957166 L111.397415,50.4957166 L84.9155109,50.4957166 C81.4752214,50.4957166 78.6859959,53.2775702 78.6859959,56.7097271 L78.6859959,76.1100157 C78.6859959,103.661462 100.827333,126.428963 128.447089,126.587238 C156.179812,126.745943 178.791985,104.28725 178.791985,76.659677 L178.791985,12.9948859 C178.791985,5.89488009 172.895331,0.142361398 165.730613,0.354828256 Z" id="Shape" fill="#FFC477"></path>
                                <path d="M90.5517384,76.1095856 L90.5517384,56.709297 C90.5517384,53.2775702 93.3405321,50.4952865 96.781253,50.4952865 L84.9155109,50.4952865 C81.4752214,50.4952865 78.6859959,53.2771401 78.6859959,56.709297 L78.6859959,76.1095856 C78.6859959,103.661032 100.827333,126.428533 128.447089,126.586808 C130.561537,126.59885 132.645803,126.477994 134.692988,126.234991 C109.750785,123.267336 90.5517384,101.764314 90.5517384,76.1095856 Z" id="Shape" fill="#FFA733"></path>
                                <path d="M165.303757,72.5165732 L165.303757,47.2252753 L165.303757,13.2636953 C165.303757,8.37695747 168.027876,4.02525776 172.076112,1.8395157 C170.19234,0.833953928 168.027876,0.286873268 165.731045,0.354828256 C158.835807,0.559553407 153.438015,6.38303775 153.438015,13.2636953 L153.438015,47.2252753 L153.438015,72.5165732 C153.438015,73.6494431 153.279345,74.7453248 152.988738,75.7870145 L164.85448,75.7870145 C165.144657,74.7453248 165.303757,73.6494431 165.303757,72.5165732 Z" id="Shape" fill="#F5AF73"></path>
                                <path d="M161.61684,63.5374829 C164.244377,63.5374829 166.374779,61.4123842 166.374779,58.7913862 L166.374779,12.9948859 C166.374779,8.37781766 168.869517,4.33277557 172.583597,2.12509869 C170.482516,0.876103225 167.99209,0.213757143 165.339975,0.372462145 C158.604701,0.775461024 153.438015,6.52582924 153.438015,13.2563836 L153.438015,63.5370528 L161.61684,63.5374829 L161.61684,63.5374829 Z" id="Shape" fill="#FFA733"></path>
                                <path d="M144.257587,81.8917809 L144.257587,48.3155658 L188.905029,48.3155658 C192.729489,48.3155658 195.840797,51.4191303 195.840797,55.2340716 L195.840797,74.973275 C195.840797,78.7882164 192.729489,81.8917809 188.905029,81.8917809 L144.257587,81.8917809 Z" id="Shape" fill="#676775"></path>
                                <path d="M188.905029,67.2840392 L148.629199,67.2840392 L148.629199,81.8917809 L188.905029,81.8917809 C192.729489,81.8917809 195.840797,78.7882164 195.840797,74.973275 L195.840797,60.3655334 C195.840797,64.1804747 192.729489,67.2840392 188.905029,67.2840392 Z" id="Shape" fill="#4C4C59"></path>
                                <g id="Group" transform="translate(103.480309, 38.278442)" fill="#F9B264">
                                    <path d="M36.8170005,46.88378 C36.6212503,46.88378 36.4250688,46.8799092 36.2284562,46.8717373 C29.799742,46.6085193 24.7477471,41.2598597 24.5709682,34.8441347 L23.9690578,12.9944559 C23.8315152,7.98815175 26.6901587,3.30527896 31.3101233,1.34404642 C33.0080628,0.623207445 34.877607,0.2257998 36.8170005,0.2257998 C44.2434373,0.2257998 50.2849627,5.89875094 50.2849627,12.8714487 L50.2849627,34.2381311 C50.2849627,41.2108289 44.242575,46.88378 36.8170005,46.88378 Z" id="Shape"></path>
                                    <path d="M12.4167747,46.88378 C12.2322349,46.88378 12.0472638,46.8794791 11.8614304,46.8704471 C5.63234699,46.5680904 0.792055532,41.3131914 0.682538872,35.0935897 L0.230674855,9.41391617 C1.87816761,3.64290343 7.47170949,-0.271389854 13.5524712,0.277411181 C20.1381305,0.87180227 25.093975,6.5546456 25.093975,13.1501502 L25.093975,34.2385612 C25.093975,41.2108289 19.4068697,46.88378 12.4167747,46.88378 Z" id="Shape"></path>
                                </g>
                                <g id="Group" transform="translate(103.480309, 38.278442)" fill="#EA9939">
                                    <path d="M34.6258049,34.8437046 L34.0238945,12.9940258 C33.8859208,7.98772166 36.7449954,3.30484887 41.36496,1.34318624 C41.5270792,1.27437106 41.6926477,1.21114711 41.8582162,1.14792317 C40.2999752,0.554822364 38.5990177,0.225369704 36.8165694,0.225369704 C36.6027101,0.225369704 36.3901442,0.230100747 36.1784408,0.239562834 C29.165494,0.555252458 23.7927101,6.61614916 23.9854422,13.6159429 L24.5696747,34.8204795 C24.7460224,41.2172803 29.7587811,46.5775525 36.1672304,46.8682966 C36.3841078,46.8781888 36.6005542,46.8829198 36.8165694,46.8829198 C38.6442903,46.8829198 40.3875023,46.5388439 41.9780809,45.9169267 C41.998777,45.908755 41.9992081,45.8799386 41.9785121,45.8709066 C37.7293518,44.0004241 34.7607606,39.7338831 34.6258049,34.8437046 Z" id="Shape"></path>
                                    <path d="M10.7382379,35.0931597 L10.3415634,12.55963 C10.2600726,7.95116359 12.7375637,3.59000176 16.8767761,1.54145997 C17.061316,1.45027985 17.2480117,1.3629706 17.4368632,1.28125257 C16.2330423,0.750515523 14.9287593,0.4012785 13.5529023,0.276981087 C7.47170949,-0.271389854 1.87859878,3.64247333 0.231106024,9.41348608 L0.68297004,35.0957402 C0.792486701,41.3196429 5.64010802,46.5732516 11.8735032,46.8704471 C12.055456,46.879049 12.2369777,46.8833499 12.4167747,46.8833499 C14.253119,46.8833499 15.9984869,46.4885228 17.5756993,45.7844575 C13.5718737,43.8920402 10.8201599,39.76528 10.7382379,35.0931597 Z" id="Shape"></path>
                                </g>
                                <path d="M98.6827034,75.7870145 L126.042035,75.7870145 C133.193818,75.7870145 139.012429,70.1140634 139.012429,63.1413656 C139.012429,56.1686678 133.193386,50.4957166 126.042035,50.4957166 L98.6827034,50.4957166 L98.6827034,75.7870145 L98.6827034,75.7870145 Z" id="Shape" fill="#F5C882"></path>
                                <path d="M50.927403,87.1243152 C47.4323555,87.1243152 44.5888029,84.2878393 44.5888029,80.8014905 L44.5888029,49.4054262 C44.5888029,45.9190773 47.4323555,43.0826017 50.927403,43.0826017 C54.4224504,43.0826017 57.2660031,45.9190773 57.2660031,49.4054262 L57.2660031,80.8014905 C57.2660031,84.2878393 54.4224504,87.1243152 50.927403,87.1243152 Z" id="Shape" fill="#DDB200"></path>
                                <path d="M50.927403,72.5165732 C47.4323555,72.5165732 44.5888029,69.6800977 44.5888029,66.1937487 L44.5888029,80.8014905 C44.5888029,84.2878393 47.4323555,87.1243152 50.927403,87.1243152 C54.4224504,87.1243152 57.2660031,84.2878393 57.2660031,80.8014905 L57.2660031,66.1937487 C57.2660031,69.6800977 54.4224504,72.5165732 50.927403,72.5165732 Z" id="Shape" fill="#BA9806"></path>
                                <g id="Group" transform="translate(18.971390, 46.450245)" fill="#929296">
                                    <path d="M18.452695,5.46693571 L15.3375065,8.57437104 C14.8666711,9.04403465 14.1035038,9.04403465 13.6322372,8.57437104 L10.5170488,5.46693571 C10.0462134,4.99727212 10.0462134,4.23600423 10.5170488,3.76591056 L13.6322372,0.658475224 C14.1030726,0.188811642 14.8662399,0.188811642 15.3375065,0.658475224 L18.452695,3.76591056 C18.9235303,4.23600423 18.9235303,4.99727212 18.452695,5.46693571 Z" id="Shape"></path>
                                    <path d="M17.9529713,17.5414187 L15.3375064,20.1503741 C14.8666711,20.6200377 14.1035038,20.6200377 13.6322372,20.1503741 L11.0167724,17.5414187 C10.545937,17.0717551 10.545937,16.3104872 11.0167724,15.8403935 L13.6322372,13.2314382 C14.1030726,12.7617746 14.8662399,12.7617746 15.3375064,13.2314382 L17.9529713,15.8403935 C18.4238067,16.3104872 18.4238067,17.0717551 17.9529713,17.5414187 Z" id="Shape"></path>
                                    <path d="M6.51020495,10.9351617 L4.39403262,13.0460672 C3.92319722,13.5157308 3.16002994,13.5157308 2.68876337,13.0460672 L0.572591044,10.9351617 C0.101755637,10.4654981 0.101755637,9.70423021 0.572591044,9.23413659 L2.68876337,7.123231 C3.15959877,6.65356741 3.92276606,6.65356741 4.39403262,7.123231 L6.51020495,9.23413659 C6.98104035,9.70423021 6.98104035,10.4654981 6.51020495,10.9351617 Z" id="Shape"></path>
                                </g>
                            </g>
                        </g>
                    </g>
                </g>
            </g>
        </g>
    </g>
</svg>