<?xml version="1.0" encoding="UTF-8" standalone="no"?>
<svg width="161px" height="163px" viewBox="0 0 161 163" version="1.1" xmlns="http://www.w3.org/2000/svg" xmlns:xlink="http://www.w3.org/1999/xlink">
    <!-- Generator: Sketch 41.2 (35397) - http://www.bohemiancoding.com/sketch -->
    <title>festival</title>
    <desc>Created with Sketch.</desc>
    <defs></defs>
    <g id="Page-1" stroke="none" stroke-width="1" fill="none" fill-rule="evenodd">
        <g id="festival">
            <g id="Group-2">
                <g id="Page-1">
                    <g id="Group-2">
                        <g id="028-placeholder" fill="#000000">
                            <ellipse id="Oval" cx="80.3384798" cy="81.7588226" rx="80.3276326" ry="81.2239055"></ellipse>
                        </g>
                        <g id="050-tent" transform="translate(1.000000, 3.000000)">
                            <g id="Layer_1">
                                <g id="Group" transform="translate(9.812500, 3.691822)" fill="#F95428">
                                    <path d="M123.830377,73.3291143 C123.885266,71.5973423 123.964072,69.8618785 124.070477,68.1230305 C119.437443,68.9115421 76.0453417,56.8328248 68.6838203,56.8294406 C61.3192324,56.8294406 17.9301973,68.9115421 13.2971641,68.1230305 C14.7350019,91.8842094 11.6088008,115.104845 0.259724609,137.612958 L17.3742578,137.612958 L17.3742578,137.612958 L17.3742578,137.612958 L41.3112383,137.612958 L48.5902734,137.612958 L48.5902734,137.612958 L88.78074,137.612958 L88.78074,137.612958 L96.059775,137.612958 L119.996756,137.612958 L137.111289,137.612958 C126.589529,116.750781 123.133689,95.279455 123.830377,73.3291143 Z" id="Shape"></path>
                                    <polygon id="Shape" points="85.2427208 8.40843133 71.2580683 16.5067497 68.4286953 9.91500224 71.2580683 0.306728845"></polygon>
                                </g>
                                <path d="M81.0705683,40.9915259 L75.9226858,40.9915259 L75.9226858,2.67626301 C75.9226858,1.24998927 77.0750409,0.0938337994 78.4966267,0.0938337994 L78.4966267,0.0938337994 C79.9182125,0.0938337994 81.0705683,1.24998927 81.0705683,2.67626301 L81.0705683,40.9915259 Z" id="Shape" fill="#666666"></path>
                                <g id="Group" transform="translate(42.316407, 30.765180)" fill="#F2F2F2">
                                    <path d="M36.1802207,45.7185959 C28.8156328,45.7185959 21.4507383,45.4740126 14.0996426,44.9817698 C10.1942676,44.7199581 6.29563867,44.3895401 2.40038282,43.990208 L2.40038282,43.9834397 C-3.33900977,38.2251209 3.83852734,35.0095443 9.41509375,29.4121274 C18.1144883,20.6800464 36.1799141,11.0367007 36.1799141,0.0212279742 C36.1799141,10.9041028 50.4718203,17.9714799 59.0050156,26.6574132 C64.6456699,32.3991187 69.9594453,38.3641795 69.9594453,43.9834397 L69.9628183,43.9834397 L69.9628183,43.990208 C66.0641894,44.3895401 62.1621875,44.7202658 58.2601856,44.9817698 C50.9063301,45.4743203 43.5414356,45.72198 36.1802207,45.7185959 Z" id="Shape"></path>
                                    <path d="M87.4931559,110.539599 L63.5561758,110.539599 C59.5959121,90.9135685 58.1372227,70.7469928 58.2163359,50.1500124 C58.2163359,48.4283929 58.2335078,46.7067734 58.2611055,44.9817698 C62.1631074,44.7199581 66.0651093,44.3895401 69.9637383,43.990208 C72.5205078,43.7283963 75.0772775,43.4358195 77.6303675,43.1121698 C77.5650525,44.8439417 77.52059,46.569253 77.4966717,48.2942567 C77.1768458,69.5351523 79.8470725,90.3247228 87.4931559,110.539599 Z" id="Shape"></path>
                                    <path d="M36.1802207,45.7185959 L36.1802207,74.3828214 C30.8195293,90.0490667 23.9421933,102.544345 16.0866738,110.539599 L8.80763867,110.539599 C12.7645293,90.9135685 14.2232188,70.7469928 14.1441055,50.1500124 C14.1441055,48.4283929 14.1269336,46.7067734 14.0993359,44.9817698 C21.4507383,45.4743203 28.8153262,45.7185959 36.1802207,45.7185959 Z" id="Shape"></path>
                                </g>
                                <path d="M37.0467871,73.8773495 C37.9013945,96.9189311 35.4510293,119.447657 27.1870644,141.30478 L10.0725313,141.30478 C21.4216074,118.796974 24.5481152,95.5760309 23.1099707,71.8148521 C27.7430039,72.6033637 32.393209,73.2885043 37.0467871,73.8773495 Z" id="Shape" fill="#CCCCCC"></path>
                                <path d="M98.5935467,141.30478 L58.4030801,141.30478 C66.2585996,133.309833 73.1359356,120.814555 78.4966267,105.148002 C83.8570117,120.814555 90.7380275,133.309833 98.5935467,141.30478 Z" id="Shape" fill="#4D4D4D"></path>
                                <path d="M23.1099707,71.8148521 C15.7110391,70.5580946 8.3461445,69.0499854 1.02601953,67.2871406 C32.2043183,67.2871406 60.0503535,53.0908559 78.49632,30.7861004 C78.49632,48.8627972 61.9582715,67.5658731 44.7167891,74.7483122 L44.7167891,74.7550808 C42.1600195,74.4932689 39.60325,74.200692 37.0464805,73.8770425 C32.393209,73.2885043 27.7430039,72.6033637 23.1099707,71.8148521 Z" id="Shape" fill="#E54728"></path>
                                <path d="M133.882977,71.8148521 C129.249943,72.6033637 124.603112,73.2885043 119.94616,73.8773495 C117.392763,74.2009998 114.835994,74.4935767 112.279532,74.7553878 L112.279532,74.74862 L112.276158,74.74862 C95.0346758,67.5627966 78.4966267,48.8627972 78.4966267,30.786408 C96.9462733,53.0911636 124.788629,67.2874482 155.970607,67.2874482 C148.646803,69.0499854 141.282215,70.5614787 133.882977,71.8148521 Z" id="Shape" fill="#F95428"></path>
                                <path d="M56.4608183,80.9151921 C56.539625,101.512172 55.0812422,121.678749 51.1243516,141.30478 L27.1870644,141.30478 C34.8297754,121.089903 37.4996953,100.29664 37.1804824,79.0594366 C37.1565644,77.3344328 37.1117949,75.6060455 37.0467871,73.8773495 C39.6035567,74.2009998 42.1603262,74.4935767 44.7170957,74.7553878 C48.6123516,75.15472 52.5106738,75.4854459 56.4163555,75.74695 C56.4436465,77.4719538 56.4608183,79.1935726 56.4608183,80.9151921 Z" id="Shape" fill="#E54728"></path>
                                <path d="M154.426058,143.887209 L2.57394141,143.887209 C1.15235547,143.887209 0,142.731054 0,141.30478 C0,139.878506 1.15235547,138.72235 2.57394141,138.72235 L154.426058,138.72235 C155.847644,138.72235 157,139.878506 157,141.30478 C157,142.731054 155.847951,143.887209 154.426058,143.887209 Z" id="Shape" fill="#666666"></path>
                                <g id="Group" transform="translate(36.796875, 71.682870)" fill="#E54728">
                                    <path d="M19.6191738,4.06408028 C19.6467715,5.78908393 19.6639433,7.51070343 19.6639433,9.23232289 C19.6501445,9.23232289 19.6329727,9.22893874 19.6191738,9.22893874 C15.7137988,8.967127 11.8151699,8.63670901 7.91991408,8.23737693 C5.40791407,7.97925712 2.89560742,7.69344858 0.383607422,7.37656724 C0.359689453,5.65156357 0.314919922,3.92317576 0.249912109,2.1944803 C2.80668164,2.51812999 5.36345117,2.81070685 7.92022067,3.07251853 C11.8151699,3.47185057 15.7137988,3.80257626 19.6191738,4.06408028 Z" id="Shape"></path>
                                    <path d="M41.6997519,4.80090635 C49.0609668,4.80429052 56.4258613,4.55632316 63.7803301,4.06408028 C63.7527324,5.78908393 63.7355606,7.51070343 63.7355606,9.23232289 C56.3948907,9.72118157 49.047168,9.96914896 41.6997519,9.96576474 L41.6997519,4.80090635 L41.6997519,4.80090635 Z" id="Shape"></path>
                                    <path d="M97.0861017,0.131982623 C96.9796975,1.8708306 96.9008908,3.60598675 96.8460017,5.33806639 C92.2920817,6.10934945 87.7277366,6.78064568 83.1495917,7.35933873 C83.1048225,7.36610709 83.0603592,7.36979888 83.0158966,7.37656724 C83.0398142,5.65156357 83.0845841,3.92655993 83.1495917,2.1944803 C87.8065433,1.60563475 92.453375,0.920494188 97.0861017,0.131982623 Z" id="Shape"></path>
                                </g>
                                <g id="Group" transform="translate(56.115234, 73.836432)" fill="#CCCCCC">
                                    <path d="M0.300814453,1.91051768 C7.65191017,2.40276056 15.0164981,2.64734374 22.3813926,2.64734374 L22.3813926,7.81220216 C15.0302968,7.81220216 7.68288084,7.56761899 0.345583984,7.07876028 C0.345583984,5.3571408 0.328412109,3.63552133 0.300814453,1.91051768 Z" id="Shape"></path>
                                    <path d="M63.8312324,0.0409176895 C63.765918,1.77268968 63.7214551,3.49800097 63.6975371,5.22300462 C61.1889102,5.53988597 58.6766035,5.8256945 56.1646035,6.08381436 C52.2659746,6.48314639 48.3639727,6.81387208 44.4619707,7.07537611 C44.4481719,7.07537611 44.431,7.07876028 44.4175078,7.07876028 C44.4175078,5.3571408 44.4346797,3.63552133 44.4619707,1.91051768 C48.3639727,1.648706 52.2659746,1.31828797 56.1646035,0.918955927 C58.7210664,0.657144246 61.2778359,0.364567383 63.8312324,0.0409176895 Z" id="Shape"></path>
                                </g>
                            </g>
                        </g>
                    </g>
                </g>
            </g>
        </g>
    </g>
</svg>