<?xml version="1.0" encoding="UTF-8" standalone="no"?>
<svg width="161px" height="167px" viewBox="0 0 161 167" version="1.1" xmlns="http://www.w3.org/2000/svg" xmlns:xlink="http://www.w3.org/1999/xlink">
    <!-- Generator: Sketch 41.2 (35397) - http://www.bohemiancoding.com/sketch -->
    <title>karaoke</title>
    <desc>Created with Sketch.</desc>
    <defs></defs>
    <g id="Page-1" stroke="none" stroke-width="1" fill="none" fill-rule="evenodd">
        <g id="karaoke" transform="translate(-5.000000, -1.000000)">
            <g id="Group-2">
                <g id="Page-1">
                    <g id="Group-2">
                        <g id="028-placeholder" transform="translate(11.339535, 3.679245)" fill="#000000">
                            <ellipse id="Oval" cx="76.7528957" cy="78.1520485" rx="76.7287436" ry="77.4949683"></ellipse>
                        </g>
                        <g id="054-microphone-1" transform="translate(85.000000, 84.500000) rotate(-2.000000) translate(-85.000000, -84.500000) translate(3.000000, 3.000000)">
                            <g id="Layer_1" transform="translate(-0.000000, 0.000000)">
                                <path d="M8.25077821,162.262443 C7.0149456,162.262443 5.7770544,162.029097 4.64346444,161.561717 C2.66654393,160.747063 1.16138075,159.286244 0.40451046,157.449326 C-0.176008368,156.040324 0.495774059,154.427487 1.90452719,153.846866 C3.31259415,153.266245 4.92548954,153.938489 5.50635147,155.347491 C5.75269456,155.94527 6.31605857,156.281907 6.74561506,156.459318 C7.6640837,156.837821 8.83507116,156.839536 9.72952304,156.462751 C12.8860084,155.134391 14.2333473,151.139702 15.5367699,147.276442 C15.6791548,146.853673 15.8194812,146.43811 15.9598075,146.033185 C17.4920753,141.610237 19.9362929,136.317387 25.2800168,134.637977 C26.7337155,134.180892 28.2824519,134.98937 28.739113,136.442982 C29.1961172,137.896937 28.3881255,139.445947 26.9344268,139.902689 C23.9395397,140.843968 22.2827281,144.638939 21.173841,147.839906 C21.038318,148.231105 20.9031381,148.632255 20.7652134,149.040269 C19.2298578,153.591557 17.3191548,159.256046 11.8697573,161.549021 C10.7406276,162.024636 9.49724687,162.262443 8.25077821,162.262443 Z" id="Shape" fill="#696578"></path>
                                <path d="M130.711774,63.4576464 C130.73785,62.6937793 130.445875,61.9529038 129.905498,61.4124318 L102.593322,34.095434 C102.052946,33.554962 101.312544,33.2629356 100.548469,33.2886723 C99.7847367,33.3144091 99.0659498,33.6561933 98.5633135,34.2323535 L18.5776318,125.939982 C17.6238243,127.033279 17.6800921,128.679059 18.7059498,129.705098 L34.3130544,145.314958 C35.3389121,146.340997 36.9844016,146.396931 38.0775063,145.442955 L129.768603,65.4431517 C130.343975,64.9407701 130.685699,64.2218566 130.711774,63.4576464 Z" id="Shape" fill="#AD7DC9"></path>
                                <path d="M38.6216569,102.958427 L18.5776318,125.939982 C17.6238243,127.033279 17.6800921,128.679059 18.7059498,129.705098 L34.3130544,145.314958 C35.3389121,146.340997 36.9844016,146.396931 38.0775063,145.442955 L61.0550042,125.395391 L38.6216569,102.958427 Z" id="Shape" fill="#878493"></path>
                                <path d="M102.593322,34.095434 C102.052946,33.554962 101.312544,33.2629356 100.548469,33.2886723 C99.7847367,33.3144091 99.0659498,33.6561933 98.5633135,34.2323535 L18.5776318,125.939982 C17.6238243,127.033279 17.6800921,128.679059 18.7059498,129.705098 L21.1158578,132.115432 L106.529665,38.0321289 L102.593322,34.095434 Z" id="Shape" fill="#8A6CBD"></path>
                                <path d="M86.9862179,83.6843386 C86.2797821,83.6843386 85.5740337,83.41496 85.0357155,82.8762043 L81.1340251,78.9741676 C80.056703,77.8966554 80.0563597,76.1496442 81.1340251,75.0721318 C82.2113472,73.9942762 83.9577069,73.9946194 85.0353723,75.0717886 L88.9367194,78.9738247 C90.0143848,80.0513368 90.0143848,81.7983484 88.9370627,82.8758606 C88.398402,83.4146171 87.6923096,83.6843386 86.9862179,83.6843386 Z" id="Shape" fill="#696578"></path>
                                <path d="M153.31564,10.6808154 C139.331381,-3.30625618 116.577238,-3.30625618 102.592979,10.6808154 C88.6087194,24.667887 88.6083769,47.4257034 102.592979,61.4124318 C116.577582,75.3991602 139.331381,75.3995034 153.31564,61.4124318 C167.2999,47.4253602 167.300243,24.667887 153.31564,10.6808154 Z" id="Shape" fill="#FCDE76"></path>
                                <path d="M110.39636,61.4124318 C96.4117571,47.4253602 96.4117571,24.6675438 110.39636,10.6808154 C116.39677,4.67934594 124.012134,1.25567044 131.856,0.404298401 C121.419013,-0.728462227 110.576828,2.69555642 102.592979,10.6808154 C88.6083769,24.667887 88.6083769,47.4257034 102.592979,61.4124318 C110.577172,69.3976908 121.419013,72.8213663 131.856,71.6889488 C124.012134,70.8375767 116.39677,67.4139012 110.39636,61.4124318 Z" id="Shape" fill="#FCCF6F"></path>
                                <path d="M159.168519,59.4615854 L104.544168,4.82758968 C102.392954,2.67599648 98.892,2.67599648 96.7407868,4.82758968 L94.7899412,6.77877929 C92.6387281,8.93037251 92.6387281,12.4319446 94.7899412,14.5835378 L149.414293,69.2175334 C151.565506,71.3691266 155.06646,71.3691266 157.217674,69.2175334 L159.168519,67.2663438 C161.319732,65.1147506 161.319732,61.6131785 159.168519,59.4615854 Z" id="Shape" fill="#878493"></path>
                                <path d="M110.39636,61.4124318 C120.925984,71.9439143 136.426728,74.5440134 149.412921,69.2161608 L102.594351,22.3896689 C97.2674396,35.377811 99.8674224,50.8812925 110.39636,61.4124318 Z" id="Shape" fill="#FCDE76"></path>
                                <path d="M104.544168,4.82758968 C102.392954,2.67599648 98.892,2.67599648 96.7407868,4.82758968 L94.7899412,6.77877929 C92.6387281,8.93037251 92.6387281,12.4319446 94.7899412,14.5835378 L102.594694,22.3896689 C104.342427,18.1280045 106.942067,14.1367476 110.397046,10.6815017 L104.544168,4.82758968 Z" id="Shape" fill="#787485"></path>
                                <g id="Group" transform="translate(5.832636, 23.727055)" fill="#F59F3F">
                                    <path d="M24.7125356,45.6222503 C20.0536318,45.6222503 16.2631046,41.831397 16.2631046,37.1713275 C16.2631046,35.7424226 15.1051548,34.5842683 13.6765021,34.5842683 C12.2481925,34.5842683 11.0898996,35.7420794 11.0898996,37.1713275 C11.0898996,41.831397 7.29937238,45.6222503 2.64046862,45.6222503 C1.212159,45.6222503 0.0538661088,46.7800613 0.0538661088,48.2093095 C0.0538661088,49.6385576 1.2118159,50.7963686 2.64046862,50.7963686 C7.29937238,50.7963686 11.0898996,54.5872219 11.0898996,59.2472914 C11.0898996,60.6761964 12.2478494,61.8343505 13.6765021,61.8343505 C15.1048117,61.8343505 16.2631046,60.6765395 16.2631046,59.2472914 C16.2631046,54.5872219 20.0536318,50.7963686 24.7125356,50.7963686 C26.1408452,50.7963686 27.2991381,49.6385576 27.2991381,48.2093095 C27.2991381,46.7800613 26.1408452,45.6222503 24.7125356,45.6222503 Z" id="Shape"></path>
                                    <path d="M135.070812,81.4948335 C130.411565,81.4948335 126.621381,77.7039802 126.621381,73.0439109 C126.621381,71.6150059 125.463774,70.4568517 124.034778,70.4568517 C122.606125,70.4568517 121.448176,71.6146628 121.448176,73.0439109 C121.448176,77.7039802 117.657991,81.4948335 112.998745,81.4948335 C111.570092,81.4948335 110.412143,82.6526449 110.412143,84.0818931 C110.412143,85.5107976 111.569749,86.6689519 112.998745,86.6689519 C117.657991,86.6689519 121.448176,90.4598052 121.448176,95.1198746 C121.448176,96.5487799 122.605782,97.7069342 124.034778,97.7069342 C125.463431,97.7069342 126.621381,96.5491228 126.621381,95.1198746 C126.621381,90.4598052 130.411565,86.6689519 135.070812,86.6689519 C136.499465,86.6689519 137.657415,85.5111412 137.657415,84.0818931 C137.657071,82.6529878 136.499121,81.4948335 135.070812,81.4948335 Z" id="Shape"></path>
                                    <path d="M71.9516927,11.0379819 C67.2927889,11.0379819 63.5022617,7.24712866 63.5022617,2.58705919 C63.5022617,1.15815423 62.344312,-2.84217094e-14 60.9156592,-2.84217094e-14 C59.4873496,-2.84217094e-14 58.3290567,1.15781107 58.3290567,2.58705919 C58.3290567,7.24712866 54.5385295,11.0379819 49.8796258,11.0379819 C48.4513161,11.0379819 47.2930233,12.195793 47.2930233,13.6250411 C47.2930233,15.0542892 48.450973,16.2121003 49.8796258,16.2121003 C54.5385295,16.2121003 58.3290567,20.0029536 58.3290567,24.6630231 C58.3290567,26.091928 59.4870065,27.2500823 60.9156592,27.2500823 C62.3439689,27.2500823 63.5022617,26.0922712 63.5022617,24.6630231 C63.5022617,20.0029536 67.2927889,16.2121003 71.9516927,16.2121003 C73.3800023,16.2121003 74.5382952,15.0542892 74.5382952,13.6250411 C74.5382952,12.195793 73.3803454,11.0379819 71.9516927,11.0379819 Z" id="Shape"></path>
                                </g>
                            </g>
                        </g>
                    </g>
                </g>
            </g>
        </g>
    </g>
</svg>