<?xml version="1.0" encoding="iso-8859-1"?>
<!-- Generator: Adobe Illustrator 19.0.0, SVG Export Plug-In . SVG Version: 6.00 Build 0)  -->
<svg version="1.1" id="Capa_1" xmlns="http://www.w3.org/2000/svg" xmlns:xlink="http://www.w3.org/1999/xlink" x="0px" y="0px"
	 viewBox="0 0 512 512" style="enable-background:new 0 0 512 512;" xml:space="preserve">
<path style="fill:#EBEBEB;" d="M332,284.992v186.929l-24.87,8.29c-3.93,1.31-6.053,5.557-4.744,9.487
	c1.31,3.93,5.559,6.054,9.487,4.744l29.998-10c3.063-1.021,5.128-3.887,5.128-7.115V284.992H332z"/>
<path style="fill:#4F4F4F;" d="M324.5,167.829c-45.49,0-82.5-37.01-82.5-82.5c0-4.143-3.358-7.5-7.5-7.5s-7.5,3.357-7.5,7.5
	c0,53.762,43.738,97.5,97.5,97.5h45v-15H324.5z"/>
<path style="fill:#353535;" d="M504.5,77.829c-4.143,0-7.5,3.357-7.5,7.5c0,45.49-37.01,82.5-82.5,82.5h-45v15h45
	c53.762,0,97.5-43.738,97.5-97.5C512,81.187,508.643,77.829,504.5,77.829z"/>
<path style="fill:#4F4F4F;" d="M312.931,23.761c-8.787,8.787-8.787,23.033,0,31.82s30.052,30.052,30.052,30.052l31.82-31.82
	c0,0-21.265-21.265-30.052-30.052S321.718,14.974,312.931,23.761z"/>
<path style="fill:#353535;" d="M426.069,23.761c-8.787-8.787-23.033-8.787-31.82,0c-8.787,8.787-30.052,30.052-30.052,30.052
	l31.82,31.82c0,0,21.265-21.265,30.052-30.052C434.855,46.794,434.855,32.548,426.069,23.761z"/>
<path style="fill:#CCCCCC;" d="M414.5,80.329c0-24.853-20.147-45-45-45v285c24.853,0,45-20.147,45-45v-70l-20-15l20-22.5V80.329z"/>
<path style="fill:#EBEBEB;" d="M369.5,35.329c-24.853,0-45,20.147-45,45v87.5l20,22.5l-20,15v70c0,24.853,20.147,45,45,45
	c8.284,0,15-20.147,15-45v-195C384.5,55.477,377.784,35.329,369.5,35.329z"/>
<polygon style="fill:#353535;" points="384.5,167.829 364.5,190.329 384.5,205.329 414.5,205.329 414.5,167.829 "/>
<rect x="324.5" y="167.83" style="fill:#4F4F4F;" width="60" height="37.5"/>
<path style="fill:#CCCCCC;" d="M450.727,453.148L407,388.043V284.992h-15v105.336c0,1.489,0.443,2.945,1.273,4.182L437,459.615
	v27.715c0,4.143,3.357,7.5,7.5,7.5s7.5-3.357,7.5-7.5v-30C452,455.84,451.557,454.384,450.727,453.148z"/>
<g>
	<path style="fill:#353535;" d="M384.5,97.829c-4.143,0-7.5-3.357-7.5-7.5v-10c0-4.143,3.357-7.5,7.5-7.5s7.5,3.357,7.5,7.5v10
		C392,94.472,388.643,97.829,384.5,97.829z"/>
	<path style="fill:#353535;" d="M354.5,97.829c-4.143,0-7.5-3.357-7.5-7.5v-10c0-4.143,3.357-7.5,7.5-7.5s7.5,3.357,7.5,7.5v10
		C362,94.472,358.643,97.829,354.5,97.829z"/>
	<path style="fill:#353535;" d="M187.5,282.829h-45v-15h45c23.435,0,42.5-19.065,42.5-42.5s-19.065-42.5-42.5-42.5h-45v-15h45
		c31.706,0,57.5,25.794,57.5,57.5S219.206,282.829,187.5,282.829z"/>
</g>
<path style="fill:#4F4F4F;" d="M97.5,167.829c-45.491,0-82.5-37.01-82.5-82.5c0-4.143-3.358-7.5-7.5-7.5S0,81.187,0,85.329
	c0,53.762,43.738,97.5,97.5,97.5h45v-15L97.5,167.829L97.5,167.829z"/>
<path style="fill:#EBEBEB;" d="M105,284.992v186.929l-24.87,8.29c-3.93,1.31-6.053,5.557-4.744,9.487
	c1.31,3.93,5.559,6.054,9.487,4.744l29.998-10c3.063-1.021,5.128-3.887,5.128-7.115V284.992H105z"/>
<path style="fill:#CCCCCC;" d="M180,284.992v186.929l24.87,8.29c3.93,1.31,6.053,5.557,4.744,9.487
	c-1.31,3.93-5.559,6.054-9.487,4.744l-29.998-10c-3.063-1.021-5.128-3.887-5.128-7.115V284.992H180z"/>
<path style="fill:#4F4F4F;" d="M85.931,23.761c-8.787,8.787-8.787,23.033,0,31.82s30.052,30.052,30.052,30.052l31.82-31.82
	c0,0-21.265-21.265-30.052-30.052S94.718,14.974,85.931,23.761z"/>
<path style="fill:#353535;" d="M199.069,23.761c-8.787-8.787-23.033-8.787-31.82,0s-30.052,30.052-30.052,30.052l31.82,31.82
	c0,0,21.265-21.265,30.052-30.052C207.855,46.794,207.855,32.548,199.069,23.761z"/>
<path style="fill:#CCCCCC;" d="M187.5,80.329c0-24.853-20.147-45-45-45v285c24.853,0,45-20.147,45-45v-70l-20-15l20-22.5V80.329z"/>
<path style="fill:#EBEBEB;" d="M142.5,35.329c-24.853,0-45,20.147-45,45v87.5l20,22.5l-20,15v70c0,24.853,20.147,45,45,45
	c8.284,0,15-20.147,15-45v-195C157.5,55.477,150.784,35.329,142.5,35.329z"/>
<polygon style="fill:#353535;" points="157.5,167.829 137.5,190.329 157.5,205.329 187.5,205.329 187.5,167.829 "/>
<rect x="97.5" y="167.83" style="fill:#4F4F4F;" width="60" height="37.5"/>
<g>
	<path style="fill:#353535;" d="M157.5,97.829c-4.142,0-7.5-3.357-7.5-7.5v-10c0-4.143,3.358-7.5,7.5-7.5s7.5,3.357,7.5,7.5v10
		C165,94.472,161.642,97.829,157.5,97.829z"/>
	<path style="fill:#353535;" d="M127.5,97.829c-4.142,0-7.5-3.357-7.5-7.5v-10c0-4.143,3.358-7.5,7.5-7.5s7.5,3.357,7.5,7.5v10
		C135,94.472,131.642,97.829,127.5,97.829z"/>
</g>
<g>
</g>
<g>
</g>
<g>
</g>
<g>
</g>
<g>
</g>
<g>
</g>
<g>
</g>
<g>
</g>
<g>
</g>
<g>
</g>
<g>
</g>
<g>
</g>
<g>
</g>
<g>
</g>
<g>
</g>
</svg>
