<?xml version="1.0" encoding="iso-8859-1"?>
<!-- Generator: Adobe Illustrator 19.0.0, SVG Export Plug-In . SVG Version: 6.00 Build 0)  -->
<svg version="1.1" id="Layer_1" xmlns="http://www.w3.org/2000/svg" xmlns:xlink="http://www.w3.org/1999/xlink" x="0px" y="0px"
	 viewBox="0 0 512 512" style="enable-background:new 0 0 512 512;" xml:space="preserve">
<g>
	<path style="fill:#F7D0BC;" d="M296.257,196.152v-17.454c33.442,0,60.648,27.207,60.648,60.648s-27.207,60.648-60.648,60.648
		V282.54c23.817,0,43.194-19.377,43.194-43.194S320.075,196.152,296.257,196.152z"/>
	<path style="fill:#F7D0BC;" d="M215.742,196.152v-17.454c-33.442,0-60.648,27.207-60.648,60.648s27.207,60.648,60.648,60.648
		V282.54c-23.817,0-43.194-19.377-43.194-43.194S191.924,196.152,215.742,196.152z"/>
	<path style="fill:#F7D0BC;" d="M285.382,167.832h-58.763c-10.775,0-19.596,8.809-19.596,19.596v27.334L256,238.034l48.977-23.273
		v-27.334C304.977,176.64,296.157,167.832,285.382,167.832z"/>
</g>
<g>
	<path style="fill:#733B59;" d="M304.977,214.761v27.274L256,265.308l-48.977-23.273v-27.274
		c5.539-9.356,14.429-15.453,24.483-15.453s18.956,6.097,24.494,15.453c5.539-9.356,14.429-15.453,24.483-15.453
		S299.427,205.405,304.977,214.761z"/>
	<path style="fill:#733B59;" d="M239.221,502.813l-6.758-128.696l-17.43,0.916l5.485,104.47l-23.429,16.656
		c-3.928,2.792-4.849,8.241-2.056,12.169c2.793,3.93,8.241,4.85,12.169,2.056l14.4-10.236l0.189,3.583
		c0.244,4.657,4.097,8.269,8.707,8.269c0.154,0,0.31-0.003,0.464-0.013C235.777,511.734,239.474,507.627,239.221,502.813z"/>
	<path style="fill:#733B59;" d="M272.778,502.813l6.758-128.696l17.43,0.916l-5.485,104.47l23.429,16.656
		c3.928,2.792,4.849,8.241,2.056,12.169c-2.793,3.93-8.241,4.85-12.169,2.056l-14.4-10.236l-0.189,3.583
		c-0.244,4.657-4.097,8.269-8.707,8.269c-0.154,0-0.31-0.003-0.464-0.013C276.223,511.734,272.525,507.627,272.778,502.813z"/>
</g>
<path style="fill:#5C4853;" d="M333.544,70.132c-2.921-12.684-8.855-24.215-17.036-33.792c0.221-1.513,0.337-3.06,0.337-4.643
	C316.846,14.196,302.65,0,285.149,0c-8.46,0-49.815,0-58.275,0c-17.513,0-31.697,14.196-31.697,31.697
	c0,1.583,0.116,3.13,0.337,4.643c-8.18,9.577-14.126,21.108-17.036,33.792c-17.373,0.151-31.418,14.278-31.418,31.686
	c0,17.501,14.196,31.697,31.709,31.697c0.989,0,1.967-0.047,2.932-0.14c3.561,6.982,10.798,11.776,19.177,11.776
	c11.241,0,20.457-8.611,21.434-19.607h67.386c0.966,10.985,10.182,19.607,21.422,19.607c8.378,0,15.616-4.794,19.177-11.776
	c0.966,0.093,1.943,0.14,2.932,0.14c17.513,0,31.709-14.196,31.709-31.697C364.939,84.41,350.906,70.295,333.544,70.132z"/>
<path style="fill:#FF5700;" d="M304.977,242.035h-97.954c0,31.444-51.095,65.163-51.095,140.801c0,0,34.521,16.291,100.072,16.291
	s100.072-16.291,100.072-16.291C356.072,307.199,304.977,273.479,304.977,242.035z"/>
<path style="fill:#F7D0BC;" d="M291.702,52.253c-7.53,11.883-20.587,19.984-35.7,19.984c-15.113,0-28.175-8.102-35.705-19.984
	c-9.137,9.137-14.787,21.76-14.787,35.704c0,27.886,22.606,50.473,50.493,50.473c27.886,0,50.489-22.585,50.489-50.473
	C306.49,74.013,300.839,61.39,291.702,52.253z"/>
<g>
</g>
<g>
</g>
<g>
</g>
<g>
</g>
<g>
</g>
<g>
</g>
<g>
</g>
<g>
</g>
<g>
</g>
<g>
</g>
<g>
</g>
<g>
</g>
<g>
</g>
<g>
</g>
<g>
</g>
</svg>
