<?xml version="1.0" encoding="iso-8859-1"?>
<!-- Generator: Adobe Illustrator 19.0.0, SVG Export Plug-In . SVG Version: 6.00 Build 0)  -->
<svg version="1.1" id="Layer_1" xmlns="http://www.w3.org/2000/svg" xmlns:xlink="http://www.w3.org/1999/xlink" x="0px" y="0px"
	 viewBox="0 0 511.999 511.999" style="enable-background:new 0 0 511.999 511.999;" xml:space="preserve">
<g>
	<path style="fill:#FF5700;" d="M237.346,489.759l-10.181-193.916l-18.76,0.986l9.805,186.748l0.358,0.115l-27.235,9.989
		c-4.927,1.624-7.604,6.936-5.979,11.863c1.624,4.928,6.936,7.602,11.863,5.979l33.677-12.352
		C235.007,497.816,237.544,493.882,237.346,489.759z"/>
	<path style="fill:#FF5700;" d="M274.653,489.759l10.181-193.916l18.76,0.986l-9.805,186.748l-0.358,0.115l27.235,9.989
		c4.927,1.624,7.604,6.936,5.979,11.863c-1.624,4.928-6.936,7.602-11.863,5.979l-33.677-12.352
		C276.99,497.816,274.455,493.882,274.653,489.759z"/>
</g>
<path style="fill:#A9603A;" d="M362.916,221.636c-9.981-30.058-31.069-54.431-59.38-68.627h-95.074
	c-28.31,14.196-49.398,38.569-59.379,68.627c-9.981,30.058-7.659,62.203,6.539,90.515c2.325,4.637,7.969,6.511,12.607,4.186
	c4.637-2.325,6.51-7.969,4.186-12.607c-11.947-23.825-13.902-50.878-5.503-76.173c8.17-24.605,25.185-44.684,48.036-56.757h82.102
	c22.851,12.073,39.867,32.152,48.037,56.757c8.399,25.295,6.445,52.348-5.503,76.173c-2.324,4.638-0.451,10.283,4.186,12.607
	c1.351,0.678,2.789,0.999,4.203,0.999c3.442,0,6.757-1.9,8.404-5.185C370.575,283.839,372.897,251.694,362.916,221.636z"/>
<path style="fill:#FF5700;" d="M282.363,140.315h-52.727l-26.351,143.441c0,29.119,23.596,52.715,52.715,52.715
	s52.715-23.596,52.715-52.715L282.363,140.315z"/>
<path style="fill:#FFB13A;" d="M255.999,168.833c-5.189,0-9.393-4.204-9.393-9.393v-19.128c0-5.189,4.204-9.393,9.393-9.393
	s9.393,4.204,9.393,9.393v19.128C265.393,164.629,261.188,168.833,255.999,168.833z"/>
<path style="fill:#39C8C6;" d="M219.366,140.31c-11.603,0-21.095,9.492-21.095,21.095v122.349h31.37V140.31H219.366z"/>
<path style="fill:#A9603A;" d="M310.334,54.344c0,30.015-24.329,54.324-54.344,54.324c-29.995,0-54.324-24.308-54.324-54.324
	S225.995,0,255.989,0C286.004,0,310.334,24.33,310.334,54.344z"/>
<path style="fill:#39C8C6;" d="M292.633,140.31c11.603,0,21.095,9.492,21.095,21.095v122.349h-31.37V140.31H292.633z"/>
<path style="fill:#460929;" d="M308.719,30.299h-105.44c-5.189,0-9.393,4.204-9.393,9.393s4.204,9.393,9.393,9.393h12.864
	c0.442,4.673,1.705,9.114,5.29,12.711c3.377,3.388,8.049,5.105,13.888,5.105s10.512-1.717,13.887-5.105
	c3.586-3.597,4.848-8.038,5.29-12.711h2.981c0.442,4.673,1.705,9.114,5.29,12.711c3.375,3.388,8.048,5.105,13.887,5.105
	s10.512-1.717,13.887-5.105c3.586-3.597,4.848-8.038,5.29-12.711h12.885c5.189,0,9.393-4.204,9.393-9.393
	S313.907,30.299,308.719,30.299z"/>
<g>
</g>
<g>
</g>
<g>
</g>
<g>
</g>
<g>
</g>
<g>
</g>
<g>
</g>
<g>
</g>
<g>
</g>
<g>
</g>
<g>
</g>
<g>
</g>
<g>
</g>
<g>
</g>
<g>
</g>
</svg>
