<?xml version="1.0" encoding="iso-8859-1"?>
<!-- Generator: Adobe Illustrator 19.0.0, SVG Export Plug-In . SVG Version: 6.00 Build 0)  -->
<svg version="1.1" id="Layer_1" xmlns="http://www.w3.org/2000/svg" xmlns:xlink="http://www.w3.org/1999/xlink" x="0px" y="0px"
	 viewBox="0 0 511.999 511.999" style="enable-background:new 0 0 511.999 511.999;" xml:space="preserve">
<g>
	<path style="fill:#F7D0BC;" d="M294.216,211.063v-16.57c31.746,0,57.574,25.827,57.574,57.574s-25.828,57.574-57.574,57.574v-16.57
		c22.61,0,41.004-18.394,41.004-41.004S316.826,211.063,294.216,211.063z"/>
	<path style="fill:#F7D0BC;" d="M217.783,211.063v-16.57c-31.746,0-57.574,25.827-57.574,57.574s25.827,57.574,57.574,57.574v-16.57
		c-22.61,0-41.004-18.394-41.004-41.004S195.173,211.063,217.783,211.063z"/>
</g>
<g>
	<path style="fill:#733B59;" d="M239.546,492.384l-8.98-171.032l-16.546,0.869l8.648,164.71l0.316,0.102l-24.021,8.811
		c-4.346,1.433-6.706,6.117-5.274,10.463c1.433,4.347,6.117,6.705,10.463,5.274l29.703-10.894
		C237.485,499.49,239.721,496.02,239.546,492.384z"/>
	<path style="fill:#733B59;" d="M272.451,492.384l8.98-171.032l16.546,0.869l-8.648,164.71l-0.316,0.102l24.021,8.811
		c4.346,1.433,6.706,6.117,5.273,10.463c-1.433,4.347-6.117,6.705-10.463,5.274l-29.703-10.894
		C274.514,499.49,272.277,496.02,272.451,492.384z"/>
</g>
<polygon style="fill:#AB899B;" points="271.563,184.176 240.435,184.176 209.505,282.157 209.505,310.69 255.999,332.783 
	302.493,310.69 302.493,282.157 "/>
<path style="fill:#733B59;" d="M209.501,310.69c0,25.681,20.818,46.497,46.497,46.497s46.497-20.818,46.497-46.497H209.501z"/>
<polygon style="fill:#FF5700;" points="235.188,0 243.818,72.906 268.168,72.906 276.799,0 "/>
<path style="fill:#F7D0BC;" d="M303.921,108.352c0,26.473-21.458,47.914-47.931,47.914c-26.455,0-47.914-21.44-47.914-47.914
	S229.534,60.42,255.99,60.42C282.464,60.42,303.921,81.879,303.921,108.352z"/>
<g>
	<path style="fill:#ADEBEB;" d="M240.435,184.176v97.981h-30.93v-79.379c0-10.229,8.373-18.602,18.602-18.602H240.435z"/>
	<path style="fill:#ADEBEB;" d="M302.493,202.778v79.379h-30.93v-97.981h12.328C294.12,184.176,302.493,192.549,302.493,202.778z"/>
</g>
<g>
</g>
<g>
</g>
<g>
</g>
<g>
</g>
<g>
</g>
<g>
</g>
<g>
</g>
<g>
</g>
<g>
</g>
<g>
</g>
<g>
</g>
<g>
</g>
<g>
</g>
<g>
</g>
<g>
</g>
</svg>
