<?xml version="1.0" encoding="iso-8859-1"?>
<!-- Generator: Adobe Illustrator 19.0.0, SVG Export Plug-In . SVG Version: 6.00 Build 0)  -->
<svg version="1.1" id="Capa_1" xmlns="http://www.w3.org/2000/svg" xmlns:xlink="http://www.w3.org/1999/xlink" x="0px" y="0px"
	 viewBox="0 0 512 512" style="enable-background:new 0 0 512 512;" xml:space="preserve">
<path style="fill:#DCE5DF;" d="M512,296.647L512,296.647c0,49.43-40.071,89.5-89.5,89.5h-287c-49.429,0-89.5-40.071-89.5-89.5l0,0
	c0-28.951,13.75-54.686,35.071-71.045C35.595,221.353,0,183.086,0,136.5l0,0C0,87.07,40.07,47,89.5,47h287
	c49.429,0,89.5,40.07,89.5,89.5l0,0c0,28.951-13.75,54.686-35.071,71.045C476.405,211.794,512,250.061,512,296.647z"/>
<path style="fill:#77BD63;" d="M190,370c0-11.046,8.954-20,20-20s20,8.954,20,20s-8.954,20-20,20S190,381.046,190,370z"/>
<path style="fill:#FFC261;" d="M307.924,151.399L291,168.323V510.47h-70V168.323l-16.924-16.924
	c-11.716-11.716-11.716-30.711,0-42.426l15.065-15.065l-20.102-75.022c-2.206-8.234,2.886-16.705,11.311-18.542
	c7.891-1.721,15.686,3.385,17.776,11.187l15.365,57.341c1.517,5.662,6.648,9.599,12.509,9.599s10.992-3.937,12.509-9.599
	l15.474-57.75c2.206-8.234,10.852-13.024,19.067-10.402c7.695,2.455,11.891,10.775,9.801,18.576l-19.992,74.613l15.065,15.065
	C319.64,120.689,319.64,139.684,307.924,151.399z"/>
<g>
	<path style="fill:#F3B05F;" d="M291,503.164v7.306h-70V168.323l-16.924-16.924c-11.716-11.716-11.716-30.711,0-42.426
		l15.065-15.065l-20.102-75.022c-2.206-8.234,2.886-16.705,11.311-18.542c4.392-0.958,8.75,0.203,12.115,2.762
		c-4.483,3.506-6.698,9.46-5.132,15.304l18.059,67.328c1.852,6.903-0.121,14.27-5.175,19.324l-6.525,6.525
		c-11.426,11.426-11.426,29.952,0,41.378l10.648,10.648c3.751,3.751,5.858,8.838,5.858,14.142v325.409H291z"/>
	<path style="fill:#F3B05F;" d="M319.5,504.5c0,4.142-3.358,7.5-7.5,7.5H200c-4.142,0-7.5-3.358-7.5-7.5s3.358-7.5,7.5-7.5h112
		C316.142,497,319.5,500.358,319.5,504.5z"/>
</g>
<path style="fill:#CD8E5E;" d="M448.795,99.853c22.091,0,40,17.909,40,40V205c0,2.692-0.719,5.213-1.961,7.397
	c-1.459,3.839-3.729,7.44-6.821,10.532l-16.924,16.924V512h-70V239.853l-16.924-16.924c-3.092-3.092-5.362-6.693-6.821-10.532
	c-1.242-2.184-1.961-4.705-1.961-7.397v-70c0-8.284,6.716-15,15-15c6.528,0,13.409,4.178,15.47,10V85c0-8.284,6.716-15,15-15l0,0
	c8.284,0,15,6.716,15,15v14.853H448.795z"/>
<path style="fill:#BA8357;" d="M463.089,501.583V512h-70V239.853l-16.924-16.924c-3.092-3.092-5.362-6.693-6.821-10.532
	c-1.242-2.184-1.961-4.705-1.961-7.397v-70c0-8.284,6.716-15,15-15c1.516,0,3.049,0.234,4.538,0.653
	c-0.34,1.255-0.538,2.568-0.538,3.931v70c0,2.692,0.719,5.213,1.961,7.397c1.459,3.839,3.729,7.439,6.821,10.532l16.924,16.924
	v272.147L463.089,501.583L463.089,501.583z"/>
<path style="fill:#A0704F;" d="M487.5,504.5c0,4.142-3.358,7.5-7.5,7.5H368c-4.142,0-7.5-3.358-7.5-7.5s3.358-7.5,7.5-7.5h112
	C484.142,497,487.5,500.358,487.5,504.5z M435.342,167.353c4.142,0,7.5-3.358,7.5-7.5v-60h-14.988V99.62
	c-0.002,0.078-0.012,0.154-0.012,0.232v60C427.842,163.995,431.2,167.353,435.342,167.353z"/>
<path style="fill:#F4925A;" d="M84.146,194v-14.853c0-8.284,6.716-15,15-15l0,0c8.284,0,15,6.716,15,15v45
	c2.061-5.822,8.942-10,15.47-10c8.284,0,15,6.716,15,15v70c0,2.692-0.719,5.213-1.961,7.397c-1.459,3.839-3.729,7.44-6.821,10.532
	L118.911,334v178h-70V334l-16.924-16.924c-3.092-3.092-5.362-6.693-6.821-10.532c-1.242-2.184-1.961-4.705-1.961-7.397V234
	c0-22.091,17.909-40,40-40H84.146z"/>
<g>
	<path style="fill:#EA744F;" d="M118.911,502v10h-70V334l-16.924-16.924c-3.092-3.092-5.362-6.693-6.821-10.532
		c-1.242-2.184-1.961-4.705-1.961-7.397V234c0-18.221,12.187-33.585,28.851-38.414C44.74,202.835,40.205,212.887,40.205,224v65.147
		c0,2.692,0.719,5.213,1.961,7.397c1.459,3.839,3.729,7.44,6.821,10.532l11.066,11.066c3.751,3.751,5.858,8.838,5.858,14.142V502
		H118.911z"/>
	<path style="fill:#EA744F;" d="M114.146,284.147v-22.25v-37.75v-22.25v-0.001v22.251c2.012-5.683,8.614-9.787,15-9.981v9.981v37.75
		v22.25c0,4.142-3.358,7.5-7.5,7.5S114.146,288.289,114.146,284.147z M140,497H28c-4.142,0-7.5,3.358-7.5,7.5s3.358,7.5,7.5,7.5h112
		c4.142,0,7.5-3.358,7.5-7.5S144.142,497,140,497z"/>
</g>
<path style="fill:#77BD63;" d="M49.66,15c0,8.284-6.716,15-15,15s-15-6.716-15-15s6.716-15,15-15S49.66,6.716,49.66,15z"/>
<path style="fill:#6C6272;" d="M30,158.667c0,8.284-6.716,15-15,15s-15-6.716-15-15s6.716-15,15-15S30,150.382,30,158.667z"/>
<path style="fill:#F36754;" d="M100,100c0-11.046,8.954-20,20-20s20,8.954,20,20s-8.954,20-20,20S100,111.046,100,100z"/>
<path style="fill:#FFC261;" d="M512,15c0,8.284-6.716,15-15,15s-15-6.716-15-15s6.716-15,15-15S512,6.716,512,15z M120,390
	c-11.046,0-20,8.954-20,20s8.954,20,20,20s20-8.954,20-20S131.046,390,120,390z"/>
<path style="fill:#FF957C;" d="M440,430c0-11.046,8.954-20,20-20s20,8.954,20,20s-8.954,20-20,20S440,441.046,440,430z"/>
<path style="fill:#99CFD7;" d="M280,220c0-11.046,8.954-20,20-20s20,8.954,20,20s-8.954,20-20,20S280,231.046,280,220z"/>
<path style="fill:#6C6272;" d="M410,325c0,8.284-6.716,15-15,15s-15-6.716-15-15s6.716-15,15-15S410,316.716,410,325z"/>
<g>
</g>
<g>
</g>
<g>
</g>
<g>
</g>
<g>
</g>
<g>
</g>
<g>
</g>
<g>
</g>
<g>
</g>
<g>
</g>
<g>
</g>
<g>
</g>
<g>
</g>
<g>
</g>
<g>
</g>
</svg>
