<?xml version="1.0" encoding="iso-8859-1"?>
<!-- Generator: Adobe Illustrator 19.0.0, SVG Export Plug-In . SVG Version: 6.00 Build 0)  -->
<svg version="1.1" id="Capa_1" xmlns="http://www.w3.org/2000/svg" xmlns:xlink="http://www.w3.org/1999/xlink" x="0px" y="0px"
	 viewBox="0 0 512 512" style="enable-background:new 0 0 512 512;" xml:space="preserve">
<path style="fill:#B66652;" d="M511.783,383.437c-0.986-4.023-5.05-6.488-9.07-5.499C297.197,428.342,109.289,350.104,20.11,178.353
	c80.064,17.31,163.503,15.978,241.554-7.633c84.784-25.647,156.848-76.224,208.402-146.264c2.456-3.336,1.743-8.032-1.593-10.489
	c-3.335-2.455-8.03-1.743-10.486,1.594c-98.054,133.214-269.985,188.741-448.7,144.905c-5.166-1.274-9.987,3.114-9.203,8.386
	c-0.216,1.439-0.019,2.956,0.66,4.365c45.718,94.929,120.245,165.151,215.526,203.076c91.539,36.436,193.901,39.79,290.014,16.216
	C510.307,391.523,512.769,387.46,511.783,383.437z"/>
<path style="fill:#00F4F5;" d="M186.702,196.862c0.362-0.046,0.724-0.091,1.086-0.138c4.655-0.594,7.903-4.917,7.21-9.558
	l-1.952-13.078c-0.674-4.515-4.835-7.649-9.364-7.071c-25.657,3.277-51.627,3.993-77.414,2.134c-4.554-0.328-8.536,3.03-8.96,7.575
	l-1.241,13.284c-0.432,4.624,3.004,8.683,7.636,9.021l0.085,0.006l36.411,80.103c1.776,3.908,7.327,3.908,9.104,0L186.702,196.862z"
	/>
<path style="fill:#87F8F4;" d="M187.787,196.724c4.655-0.594,7.903-4.917,7.21-9.558l-1.952-13.078
	c-0.674-4.516-4.835-7.649-9.364-7.071c-25.657,3.277-51.627,3.993-77.414,2.134c-4.554-0.328-8.536,3.03-8.96,7.575l-1.241,13.284
	c-0.432,4.624,3.004,8.683,7.636,9.021l0.085,0.006l0.004,0.008c10.183,0.742,20.376,1.121,30.563,1.121
	c17.502,0,34.98-1.111,52.342-3.294l0.005-0.011C187.063,196.816,187.425,196.77,187.787,196.724z"/>
<path style="fill:#4FE267;" d="M245.991,185.02l69.032,60.127c3.235,2.818,8.284,0.52,8.284-3.77v-86.113c0,0,0,0,0-0.001
	c3.869-1.897,5.384-6.622,3.382-10.426l-6.841-13.003c-1.941-3.688-6.473-5.142-10.198-3.273
	c-23.541,11.814-48.269,21.247-73.698,28.113c-4.024,1.086-6.437,5.189-5.428,9.233l3.556,14.253
	c1.192,4.777,6.62,7.354,11.251,4.798C245.574,184.981,245.749,184.997,245.991,185.02z"/>
<path style="fill:#60F375;" d="M323.307,155.263c3.869-1.897,5.384-6.622,3.382-10.426l-6.841-13.003
	c-1.941-3.688-6.473-5.142-10.198-3.272c-23.541,11.814-48.269,21.247-73.698,28.113c-4.024,1.086-6.437,5.189-5.428,9.233
	l3.556,14.253c1.192,4.777,6.62,7.354,11.251,4.798c0.239,0.022,0.413,0.038,0.65,0.06c10.365-2.859,20.65-6.099,30.824-9.765
	c15.953-5.748,31.473-12.428,46.501-19.975L323.307,155.263C323.307,155.264,323.307,155.263,323.307,155.263z"/>
<path style="fill:#FF6473;" d="M439.337,69.261l0.063-0.066c3.429-3.604,3.224-9.322-0.454-12.671l-9.039-8.231
	c-3.583-3.263-9.106-3.049-12.449,0.46c-18.019,18.914-37.951,36.019-59.425,50.995c-3.976,2.773-5.024,8.2-2.341,12.236
	l6.799,10.228c2.742,4.125,8.312,5.185,12.378,2.354l0.075-0.052l82.831,38.568c3.889,1.811,8.104-1.796,6.915-5.918L439.337,69.261
	z"/>
<path style="fill:#FF7C8B;" d="M439.4,69.195c3.429-3.604,3.224-9.322-0.454-12.671l-9.039-8.231
	c-3.583-3.263-9.106-3.049-12.449,0.46c-18.019,18.914-37.951,36.019-59.425,50.995c-3.976,2.773-5.024,8.2-2.341,12.237
	l6.799,10.228c2.742,4.125,8.312,5.185,12.378,2.354l0.075-0.052l0.041,0.019c23.223-16.171,44.781-34.677,64.356-55.262
	l-0.003-0.009L439.4,69.195z"/>
<path style="fill:#517AAC;" d="M325.298,414.286c-0.362-0.046-0.724-0.091-1.086-0.138c-4.655-0.594-7.903-4.917-7.21-9.558
	l1.952-13.078c0.674-4.515,4.835-7.649,9.364-7.071c25.657,3.277,51.626,3.993,77.414,2.134c4.554-0.328,8.536,3.03,8.96,7.575
	l1.241,13.284c0.432,4.624-3.004,8.683-7.636,9.021l-0.085,0.006l-36.411,80.103c-1.776,3.908-7.327,3.908-9.104,0L325.298,414.286z
	"/>
<path style="fill:#5C87BD;" d="M324.212,414.149c-4.655-0.594-7.903-4.917-7.21-9.558l1.952-13.078
	c0.674-4.516,4.835-7.649,9.364-7.071c25.657,3.277,51.627,3.993,77.414,2.134c4.554-0.328,8.536,3.03,8.96,7.575l1.241,13.284
	c0.432,4.624-3.004,8.683-7.636,9.021l-0.085,0.006l-0.004,0.008c-10.183,0.742-20.376,1.121-30.563,1.121
	c-17.502,0-34.98-1.111-52.342-3.294l-0.005-0.011C324.936,414.241,324.574,414.195,324.212,414.149z"/>
<path style="fill:#FFB545;" d="M266.008,402.445l-69.032,60.127c-3.235,2.818-8.284,0.52-8.284-3.77v-86.113c0,0,0,0,0-0.001
	c-3.869-1.897-5.384-6.622-3.382-10.426l6.841-13.003c1.941-3.688,6.473-5.142,10.198-3.272
	c23.541,11.814,48.269,21.247,73.698,28.113c4.024,1.086,6.437,5.189,5.428,9.233l-3.556,14.253
	c-1.192,4.777-6.62,7.354-11.251,4.798C266.425,402.406,266.251,402.422,266.008,402.445z"/>
<path style="fill:#FFCF5D;" d="M188.692,372.688c-3.869-1.897-5.384-6.622-3.382-10.426l6.841-13.003
	c1.941-3.688,6.473-5.142,10.198-3.272c23.541,11.814,48.269,21.247,73.698,28.113c4.024,1.086,6.437,5.189,5.428,9.233
	l-3.556,14.253c-1.192,4.777-6.62,7.354-11.251,4.798c-0.239,0.022-0.413,0.038-0.65,0.06c-10.365-2.859-20.65-6.099-30.824-9.765
	c-15.953-5.748-31.473-12.428-46.501-19.975L188.692,372.688L188.692,372.688z"/>
<path style="fill:#FF7C8B;" d="M72.662,286.686l-0.063-0.066c-3.429-3.604-3.224-9.322,0.454-12.671l9.039-8.232
	c3.583-3.263,9.106-3.049,12.449,0.46c18.019,18.914,37.951,36.019,59.425,50.995c3.976,2.773,5.024,8.2,2.341,12.236l-6.799,10.228
	c-2.742,4.125-8.312,5.185-12.378,2.354l-0.075-0.052l-82.831,38.568c-3.889,1.811-8.104-1.796-6.915-5.918L72.662,286.686z"/>
<path style="fill:#FF6473;" d="M72.599,286.62c-3.429-3.604-3.224-9.322,0.454-12.671l9.039-8.231
	c3.583-3.263,9.106-3.049,12.449,0.46c18.019,18.914,37.951,36.019,59.425,50.995c3.976,2.773,5.024,8.2,2.341,12.237l-6.799,10.228
	c-2.742,4.125-8.312,5.185-12.378,2.354l-0.075-0.052l-0.041,0.019c-23.223-16.171-44.781-34.677-64.356-55.262l0.003-0.009
	L72.599,286.62z"/>
<g>
</g>
<g>
</g>
<g>
</g>
<g>
</g>
<g>
</g>
<g>
</g>
<g>
</g>
<g>
</g>
<g>
</g>
<g>
</g>
<g>
</g>
<g>
</g>
<g>
</g>
<g>
</g>
<g>
</g>
</svg>
