<?xml version="1.0" encoding="UTF-8" standalone="no"?>
<svg width="71px" height="92px" viewBox="0 0 71 92" version="1.1" xmlns="http://www.w3.org/2000/svg" xmlns:xlink="http://www.w3.org/1999/xlink">
    <!-- Generator: Sketch 41.2 (35397) - http://www.bohemiancoding.com/sketch -->
    <title>Group 2</title>
    <desc>Created with Sketch.</desc>
    <defs></defs>
    <g id="Page-1" stroke="none" stroke-width="1" fill="none" fill-rule="evenodd">
        <g id="Group-2" transform="translate(-7.000000, 0.000000)">
            <g id="061-route" transform="translate(33.000000, 24.000000)" fill="#ED8A19">
                <path d="M31.07,38 C30.517,38 30.07,37.553 30.07,37 C30.07,36.447 30.517,36 31.07,36 L33,36 C33.553,36 34.035,36.447 34.035,36.999 C34.035,37.552 33.623,37.999 33.07,37.999 L33.07,36.999 L33.041,37.999 L31.07,38 Z M27.07,38 L25.07,38 C24.517,38 24.07,37.553 24.07,37 C24.07,36.447 24.517,36 25.07,36 L27.07,36 C27.623,36 28.07,36.447 28.07,37 C28.07,37.553 27.623,38 27.07,38 Z M21.07,38 L19.07,38 C18.517,38 18.07,37.553 18.07,37 C18.07,36.447 18.517,36 19.07,36 L21.07,36 C21.623,36 22.07,36.447 22.07,37 C22.07,37.553 21.623,38 21.07,38 Z M15.07,38 L13.07,38 C12.517,38 12.07,37.553 12.07,37 C12.07,36.447 12.517,36 13.07,36 L15.07,36 C15.623,36 16.07,36.447 16.07,37 C16.07,37.553 15.623,38 15.07,38 Z M9.07,38 L7.07,38 C6.517,38 6.07,37.553 6.07,37 C6.07,36.447 6.517,36 7.07,36 L9.07,36 C9.623,36 10.07,36.447 10.07,37 C10.07,37.553 9.623,38 9.07,38 Z M3.07,38 L1.07,38 C0.517,38 0.07,37.553 0.07,37 C0.07,36.447 0.517,36 1.07,36 L3.07,36 C3.623,36 4.07,36.447 4.07,37 C4.07,37.553 3.623,38 3.07,38 Z M36.537,36.282 C36.321,36.282 36.103,36.212 35.92,36.068 C35.485,35.726 35.411,35.097 35.752,34.664 C36.077,34.251 36.3,33.782 36.415,33.272 C36.536,32.733 37.071,32.395 37.61,32.516 C38.149,32.637 38.487,33.172 38.366,33.711 C38.188,34.503 37.828,35.26 37.324,35.899 C37.127,36.151 36.834,36.282 36.537,36.282 Z M36.538,30.719 C36.241,30.719 35.948,30.588 35.751,30.337 C35.431,29.93 35.017,29.593 34.554,29.363 C34.06,29.117 33.858,28.517 34.104,28.022 C34.35,27.528 34.948,27.325 35.445,27.572 C36.172,27.933 36.821,28.462 37.324,29.1 C37.665,29.534 37.591,30.163 37.156,30.504 C36.973,30.648 36.754,30.719 36.538,30.719 Z M31.071,29 L29.071,29 C28.518,29 28.071,28.553 28.071,28 C28.071,27.447 28.518,27 29.071,27 L31.071,27 C31.624,27 32.071,27.447 32.071,28 C32.071,28.553 31.624,29 31.071,29 Z M25.071,29 L23.071,29 C22.518,29 22.071,28.553 22.071,28 C22.071,27.447 22.518,27 23.071,27 L25.071,27 C25.624,27 26.071,27.447 26.071,28 C26.071,28.553 25.624,29 25.071,29 Z M19.129,28.594 C18.99,28.594 18.849,28.565 18.714,28.503 C17.978,28.167 17.312,27.659 16.787,27.036 C16.432,26.613 16.486,25.982 16.909,25.627 C17.332,25.272 17.962,25.326 18.318,25.749 C18.652,26.146 19.077,26.47 19.546,26.685 C20.048,26.914 20.269,27.507 20.039,28.01 C19.871,28.377 19.509,28.594 19.129,28.594 Z M16.58,23.65 C16.517,23.65 16.454,23.644 16.391,23.632 C15.848,23.528 15.494,23.003 15.597,22.461 C15.752,21.652 16.08,20.905 16.57,20.239 C16.898,19.794 17.523,19.7 17.968,20.026 C18.413,20.354 18.508,20.98 18.181,21.424 C17.868,21.848 17.66,22.323 17.562,22.837 C17.469,23.317 17.05,23.65 16.58,23.65 Z M20.784,20.005 C20.251,20.005 19.807,19.584 19.786,19.046 C19.764,18.494 20.192,18.028 20.744,18.006 C20.829,18.002 20.914,18 21,18 L22.785,18 C23.338,18 23.785,18.447 23.785,19 C23.785,19.553 23.338,20 22.785,20 L20.826,20.004 C20.812,20.005 20.798,20.005 20.784,20.005 Z M39,20 L38.785,20 C38.232,20 37.785,19.553 37.785,19 C37.785,18.447 38.232,18 38.785,18 L39,18 C39.469,18 39.923,17.909 40.352,17.729 C40.857,17.514 41.447,17.754 41.661,18.264 C41.875,18.773 41.636,19.359 41.126,19.573 C40.451,19.856 39.736,20 39,20 Z M34.785,20 L32.785,20 C32.232,20 31.785,19.553 31.785,19 C31.785,18.447 32.232,18 32.785,18 L34.785,18 C35.338,18 35.785,18.447 35.785,19 C35.785,19.553 35.338,20 34.785,20 Z M28.785,20 L26.785,20 C26.232,20 25.785,19.553 25.785,19 C25.785,18.447 26.232,18 26.785,18 L28.785,18 C29.338,18 29.785,18.447 29.785,19 C29.785,19.553 29.338,20 28.785,20 Z M43.318,16.77 C43.225,16.77 43.13,16.757 43.037,16.73 C42.507,16.575 42.203,16.019 42.358,15.489 C42.452,15.169 42.5,14.837 42.5,14.501 C42.502,14.309 42.486,14.127 42.458,13.949 C42.37,13.404 42.741,12.89 43.287,12.803 C43.83,12.713 44.345,13.086 44.433,13.632 C44.48,13.925 44.502,14.22 44.5,14.508 C44.5,15.027 44.426,15.548 44.278,16.051 C44.15,16.487 43.751,16.77 43.318,16.77 Z M41.25,11.604 C41.08,11.604 40.907,11.561 40.749,11.469 C40.296,11.206 39.802,11.052 39.279,11.011 C38.728,10.968 38.317,10.487 38.36,9.936 C38.403,9.384 38.886,8.977 39.435,9.017 C40.258,9.081 41.039,9.325 41.752,9.739 C42.23,10.016 42.393,10.629 42.115,11.106 C41.931,11.425 41.595,11.604 41.25,11.604 Z M35.357,11 L33.357,11 C32.804,11 32.357,10.553 32.357,10 C32.357,9.447 32.804,9 33.357,9 L35.357,9 C35.91,9 36.357,9.447 36.357,10 C36.357,10.553 35.91,11 35.357,11 Z M29.357,11 L27.357,11 C26.804,11 26.357,10.553 26.357,10 C26.357,9.447 26.804,9 27.357,9 L29.357,9 C29.91,9 30.357,9.447 30.357,10 C30.357,10.553 29.91,11 29.357,11 Z M23.357,11 L21.357,11 C20.804,11 20.357,10.553 20.357,10 C20.357,9.447 20.804,9 21.357,9 L23.357,9 C23.91,9 24.357,9.447 24.357,10 C24.357,10.553 23.91,11 23.357,11 Z M17.357,11 L17,11 C16.322,10.999 15.663,10.877 15.037,10.639 C14.521,10.442 14.263,9.864 14.459,9.348 C14.657,8.831 15.238,8.575 15.75,8.77 C16.148,8.922 16.569,8.999 17.002,9 L17.357,9 C17.91,9 18.357,9.447 18.357,10 C18.357,10.553 17.91,11 17.357,11 Z M12.724,7.905 C12.304,7.905 11.912,7.638 11.774,7.217 C11.592,6.665 11.501,6.087 11.501,5.499 C11.502,5.261 11.517,5.03 11.545,4.805 C11.613,4.259 12.097,3.874 12.662,3.938 C13.21,4.006 13.599,4.507 13.529,5.055 C13.51,5.202 13.502,5.353 13.501,5.504 C13.501,5.874 13.56,6.241 13.675,6.592 C13.847,7.116 13.562,7.682 13.037,7.855 C12.933,7.89 12.827,7.905 12.724,7.905 Z M14.628,2.676 C14.294,2.676 13.968,2.509 13.778,2.205 C13.486,1.736 13.629,1.119 14.097,0.827 C14.797,0.39 15.569,0.124 16.391,0.033 C16.944,-0.024 17.434,0.369 17.495,0.918 C17.556,1.467 17.159,1.961 16.61,2.022 C16.089,2.08 15.599,2.249 15.156,2.525 C14.991,2.627 14.809,2.676 14.628,2.676 Z M28.5,2 L26.5,2 C25.947,2 25.5,1.553 25.5,1 C25.5,0.447 25.947,0 26.5,0 L28.5,0 C29.053,0 29.5,0.447 29.5,1 C29.5,1.553 29.053,2 28.5,2 Z M22.5,2 L20.5,2 C19.947,2 19.5,1.553 19.5,1 C19.5,0.447 19.947,0 20.5,0 L22.5,0 C23.053,0 23.5,0.447 23.5,1 C23.5,1.553 23.053,2 22.5,2 Z" id="Shape"></path>
            </g>
            <g id="028-placeholder" transform="translate(58.000000, 0.000000)">
                <g id="Capa_1">
                    <path d="M14.4942473,18.7316667 C17.3297312,14.1687634 19.4126344,7.37424731 15.3094624,2.81225806 C13.7096237,1.03349462 11.3925269,0 9,0 C6.60741935,0 4.29037634,1.03349462 2.69048387,2.81225806 C-1.41268817,7.37424731 0.670215054,14.1687097 3.50569892,18.7316667 C5.04344086,21.2061828 6.94322581,23.446129 8.99994624,25.5029032 C11.0567204,23.4461828 12.9565054,21.2062366 14.4942473,18.7316667 Z" id="Shape" fill="#DA5B65"></path>
                    <ellipse id="Oval" fill="#EFEDEE" cx="8.99994624" cy="8.32397849" rx="6.57709677" ry="6.57709677"></ellipse>
                    <path d="M10.3846774,14.1810215 C6.75225806,14.1810215 3.80758065,11.2363441 3.80758065,7.60392473 C3.80758065,5.34446237 4.94715054,3.35129032 6.68268817,2.1672043 C4.19376344,3.10451613 2.42295699,5.5072043 2.42295699,8.32392473 C2.42295699,11.9563441 5.36763441,14.9010215 9.00005376,14.9010215 C10.372957,14.9010215 11.6474731,14.4801613 12.702043,13.7606452 C11.981129,14.032043 11.2003226,14.1810215 10.3846774,14.1810215 Z" id="Shape" fill="#D4D2D3"></path>
                    <g id="Group" transform="translate(5.344086, 7.580645)" fill="#3A484A">
                        <path d="M0.437150538,1.46639785 C0.207741935,1.46639785 0.0217741935,1.28043011 0.0217741935,1.05102151 L0.0217741935,0.468494624 C0.0217741935,0.239086022 0.207741935,0.0531182796 0.437150538,0.0531182796 C0.66655914,0.0531182796 0.852526882,0.239086022 0.852526882,0.468494624 L0.852526882,1.05102151 C0.852526882,1.28043011 0.66655914,1.46639785 0.437150538,1.46639785 Z" id="Shape"></path>
                        <path d="M6.87456989,1.46639785 C6.64516129,1.46639785 6.45919355,1.28043011 6.45919355,1.05102151 L6.45919355,0.468494624 C6.45919355,0.239086022 6.64516129,0.0531182796 6.87456989,0.0531182796 C7.10397849,0.0531182796 7.28994624,0.239086022 7.28994624,0.468494624 L7.28994624,1.05102151 C7.28994624,1.28043011 7.10397849,1.46639785 6.87456989,1.46639785 Z" id="Shape"></path>
                        <path d="M3.65586022,1.77731183 C3.22634409,1.77731183 2.8227957,1.59741935 2.54870968,1.28376344 C2.39774194,1.11102151 2.41537634,0.848602151 2.58806452,0.697634409 C2.76069892,0.54672043 3.02322581,0.564247312 3.17419355,0.737043011 C3.29053763,0.87016129 3.46612903,0.946505376 3.65580645,0.946505376 C3.84548387,0.946505376 4.02112903,0.87016129 4.13741935,0.737043011 C4.28844086,0.564301075 4.55080645,0.546666667 4.72354839,0.697688172 C4.89629032,0.848655914 4.91392473,1.11107527 4.76290323,1.2838172 C4.48892473,1.59741935 4.08532258,1.77731183 3.65586022,1.77731183 Z" id="Shape"></path>
                    </g>
                </g>
            </g>
            <g id="028-placeholder" transform="translate(17.000000, 29.000000)">
                <g id="Capa_1">
                    <path d="M19.3256631,24.4952564 C23.1063082,18.528383 25.8835125,9.64324648 20.4126165,3.67756824 C18.2794982,1.35149297 15.1900358,0 12,0 C8.80989247,0 5.72050179,1.35149297 3.58731183,3.67756824 C-1.88358423,9.64324648 0.893620072,18.5283127 4.67426523,24.4952564 C6.72458781,27.7311621 9.25763441,30.6603226 11.9999283,33.3499504 C14.7422939,30.6603929 17.2753405,27.7312324 19.3256631,24.4952564 Z" id="Shape" fill="#43809D"></path>
                    <ellipse id="Oval" fill="#EFEDEE" cx="11.9999283" cy="10.8852026" rx="8.76946237" ry="8.60081886"></ellipse>
                    <path d="M13.8462366,18.5444127 C9.00301075,18.5444127 5.07677419,14.6936807 5.07677419,9.94359388 C5.07677419,6.98891232 6.59620072,4.38245658 8.9102509,2.83403639 C5.59168459,4.05975186 3.23060932,7.2017287 3.23060932,10.8851323 C3.23060932,15.6352192 7.15684588,19.4859512 12.0000717,19.4859512 C13.8306093,19.4859512 15.5299642,18.9355955 16.9360573,17.9946898 C15.9748387,18.3495947 14.9337634,18.5444127 13.8462366,18.5444127 Z" id="Shape" fill="#D4D2D3"></path>
                    <g id="Group" transform="translate(7.125448, 9.913151)" fill="#3A484A">
                        <path d="M0.582867384,1.91759719 C0.276989247,1.91759719 0.0290322581,1.6744086 0.0290322581,1.37441274 L0.0290322581,0.612646816 C0.0290322581,0.312650951 0.276989247,0.0694623656 0.582867384,0.0694623656 C0.88874552,0.0694623656 1.13670251,0.312650951 1.13670251,0.612646816 L1.13670251,1.37441274 C1.13670251,1.6744086 0.88874552,1.91759719 0.582867384,1.91759719 Z" id="Shape"></path>
                        <path d="M9.16609319,1.91759719 C8.86021505,1.91759719 8.61225806,1.6744086 8.61225806,1.37441274 L8.61225806,0.612646816 C8.61225806,0.312650951 8.86021505,0.0694623656 9.16609319,0.0694623656 C9.47197133,0.0694623656 9.71992832,0.312650951 9.71992832,0.612646816 L9.71992832,1.37441274 C9.71992832,1.6744086 9.47197133,1.91759719 9.16609319,1.91759719 Z" id="Shape"></path>
                        <path d="M4.87448029,2.32417701 C4.30179211,2.32417701 3.7637276,2.088933 3.39827957,1.67876758 C3.19698925,1.45287428 3.22050179,1.1097105 3.45075269,0.91229115 C3.6809319,0.714942101 4.03096774,0.737861869 4.23225806,0.963825476 C4.38738351,1.13790323 4.62150538,1.2377378 4.8744086,1.2377378 C5.12731183,1.2377378 5.36150538,1.13790323 5.51655914,0.963825476 C5.71792115,0.737932175 6.06774194,0.714871795 6.29806452,0.912361456 C6.5283871,1.10978081 6.55189964,1.45294458 6.35053763,1.67883788 C5.98523297,2.088933 5.44709677,2.32417701 4.87448029,2.32417701 Z" id="Shape"></path>
                    </g>
                </g>
            </g>
            <g id="055-disco-ball-1" transform="translate(18.000000, 30.000000)">
                <g id="Capa_1">
                    <ellipse id="Oval" fill="#EEEDED" cx="11.3069355" cy="10.1066975" rx="9.12689516" ry="9.29251535"></ellipse>
                    <path d="M14.0619476,16.5145455 L17.9170927,16.5145455 C16.2544073,18.2914902 13.9079032,19.3987613 11.3068911,19.3987613 C12.1930565,18.6322202 13.1989798,17.7000333 14.0619476,16.5145455 Z" id="Shape" fill="#56B4DD"></path>
                    <path d="M8.55183468,16.5145455 L14.0619476,16.5145455 C13.1989798,17.6999882 12.1930565,18.6322202 11.3068911,19.3987613 C10.4207258,18.6322202 9.41484677,17.7000333 8.55183468,16.5145455 Z" id="Shape" fill="#9DD3EC"></path>
                    <path d="M6.74140323,12.5648765 L15.8724234,12.5648765 C15.5213548,14.136796 14.8515524,15.4313897 14.0619476,16.5145455 L8.55183468,16.5145455 C7.76227419,15.4313897 7.09247177,14.136796 6.74140323,12.5648765 Z" id="Shape" fill="#000000" opacity="0.1"></path>
                    <path d="M8.55183468,16.5145455 L4.69673387,16.5145455 C3.67195968,15.4186095 2.90701613,14.0674307 2.50334274,12.5648765 L6.74144758,12.5648765 C7.09247177,14.136796 7.76227419,15.4313897 8.55183468,16.5145455 Z" id="Shape" fill="#56B4DD"></path>
                    <g id="Group" transform="translate(2.173387, 3.666018)" fill="#9DD3EC">
                        <path d="M0.32991129,3.98204853 L4.56801613,3.98204853 C4.39946774,4.73531264 4.30432661,5.55247775 4.30432661,6.44045331 C4.30432661,7.32842886 4.39946774,8.14559397 4.56801613,8.89885808 L0.32991129,8.89885808 C0.119358871,8.11610467 0.00683064516,7.29153337 0.00683064516,6.44045331 C0.00683064516,5.58937324 0.119358871,4.76480194 0.32991129,3.98204853 Z" id="Shape"></path>
                        <path d="M13.6990363,3.98204853 L4.56801613,3.98204853 C4.91908468,2.41012904 5.5888871,1.11553538 6.37849194,0.0323795184 L11.8886048,0.0323795184 C12.678121,1.11553538 13.3479234,2.4101742 13.6990363,3.98204853 Z" id="Shape"></path>
                    </g>
                    <path d="M11.3068911,0.814182195 C12.1935444,1.58072326 13.1989798,2.51295534 14.0619476,3.69839796 L8.55183468,3.69839796 C9.41484677,2.51295534 10.4207258,1.58072326 11.3068911,0.814182195 Z" id="Shape" fill="#56B4DD"></path>
                    <path d="M17.9170927,3.69839796 L14.0619476,3.69839796 C13.1989798,2.51295534 12.1935444,1.58072326 11.3068911,0.814182195 C13.9079032,0.814182195 16.2544073,1.92145334 17.9170927,3.69839796 Z" id="Shape" fill="#9DD3EC"></path>
                    <path d="M4.69673387,3.69839796 L8.55187903,3.69839796 C9.41484677,2.51295534 10.4202823,1.58072326 11.3069355,0.814182195 C8.70592339,0.814182195 6.35941935,1.92145334 4.69673387,3.69839796 Z" id="Shape" fill="#000000" opacity="0.1"></path>
                    <path d="M20.1104839,7.64806697 C20.3210363,8.43082038 20.4335645,9.25539169 20.4335645,10.1064717 C20.4335645,10.9575518 20.3210363,11.7821231 20.1104839,12.5648765 L15.872379,12.5648765 C16.0409274,11.8116124 16.1360685,10.9944473 16.1360685,10.1064717 C16.1360685,9.2184962 16.0409274,8.40133108 15.872379,7.64806697 L20.1104839,7.64806697 L20.1104839,7.64806697 Z" id="Shape" fill="#56B4DD"></path>
                    <g id="Group" transform="translate(7.806452, 9.265824)" fill="#4A5058">
                        <path d="M0.335677419,1.24144067 C0.151915323,1.24144067 0.00301612903,1.08979434 0.00301612903,0.90274278 L0.00301612903,0.36787107 C0.00301612903,0.180819514 0.151915323,0.0291731784 0.335677419,0.0291731784 C0.519439516,0.0291731784 0.66833871,0.180819514 0.66833871,0.36787107 L0.66833871,0.90274278 C0.66833871,1.08979434 0.519439516,1.24144067 0.335677419,1.24144067 Z" id="Shape"></path>
                        <path d="M6.66520161,1.24144067 C6.48143952,1.24144067 6.33254032,1.08979434 6.33254032,0.90274278 L6.33254032,0.36787107 C6.33254032,0.180819514 6.48143952,0.0291731784 6.66520161,0.0291731784 C6.84896371,0.0291731784 6.9978629,0.180819514 6.9978629,0.36787107 L6.9978629,0.90274278 C6.9978629,1.08979434 6.84891935,1.24144067 6.66520161,1.24144067 Z" id="Shape"></path>
                        <path d="M3.50043952,1.65216831 C3.08452419,1.65216831 2.6890121,1.46872954 2.41525403,1.14895357 C2.29452016,1.00791977 2.30897984,0.793998177 2.4475,0.671073422 C2.58597581,0.548148668 2.79612903,0.562825576 2.9168629,0.703859378 C3.06420968,0.876008227 3.27689113,0.974727372 3.50043952,0.974727372 C3.7239879,0.974727372 3.93666935,0.876008227 4.08401613,0.703859378 C4.20479435,0.562825576 4.41485887,0.548148668 4.55337903,0.671073422 C4.69189919,0.793953017 4.70631452,1.00791977 4.585625,1.14895357 C4.31186694,1.46872954 3.91635484,1.65216831 3.50043952,1.65216831 Z" id="Shape"></path>
                    </g>
                    <path d="M12.2256573,18.4634132 C7.18512903,18.4634132 3.09893952,14.3031193 3.09893952,9.17112365 C3.09893952,6.8431853 3.93977419,4.71525935 5.3290121,3.08481286 C3.40010887,4.78859873 2.18017339,7.3025048 2.18017339,10.1065621 C2.18017339,15.2385577 6.26631855,19.3988968 11.3068911,19.3988968 C14.0609718,19.3988968 16.5300726,18.1568239 18.2034919,16.192918 C16.6021048,17.6073204 14.5121048,18.4634132 12.2256573,18.4634132 Z" id="Shape" fill="#000000" opacity="0.1"></path>
                    <g id="Group" transform="translate(0.000000, 0.866116)" fill="#F5A85B">
                        <path d="M19.1570323,1.73824274 C19.0667258,1.07809797 18.8617621,0.518162614 18.7058548,0.164968453 C18.6287218,-0.00975449928 18.3845927,-0.00975449928 18.3074597,0.164968453 C18.1515968,0.518207774 17.9466331,1.07809797 17.8562823,1.73824274 C17.2079032,1.83018793 16.6579476,2.03891615 16.3110484,2.1976074 C16.1393952,2.27609499 16.1393952,2.52469924 16.3110484,2.60323199 C16.6579919,2.76192325 17.2079032,2.97060631 17.8562823,3.06259665 C17.9465887,3.72274142 18.1515524,4.28263162 18.3074597,4.63587094 C18.3845484,4.81063905 18.6287218,4.81063905 18.7058548,4.63587094 C18.8617177,4.28263162 19.0666815,3.72278658 19.1570323,3.06259665 C19.8054113,2.97065147 20.3553669,2.76192325 20.7022661,2.60323199 C20.8739194,2.52469924 20.873875,2.27614015 20.7022661,2.1976074 C20.3553226,2.03891615 19.8054113,1.83023309 19.1570323,1.73824274 Z" id="Shape"></path>
                        <path d="M3.00876613,5.94956716 C2.91845968,5.28942239 2.71349597,4.7295322 2.55758871,4.37629288 C2.48045565,4.20152476 2.23632661,4.20152476 2.15919355,4.37629288 C2.00333065,4.7295322 1.79836694,5.28942239 1.70801613,5.94956716 C1.0596371,6.04151235 0.509681452,6.25024057 0.162782258,6.40893182 C-0.00887096774,6.48746457 -0.00887096774,6.73602367 0.162782258,6.81455642 C0.509725806,6.97324767 1.0596371,7.18193073 1.70801613,7.27392108 C1.79832258,7.93406585 2.00328629,8.49395604 2.15919355,8.84719536 C2.23632661,9.02196348 2.48045565,9.02196348 2.55758871,8.84719536 C2.71345161,8.49395604 2.91841532,7.93406585 3.00876613,7.27392108 C3.65714516,7.18197589 4.20710081,6.97324767 4.554,6.81455642 C4.72560887,6.73602367 4.72560887,6.48746457 4.554,6.40893182 C4.20710081,6.25019541 3.65718952,6.04151235 3.00876613,5.94956716 Z" id="Shape"></path>
                        <path d="M20.5079476,17.1420874 C20.4293065,16.5671138 20.2507782,16.0794792 20.1150081,15.771806 C20.0478548,15.6196178 19.8351734,15.6196178 19.7680202,15.771806 C19.63225,16.079434 19.4537218,16.5671138 19.3750806,17.1420874 C18.8103548,17.2222007 18.3313669,17.4039686 18.0292218,17.5421573 C17.879746,17.6105291 17.879746,17.82707 18.0292218,17.8954418 C18.3313669,18.0336757 18.8103548,18.2154436 19.3750806,18.2955117 C19.4537218,18.8704853 19.63225,19.3581199 19.7680202,19.6657931 C19.8351734,19.8179813 20.0478548,19.8179813 20.1150081,19.6657931 C20.2507782,19.3581651 20.4293065,18.8704853 20.5079476,18.2955117 C21.0726734,18.2153984 21.5516613,18.0336757 21.8538065,17.8954418 C22.0032823,17.82707 22.0032823,17.6105291 21.8538065,17.5421573 C21.5516169,17.4039686 21.0726734,17.2222007 20.5079476,17.1420874 Z" id="Shape"></path>
                    </g>
                </g>
            </g>
            <g id="004-tap" transform="translate(22.364258, 69.573242) rotate(38.000000) translate(-22.364258, -69.573242) translate(10.364258, 49.573242)">
                <g id="Capa_1">
                    <g id="Group" fill="#E5E5E5">
                        <path d="M9.43153846,19.0768031 C4.24284615,19.0768031 0.0215384615,14.7978947 0.0215384615,9.53847953 C0.0215384615,4.27898635 4.24284615,0 9.43153846,0 C14.6202308,0 18.8415385,4.27898635 18.8415385,9.53847953 C18.8415385,14.7978947 14.6202308,19.0768031 9.43153846,19.0768031 Z M9.43153846,1.16959064 C4.87907692,1.16959064 1.17538462,4.92382066 1.17538462,9.53847953 C1.17538462,14.1530604 4.87907692,17.9072125 9.43153846,17.9072125 C13.984,17.9072125 17.6876923,14.1529825 17.6876923,9.53847953 C17.6876923,4.92382066 13.984,1.16959064 9.43153846,1.16959064 Z" id="Shape"></path>
                        <path d="M9.43153846,15.5487719 C6.16207692,15.5487719 3.50207692,12.8525536 3.50207692,9.53840156 C3.50207692,6.22424951 6.162,3.52803119 9.43153846,3.52803119 C12.701,3.52803119 15.3609231,6.22424951 15.3609231,9.53840156 C15.3609231,12.8525536 12.701,15.5487719 9.43153846,15.5487719 Z M9.43153846,4.69762183 C6.79830769,4.69762183 4.65592308,6.86923977 4.65592308,9.53840156 C4.65592308,12.2075634 6.79823077,14.3791813 9.43153846,14.3791813 C12.0647692,14.3791813 14.2070769,12.2075634 14.2070769,9.53840156 C14.2070769,6.86923977 12.0647692,4.69762183 9.43153846,4.69762183 Z" id="Shape"></path>
                    </g>
                    <path d="M22.352,39.9220273 L8.97984615,39.9220273 C8.08161538,39.9220273 7.35338462,39.1839376 7.35338462,38.2733723 L7.35338462,35.3124366 L23.9784615,35.3124366 L23.9784615,38.2733723 C23.9784615,39.1839376 23.2503077,39.9220273 22.352,39.9220273 Z" id="Shape" fill="#404B58"></path>
                    <path d="M21.8601538,14.7130604 C20.731,14.7347368 19.8222308,15.6693957 19.8222308,16.8191813 C19.8222308,15.6558285 18.8918462,14.7126706 17.7440769,14.7126706 C16.5963846,14.7126706 15.6659231,15.6557505 15.6659231,16.8191813 C15.6659231,15.6558285 14.7355385,14.7126706 13.5877692,14.7126706 L13.5877692,14.7126706 C12.4400769,14.7126706 11.5096154,15.6557505 11.5096154,16.8191813 L11.5096154,9.53840156 C11.5096154,8.37504873 10.5792308,7.43189084 9.43146154,7.43189084 L9.43146154,7.43189084 C8.28376923,7.43189084 7.35330769,8.37497076 7.35330769,9.53840156 L7.35330769,21.8395322 C6.326,20.8330604 4.68869231,20.8431969 3.67453846,21.8711891 L3.67453846,21.8711891 C2.64961538,22.9100975 2.64961538,24.5945419 3.67453846,25.6334503 L6.56292308,28.5612476 C7.069,29.07423 7.35330769,29.7700585 7.35330769,30.4955166 L7.35330769,31.7625731 L23.9784615,31.7625731 L23.9784615,16.8665887 C23.9784615,15.685614 23.0250769,14.6906823 21.8601538,14.7130604 Z" id="Shape" fill="#79C6E4"></path>
                    <rect id="Rectangle-path" fill="#E8E8E8" x="7.35307692" y="31.762963" width="16.6253846" height="3.54986355"></rect>
                    <path d="M21.8601538,14.7130604 C21.5739231,14.7185965 21.3019231,14.782924 21.0552308,14.894425 C21.7910769,15.2311891 22.3067692,15.9983626 22.3067692,16.8666667 L22.3067692,38.2734503 C22.3067692,39.1839376 21.5786154,39.9221053 20.6803077,39.9221053 L22.352,39.9221053 C23.2502308,39.9221053 23.9784615,39.1840156 23.9784615,38.2734503 L23.9784615,16.8665887 C23.9784615,15.685614 23.0250769,14.6906823 21.8601538,14.7130604 Z" id="Shape" fill="#000000" opacity="0.1"></path>
                    <ellipse id="Oval" fill="#404B58" cx="21.0323846" cy="33.5376218" rx="0.571692308" ry="0.579493177"></ellipse>
                </g>
            </g>
        </g>
    </g>
</svg>