<?xml version="1.0" encoding="iso-8859-1"?>
<!-- Generator: Adobe Illustrator 19.0.0, SVG Export Plug-In . SVG Version: 6.00 Build 0)  -->
<svg version="1.1" id="Capa_1" xmlns="http://www.w3.org/2000/svg" xmlns:xlink="http://www.w3.org/1999/xlink" x="0px" y="0px"
	 viewBox="0 0 512 512" style="enable-background:new 0 0 512 512;" xml:space="preserve">
<path style="fill:#A66749;" d="M498.325,24.142c-9.998-2.848-20.414,2.951-23.261,12.951l-21.428,75.259l-46.588,39.077
	c-3.016-0.887-8.934-0.228-58.032-8.258c-2.274-0.368-6.716-0.224-6.716-0.224s-15.663,0.634-49.837,2.194l-23.324-46.135
	c-4.691-9.278-16.016-12.997-25.294-8.306c-9.278,4.691-12.997,16.016-8.306,25.294l28.814,56.991
	c3.214,6.356,9.723,10.331,16.796,10.331c0.28,0,0.563-0.007,0.846-0.019l42.515-1.902l-18.955,117.072l98.433,15.936
	l20.847-128.761l57.657-48.457c2.785-2.401,4.805-5.566,5.812-9.102l22.971-80.68C514.124,37.403,508.325,26.989,498.325,24.142z"/>
<path style="fill:#464D7F;" d="M396.504,376.952l7.485-62.548l1.025-6.332l-44.586-7.814c0,0-0.989,3.303-1.192,5.075l-8.53,74.417
	c-0.589,5.14,0.603,10.326,3.379,14.691l53.181,83.664c4.304,6.772,11.615,10.476,19.086,10.474c4.145,0,8.34-1.141,12.097-3.528
	c10.53-6.693,13.639-20.654,6.946-31.184L396.504,376.952z"/>
<path style="fill:#3A4069;" d="M312.578,361.737l49.352-61.312l-50.809-8.932l-40.229,49.979
	c-4.121,5.119-5.809,11.779-4.621,18.244l20.257,110.352c2,10.893,11.5,18.517,22.194,18.516c1.354,0,2.727-0.122,4.105-0.376
	c12.271-2.253,20.393-14.026,18.141-26.298L312.578,361.737z"/>
<circle style="fill:#A66749;" cx="388.581" cy="96.329" r="39.02"/>
<path style="fill:#EDB59E;" d="M257.235,125.002c-7.323-6.278-18.345-5.428-24.619,1.893l-35.038,40.877l-22.18-21.734
	c-7.287-7.14-17.082-11.139-27.284-11.139c-11.943,0-68.638,0-66.237,0c-10.175,0-19.947,3.978-27.229,11.085L6.308,193.158
	c-7.234,6.006-8.414,16.66-2.669,24.102l48.737,63.141l-8.886,51.274c-1.03,5.943,3.571,11.368,9.557,11.368
	c26.909,0,93.08,0,119.968,0c6.006,0,10.587-5.417,9.557-11.368l-27.067-156.188c0.178,0.164,0.368,0.313,0.543,0.483l30.42,29.805
	c7.222,7.076,18.912,6.55,25.476-1.109l47.183-55.046C265.404,142.301,264.556,131.278,257.235,125.002z M41.579,209.263
	l27.012-22.426l-8.127,46.895L41.579,209.263z"/>
<path style="fill:#DD9E84;" d="M66.605,333.952v44.176L29.35,444.287c-5.678,10.083-2.107,22.859,7.976,28.537
	c10.069,5.669,22.851,2.123,28.537-7.976l39.951-70.946c1.767-3.138,2.696-6.679,2.696-10.28v-49.669H66.605V333.952z"/>
<path style="fill:#EDB59E;" d="M117.556,333.952v132.034c0,11.572,9.38,20.952,20.952,20.952s20.952-9.38,20.952-20.952V333.952
	H117.556z"/>
<path style="fill:#DD3E3E;" d="M155.496,175.429l20.228,19.819l21.853-27.477l-22.18-21.734
	c-7.287-7.14-17.082-11.139-27.284-11.139h-18.628c0.003,0.068,0.016,0.132,0.018,0.2c0.413,9.223-8.144,17.078-17.078,17.078
	c-9.574,0-16.663-7.825-17.078-17.078c-0.003-0.068,0.006-0.132,0.003-0.2H81.875c-10.175,0-19.947,3.978-27.229,11.085
	l-34.814,33.976l21.747,29.301l27.012-22.426l-8.127,46.895l-8.088,46.672l-8.886,51.275c-1.03,5.943,3.571,11.368,9.557,11.368
	h119.968c6.006,0,10.587-5.417,9.557-11.368L155.496,175.429z"/>
<circle style="fill:#EDB59E;" cx="113.036" cy="87.184" r="36.186"/>
<path style="fill:#7EADFC;" d="M446.545,118.301l-39.497,33.129c-1.389-0.408-3.396-0.49-9.946-1.242
	c-0.883,8.251-8.768,14.91-16.991,14.91c-9.574,0-16.663-7.825-17.078-17.078c-0.039-0.878,0.027-1.736,0.142-2.584
	c-4.271-0.666-8.972-1.417-14.161-2.266c-2.274-0.368-6.716-0.224-6.716-0.224s-11.257,0.368-49.837,2.194l-0.044-0.086v37.777
	l32.089-1.436l-18.955,117.072l98.433,15.936l20.847-128.761l43.995-36.974L446.545,118.301z"/>
<g>
</g>
<g>
</g>
<g>
</g>
<g>
</g>
<g>
</g>
<g>
</g>
<g>
</g>
<g>
</g>
<g>
</g>
<g>
</g>
<g>
</g>
<g>
</g>
<g>
</g>
<g>
</g>
<g>
</g>
</svg>
