<?xml version="1.0" encoding="iso-8859-1"?>
<!-- Generator: Adobe Illustrator 19.0.0, SVG Export Plug-In . SVG Version: 6.00 Build 0)  -->
<svg version="1.1" id="Layer_1" xmlns="http://www.w3.org/2000/svg" xmlns:xlink="http://www.w3.org/1999/xlink" x="0px" y="0px"
	 viewBox="0 0 511.999 511.999" style="enable-background:new 0 0 511.999 511.999;" xml:space="preserve">
<g>
	<path style="fill:#39C8C6;" d="M238.842,491.542l-9.365-178.375l-17.257,0.907l9.02,171.782l0.329,0.106l-25.053,9.189
		c-4.532,1.494-6.994,6.38-5.5,10.912c1.494,4.533,6.38,6.993,10.912,5.5l30.978-11.362
		C236.691,498.953,239.024,495.334,238.842,491.542z"/>
	<path style="fill:#39C8C6;" d="M273.159,491.542l9.365-178.375l17.257,0.907l-9.02,171.782l-0.329,0.106l25.053,9.189
		c4.532,1.494,6.994,6.38,5.5,10.912c-1.494,4.533-6.38,6.993-10.912,5.5l-30.978-11.362
		C275.309,498.953,272.977,495.334,273.159,491.542z"/>
</g>
<polygon style="fill:#EDA27A;" points="304.491,255.447 304.491,292.313 255.989,322.267 207.51,292.313 207.51,255.447 
	256,232.406 "/>
<path style="fill:#733B59;" d="M323.615,50.691c6.014-5.311,9.816-13.064,9.816-21.716C333.431,12.972,320.458,0,304.468,0
	c-11.175,0-20.864,6.336-25.691,15.61c-7.223-2.189-14.873-3.376-22.788-3.376c-7.915,0-15.564,1.187-22.788,3.376
	C228.374,6.336,218.685,0,207.51,0c-15.991,0-28.963,12.972-28.963,28.974c0,8.652,3.802,16.405,9.816,21.716
	c-7.085,11.809-11.14,25.599-11.14,40.334V234.71h157.533V91.025C334.755,76.29,330.7,62.499,323.615,50.691z"/>
<path style="fill:#EDA27A;" d="M407.538,91.995c-4.766-0.517-9.01,2.908-9.529,7.651c-2.664,24.373-14.66,46.25-33.777,61.599
	c-19.117,15.349-43.065,22.341-67.442,19.671h-81.579c-50.309,5.503-95.719-30.958-101.22-81.27
	c-0.518-4.743-4.786-8.157-9.529-7.651c-4.744,0.518-8.169,4.785-7.651,9.529c6.097,55.777,53.467,97.225,108.342,97.223
	l101.817,0.008c24.719,0,48.526-8.336,68.078-24.036c22.718-18.239,36.972-44.235,40.138-73.194
	C415.706,96.779,412.281,92.513,407.538,91.995z"/>
<path style="fill:#ADEBEB;" d="M285.09,170.102L256,181.623l-29.09-11.521c-10.668,0-19.401,8.721-19.401,19.401v65.944h96.981
	v-65.944C304.491,178.823,295.758,170.102,285.09,170.102z"/>
<polygon style="fill:#EDB99E;" points="285.09,170.102 256,206.703 226.911,170.102 "/>
<path style="fill:#EDA27A;" d="M217.372,59.298c-7.097,8.629-11.348,19.677-11.348,31.728c0,27.603,22.373,49.965,49.965,49.965
	c27.615,0,49.988-22.362,49.988-49.965c0-12.051-4.263-23.099-11.348-31.728H217.372z"/>
<polygon style="fill:#ADEBEB;" points="304.491,292.314 255.989,299.227 207.51,292.314 191.485,348.408 320.516,348.408 "/>
<path style="fill:#733B59;" d="M267.329,47.777v32.584c0,4.772,3.869,8.64,8.64,8.64s8.64-3.869,8.64-8.64V47.777H267.329z"/>
<g>
	<path style="fill:#39C8C6;" d="M290.466,163.338c-3.735-2.968-9.17-2.348-12.14,1.388l-40.289,50.691
		c-2.969,3.736-2.348,9.17,1.388,12.14c3.735,2.968,9.17,2.348,12.14-1.388l40.289-50.691
		C294.824,171.744,294.202,166.308,290.466,163.338z"/>
	<path style="fill:#39C8C6;" d="M221.534,163.338c3.735-2.968,9.17-2.348,12.14,1.388l40.289,50.691
		c2.969,3.736,2.348,9.17-1.388,12.14c-3.735,2.968-9.17,2.348-12.14-1.388l-40.289-50.691
		C217.177,171.744,217.799,166.308,221.534,163.338z"/>
</g>
<g>
</g>
<g>
</g>
<g>
</g>
<g>
</g>
<g>
</g>
<g>
</g>
<g>
</g>
<g>
</g>
<g>
</g>
<g>
</g>
<g>
</g>
<g>
</g>
<g>
</g>
<g>
</g>
<g>
</g>
</svg>
