<?xml version="1.0" encoding="iso-8859-1"?>
<!-- Generator: Adobe Illustrator 19.0.0, SVG Export Plug-In . SVG Version: 6.00 Build 0)  -->
<svg version="1.1" id="Layer_1" xmlns="http://www.w3.org/2000/svg" xmlns:xlink="http://www.w3.org/1999/xlink" x="0px" y="0px"
	 viewBox="0 0 511.999 511.999" style="enable-background:new 0 0 511.999 511.999;" xml:space="preserve">
<g>
	<path style="fill:#76DEDD;" d="M239.009,491.741l-9.274-176.634l-17.088,0.898l8.931,170.105l0.326,0.105l-24.808,9.099
		c-4.488,1.48-6.926,6.318-5.446,10.806c1.48,4.489,6.318,6.925,10.806,5.446l30.675-11.251
		C236.879,499.08,239.189,495.497,239.009,491.741z"/>
	<path style="fill:#76DEDD;" d="M272.992,491.741l9.274-176.634l17.088,0.898l-8.931,170.105l-0.326,0.105l24.808,9.099
		c4.488,1.48,6.926,6.318,5.446,10.806c-1.48,4.489-6.318,6.925-10.806,5.446l-30.676-11.251
		C275.121,499.08,272.812,495.497,272.992,491.741z"/>
</g>
<path style="fill:#F7D0BC;" d="M145.672,232.145h220.657L343.798,79.492H363.5C363.5,35.662,327.838,0,284.019,0
	C274.151,0,264.716,1.825,256,5.134C247.285,1.825,237.85,0,227.982,0c-43.83,0-79.481,35.662-79.481,79.492h19.702L145.672,232.145
	z"/>
<path style="fill:#EDA27A;" d="M406.059,96.094c-4.72-0.512-8.922,2.879-9.436,7.576c-2.638,24.135-14.517,45.798-33.448,60.997
	s-42.645,22.123-66.784,19.479H215.61c-49.818,5.45-94.785-30.656-100.232-80.477c-0.513-4.697-4.739-8.077-9.436-7.576
	c-4.698,0.513-8.09,4.738-7.576,9.436c6.037,55.233,52.945,96.276,107.285,96.274l100.823,0.008
	c24.477,0,48.052-8.255,67.413-23.801c22.496-18.061,36.611-43.803,39.746-72.48C414.148,100.831,410.756,96.607,406.059,96.094z"/>
<path style="fill:#733B59;" d="M304.018,192.65v73.72L256,289.186l-48.017-22.816v-73.72c0-10.575,8.647-19.211,19.211-19.211
	h57.611C295.37,173.439,304.018,182.075,304.018,192.65z"/>
<polygon style="fill:#EDA27A;" points="304.018,296.955 256,319.772 207.983,296.955 207.983,266.37 304.018,266.37 "/>
<rect x="206.512" y="45.633" style="fill:#39C8C6;" width="98.978" height="33.529"/>
<path style="fill:#EDA27A;" d="M206.509,79.158V95.13c0,27.34,22.16,49.483,49.483,49.483c27.34,0,49.501-22.142,49.501-49.483
	V79.158H206.509z"/>
<path style="fill:#76DEDD;" d="M207.98,304.096c0,26.521,21.5,48.021,48.021,48.021s48.021-21.5,48.021-48.021l-0.003-7.14h-96.034
	L207.98,304.096z"/>
<rect x="206.512" y="45.628" style="fill:#AB899B;" width="98.989" height="33.53"/>
<g>
</g>
<g>
</g>
<g>
</g>
<g>
</g>
<g>
</g>
<g>
</g>
<g>
</g>
<g>
</g>
<g>
</g>
<g>
</g>
<g>
</g>
<g>
</g>
<g>
</g>
<g>
</g>
<g>
</g>
</svg>
