<?xml version="1.0"?>
<svg xmlns="http://www.w3.org/2000/svg" xmlns:xlink="http://www.w3.org/1999/xlink" version="1.1" id="Capa_1" x="0px" y="0px" width="512px" height="512px" viewBox="0 0 58.467 58.467" style="enable-background:new 0 0 58.467 58.467;" xml:space="preserve" class=""><g><g>
	<g>
		<path d="M49.069,5.512h-5.812V2.337C43.258,1.046,42.21,0,40.919,0s-2.336,1.047-2.336,2.337v3.175h-3.116V2.337    C35.467,1.046,34.421,0,33.13,0s-2.338,1.047-2.338,2.337v3.175h-3.116V2.337C27.676,1.046,26.63,0,25.34,0    c-1.291,0-2.338,1.047-2.338,2.337v3.175h-3.116V2.337C19.886,1.046,18.839,0,17.549,0c-1.291,0-2.337,1.047-2.337,2.337v3.175    H9.398c-1.291,0-2.337,1.047-2.337,2.337V56.13c0,1.291,1.046,2.337,2.337,2.337h39.669c1.291,0,2.338-1.046,2.338-2.337V7.849    C51.407,6.559,50.359,5.512,49.069,5.512z M46.732,53.793H11.737V10.187h3.476v0.779c0,1.291,1.046,2.337,2.337,2.337    s2.337-1.047,2.337-2.337v-0.779h3.116v0.779c0,1.291,1.047,2.337,2.338,2.337s2.336-1.047,2.336-2.337v-0.779h3.117v0.779    c0,1.291,1.046,2.337,2.336,2.337c1.291,0,2.338-1.047,2.338-2.337v-0.779h3.115v0.779c0,1.291,1.047,2.337,2.338,2.337    s2.338-1.047,2.338-2.337v-0.779h3.475L46.732,53.793L46.732,53.793z" data-original="#000000" class="active-path" data-old_color="#696e6c" fill="#696e6c"/>
		<path d="M40.919,19.925h-23.37c-1.291,0-2.337,1.046-2.337,2.337c0,1.29,1.046,2.337,2.337,2.337h23.37    c1.291,0,2.339-1.047,2.339-2.337C43.258,20.971,42.21,19.925,40.919,19.925z" data-original="#000000" class="active-path" data-old_color="#696e6c" fill="#696e6c"/>
		<path d="M40.919,27.715h-23.37c-1.291,0-2.337,1.047-2.337,2.337c0,1.29,1.046,2.337,2.337,2.337h23.37    c1.291,0,2.339-1.047,2.339-2.337C43.258,28.762,42.21,27.715,40.919,27.715z" data-original="#000000" class="active-path" data-old_color="#696e6c" fill="#696e6c"/>
		<path d="M40.919,35.505h-23.37c-1.291,0-2.337,1.047-2.337,2.337s1.046,2.338,2.337,2.338h23.37c1.291,0,2.339-1.048,2.339-2.338    S42.21,35.505,40.919,35.505z" data-original="#000000" class="active-path" data-old_color="#696e6c" fill="#696e6c"/>
		<path d="M29.234,43.296H17.549c-1.291,0-2.337,1.047-2.337,2.337c0,1.291,1.046,2.338,2.337,2.338h11.686    c1.291,0,2.337-1.048,2.337-2.338S30.525,43.296,29.234,43.296z" data-original="#000000" class="active-path" data-old_color="#696e6c" fill="#696e6c"/>
	</g>
</g></g> </svg>
