<?xml version="1.0" encoding="iso-8859-1"?>
<!-- Generator: Adobe Illustrator 19.0.0, SVG Export Plug-In . SVG Version: 6.00 Build 0)  -->
<svg version="1.1" id="Capa_1" xmlns="http://www.w3.org/2000/svg" xmlns:xlink="http://www.w3.org/1999/xlink" x="0px" y="0px"
	 viewBox="0 0 512 512" style="enable-background:new 0 0 512 512;" xml:space="preserve">
<path style="fill:#FFA754;" d="M260.82,327.294h-30.446c-4.204,0-7.611-3.407-7.611-7.612s3.408-7.611,7.611-7.611h30.446
	c4.205,0,7.611,3.407,7.611,7.611S265.025,327.294,260.82,327.294z"/>
<polygon style="fill:#E18F4E;" points="20.297,0 81.189,144.618 199.928,144.618 260.82,0 "/>
<polygon style="fill:#C27749;" points="199.928,144.618 81.189,144.618 20.297,289.237 260.82,289.237 "/>
<polygon style="fill:#FFA754;" points="111.635,91.338 20.297,0 20.297,289.237 111.635,197.899 "/>
<polygon style="fill:#A45E43;" points="169.482,91.338 169.482,197.899 260.82,289.237 260.82,0 "/>
<polygon style="fill:#49C9FF;" points="186.228,30.446 159.334,144.618 201.451,258.791 230.374,258.791 230.374,30.446 "/>
<polygon style="fill:#7DD9FF;" points="50.743,30.446 50.743,258.791 79.667,258.791 186.228,228.345 186.228,30.446 "/>
<rect x="140.559" y="116.71" style="fill:#85453D;" width="45.669" height="96.412"/>
<rect x="94.89" y="116.71" style="fill:#A45E43;" width="60.892" height="96.412"/>
<path style="fill:#116F97;" d="M181.153,192.825h-25.372l-30.446,30.449l30.446,35.517h45.669v-45.669
	C201.451,201.912,192.364,192.825,181.153,192.825z"/>
<path style="fill:#FFF0D3;" d="M99.964,192.825c-11.21,0-20.297,9.087-20.297,20.297v10.149l38.057,20.297l38.057-20.297v-30.446
	H99.964z"/>
<rect x="79.667" y="223.271" style="fill:#85453D;" width="76.115" height="35.52"/>
<path style="fill:#FFE2A8;" d="M140.559,71.041v91.338c25.222,0,45.669-20.447,45.669-45.669L140.559,71.041z"/>
<path style="fill:#FFF0D3;" d="M140.559,71.041L94.89,116.71c0,25.222,20.447,45.669,45.669,45.669
	c8.407,0,15.223-20.447,15.223-45.669S148.966,71.041,140.559,71.041z"/>
<path style="fill:#A45E43;" d="M140.559,71.041c-25.222,0-45.669,20.447-45.669,45.669
	C120.112,116.71,140.559,96.263,140.559,71.041z"/>
<path style="fill:#85453D;" d="M186.228,116.71c0-25.222-20.447-45.669-45.669-45.669C140.559,96.263,161.005,116.71,186.228,116.71
	z"/>
<path style="fill:#FFD9D4;" d="M349.621,289.241v199.51l-25.242,8.413c-3.988,1.329-6.143,5.64-4.814,9.628
	c1.329,3.988,5.638,6.143,9.628,4.815l30.446-10.149c3.108-1.036,5.204-3.945,5.204-7.221V289.241H349.621z"/>
<g>
	<path style="fill:#FFB4A9;" d="M410.513,289.241v199.51l-25.242,8.413c-3.988,1.329-6.143,5.64-4.814,9.628
		s5.638,6.143,9.628,4.815l30.446-10.149c3.108-1.036,5.204-3.945,5.204-7.221V289.241H410.513z"/>
	<path style="fill:#FFB4A9;" d="M433.348,180.139h-45.669v15.223h45.669c23.783,0,43.132,19.348,43.132,43.132
		s-19.348,43.132-43.132,43.132h-45.669v15.223h45.669c32.177,0,58.355-26.177,58.355-58.355S465.525,180.139,433.348,180.139z"/>
</g>
<path style="fill:#FFD9D4;" d="M342.01,180.139h45.669v15.223H342.01c-23.783,0-43.132,19.348-43.132,43.132
	s19.348,43.132,43.132,43.132h45.669v15.223H342.01c-32.177,0-58.355-26.177-58.355-58.355S309.832,180.139,342.01,180.139z"/>
<path style="fill:#CF301B;" d="M413.05,167.453h-30.446v121.784h50.743V187.75C433.348,176.54,424.261,167.453,413.05,167.453z"/>
<path style="fill:#FF4128;" d="M382.604,167.453h-20.297c-11.21,0-20.297,9.087-20.297,20.297v101.487h60.892V187.75
	C402.902,176.54,393.815,167.453,382.604,167.453z"/>
<path style="fill:#CF301B;" d="M433.348,258.791h-30.446l15.223,91.338h30.446v-51.083
	C448.571,283.608,442.815,269.523,433.348,258.791z"/>
<path style="fill:#FF4128;" d="M402.902,258.791H342.01c-9.468,10.732-15.223,24.818-15.223,40.255v51.083h91.338v-51.083
	C418.125,283.608,412.369,269.523,402.902,258.791z"/>
<g>
	<path style="fill:#FFF0D3;" d="M382.3,222.946c1.411-1.411,3.379-2.223,5.379-2.223c1.999,0,3.968,0.812,5.379,2.223
		c1.421,1.421,2.233,3.38,2.233,5.389c0,1.999-0.812,3.958-2.233,5.379c-1.411,1.421-3.379,2.233-5.379,2.233
		c-1.999,0-3.957-0.812-5.379-2.233c-1.421-1.421-2.233-3.38-2.233-5.379C380.067,226.325,380.879,224.367,382.3,222.946z"/>
	<path style="fill:#FFF0D3;" d="M382.3,192.5c1.411-1.411,3.379-2.223,5.379-2.223c1.999,0,3.968,0.812,5.379,2.223
		c1.421,1.421,2.233,3.38,2.233,5.389c0,1.999-0.812,3.958-2.233,5.379c-1.411,1.421-3.379,2.233-5.379,2.233
		c-1.999,0-3.957-0.812-5.379-2.233c-1.421-1.421-2.233-3.38-2.233-5.379C380.067,195.879,380.879,193.921,382.3,192.5z"/>
</g>
<path style="fill:#FFB4A9;" d="M401.98,75.655l-14.301,61.352c25.222,0,45.669-20.447,45.669-45.669L401.98,75.655z"/>
<path style="fill:#FFD9D4;" d="M402.902,91.338c0-5.51-0.326-10.792-0.922-15.683l-41.706-20.851
	c-11.089,8.333-18.265,21.595-18.265,36.534c0,25.222,20.447,45.669,45.669,45.669C396.086,137.007,402.902,116.56,402.902,91.338z"
	/>
<circle style="fill:#FF8646;" cx="387.679" cy="22.834" r="22.834"/>
<path style="fill:#FF6337;" d="M387.679,45.669l15.12,40.424c9.553,3.391,19.833,5.245,30.548,5.245
	C433.348,66.115,412.901,45.669,387.679,45.669z"/>
<path style="fill:#FF8646;" d="M387.679,45.669c-10.283,0-19.771,3.4-27.404,9.136c10.689,14.228,25.439,25.226,42.524,31.289
	C401.931,63.343,395.494,45.669,387.679,45.669z"/>
<g>
</g>
<g>
</g>
<g>
</g>
<g>
</g>
<g>
</g>
<g>
</g>
<g>
</g>
<g>
</g>
<g>
</g>
<g>
</g>
<g>
</g>
<g>
</g>
<g>
</g>
<g>
</g>
<g>
</g>
</svg>
