<?xml version="1.0" encoding="iso-8859-1"?>
<!-- Generator: Adobe Illustrator 19.0.0, SVG Export Plug-In . SVG Version: 6.00 Build 0)  -->
<svg version="1.1" id="Capa_1" xmlns="http://www.w3.org/2000/svg" xmlns:xlink="http://www.w3.org/1999/xlink" x="0px" y="0px"
	 viewBox="0 0 512 512" style="enable-background:new 0 0 512 512;" xml:space="preserve">
<path style="fill:#4A5058;" d="M262.919,80.351c-4.142,0-7.5-3.358-7.5-7.5V7.5c0-4.142,3.358-7.5,7.5-7.5
	c4.143,0,7.5,3.358,7.5,7.5v65.351C270.419,76.993,267.062,80.351,262.919,80.351z"/>
<circle style="fill:#EEEDED;" cx="262.92" cy="278.62" r="205.77"/>
<path style="fill:#56B4DD;" d="M325.033,420.513h86.916c-37.486,39.348-90.389,63.867-149.03,63.867
	C282.898,467.406,305.577,446.764,325.033,420.513z"/>
<path style="fill:#9DD3EC;" d="M200.805,420.513h124.228c-19.456,26.25-42.135,46.893-62.114,63.867
	C242.94,467.406,220.262,446.764,200.805,420.513z"/>
<path style="opacity:0.1;enable-background:new    ;" d="M159.988,333.053h205.863c-7.915,34.808-23.016,63.475-40.818,87.46
	H200.805C183.004,396.528,167.903,367.861,159.988,333.053z"/>
<path style="fill:#56B4DD;" d="M200.805,420.513H113.89c-23.104-24.268-40.35-54.188-49.451-87.46h95.55
	C167.903,367.861,183.004,396.528,200.805,420.513z"/>
<g>
	<path style="fill:#9DD3EC;" d="M64.438,224.177h95.55c-3.8,16.68-5.945,34.775-5.945,54.438s2.145,37.758,5.945,54.438h-95.55
		c-4.747-17.333-7.284-35.592-7.284-54.438C57.154,259.769,59.691,241.51,64.438,224.177z"/>
	<path style="fill:#9DD3EC;" d="M365.851,224.177H159.988c7.915-34.808,23.016-63.475,40.818-87.46h124.228
		C342.834,160.702,357.935,189.37,365.851,224.177z"/>
</g>
<path style="fill:#56B4DD;" d="M262.919,72.85c19.99,16.974,42.658,37.617,62.114,63.867H200.805
	C220.262,110.467,242.94,89.824,262.919,72.85z"/>
<path style="fill:#9DD3EC;" d="M411.949,136.717h-86.916c-19.456-26.25-42.124-46.893-62.114-63.867
	C321.56,72.85,374.463,97.369,411.949,136.717z"/>
<path style="opacity:0.1;enable-background:new    ;" d="M113.89,136.717h86.916c19.456-26.25,42.124-46.893,62.114-63.867
	C204.279,72.85,151.376,97.369,113.89,136.717z"/>
<path style="fill:#56B4DD;" d="M461.4,224.177c4.747,17.333,7.284,35.592,7.284,54.438c0,18.846-2.537,37.105-7.284,54.438h-95.55
	c3.8-16.68,5.945-34.775,5.945-54.438s-2.145-37.758-5.945-54.438L461.4,224.177L461.4,224.177z"/>
<g>
	<path style="fill:#4A5058;" d="M191.568,287.49c-4.143,0-7.5-3.358-7.5-7.5v-11.844c0-4.142,3.357-7.5,7.5-7.5s7.5,3.358,7.5,7.5
		v11.844C199.068,284.132,195.711,287.49,191.568,287.49z"/>
	<path style="fill:#4A5058;" d="M334.27,287.49c-4.143,0-7.5-3.358-7.5-7.5v-11.844c0-4.142,3.357-7.5,7.5-7.5s7.5,3.358,7.5,7.5
		v11.844C341.77,284.132,338.412,287.49,334.27,287.49z"/>
	<path style="fill:#4A5058;" d="M262.919,296.585c-9.377,0-18.294-4.062-24.466-11.143c-2.722-3.123-2.396-7.86,0.727-10.582
		c3.122-2.722,7.86-2.397,10.582,0.726c3.322,3.812,8.117,5.998,13.157,5.998s9.835-2.186,13.157-5.998
		c2.723-3.123,7.459-3.448,10.582-0.726c3.123,2.721,3.448,7.459,0.727,10.582C281.213,292.523,272.296,296.585,262.919,296.585z"/>
</g>
<path style="opacity:0.1;enable-background:new    ;" d="M283.633,463.668c-113.641,0-205.766-92.124-205.766-205.765
	c0-51.549,18.957-98.669,50.278-134.773c-43.488,37.728-70.992,93.395-70.992,155.487c0,113.641,92.124,205.766,205.766,205.766
	c62.092,0,117.759-27.504,155.487-70.992C382.302,444.711,335.182,463.668,283.633,463.668z"/>
<g>
	<path style="fill:#F5A85B;" d="M439.904,112.491c-2.036-14.618-6.657-27.017-10.172-34.838c-1.739-3.869-7.243-3.869-8.982,0
		c-3.514,7.822-8.135,20.22-10.172,34.838c-14.618,2.036-27.017,6.658-34.838,10.172c-3.87,1.738-3.87,7.243,0,8.982
		c7.822,3.514,20.22,8.135,34.838,10.172c2.036,14.618,6.657,27.016,10.172,34.838c1.738,3.87,7.243,3.87,8.982,0
		c3.514-7.822,8.135-20.219,10.172-34.838c14.618-2.036,27.017-6.658,34.838-10.172c3.87-1.739,3.869-7.243,0-8.982
		C466.92,119.149,454.522,114.528,439.904,112.491z"/>
	<path style="fill:#F5A85B;" d="M75.834,205.745c-2.036-14.618-6.657-27.016-10.172-34.838c-1.739-3.87-7.243-3.87-8.982,0
		c-3.514,7.822-8.135,20.22-10.172,34.838c-14.618,2.036-27.017,6.658-34.838,10.172c-3.87,1.739-3.87,7.243,0,8.982
		c7.822,3.514,20.22,8.135,34.838,10.172c2.036,14.618,6.657,27.016,10.172,34.838c1.739,3.87,7.243,3.87,8.982,0
		c3.514-7.822,8.135-20.22,10.172-34.838c14.618-2.036,27.017-6.658,34.838-10.172c3.869-1.739,3.869-7.243,0-8.982
		C102.851,212.402,90.453,207.781,75.834,205.745z"/>
	<path style="fill:#F5A85B;" d="M470.361,453.588c-1.773-12.732-5.798-23.53-8.859-30.343c-1.514-3.37-6.309-3.37-7.823,0
		c-3.061,6.812-7.086,17.611-8.859,30.343c-12.732,1.774-23.531,5.799-30.343,8.859c-3.37,1.514-3.37,6.309,0,7.823
		c6.812,3.061,17.611,7.086,30.343,8.859c1.773,12.732,5.798,23.53,8.859,30.343c1.514,3.37,6.309,3.37,7.823,0
		c3.061-6.812,7.086-17.611,8.859-30.343c12.732-1.774,23.531-5.798,30.343-8.859c3.37-1.514,3.37-6.309,0-7.823
		C493.891,459.387,483.093,455.362,470.361,453.588z"/>
</g>
<g>
</g>
<g>
</g>
<g>
</g>
<g>
</g>
<g>
</g>
<g>
</g>
<g>
</g>
<g>
</g>
<g>
</g>
<g>
</g>
<g>
</g>
<g>
</g>
<g>
</g>
<g>
</g>
<g>
</g>
</svg>
