<?xml version="1.0" encoding="iso-8859-1"?>
<!-- Generator: Adobe Illustrator 19.0.0, SVG Export Plug-In . SVG Version: 6.00 Build 0)  -->
<svg version="1.1" id="Capa_1" xmlns="http://www.w3.org/2000/svg" xmlns:xlink="http://www.w3.org/1999/xlink" x="0px" y="0px"
	 viewBox="0 0 480.01 480.01" style="enable-background:new 0 0 480.01 480.01;" xml:space="preserve">
<g>
	<g>
		<path d="M476.337,50.597l-20.328-13.088V16.005h16c4.418,0,8-3.582,8-8s-3.582-8-8-8h-464c-4.418,0-8,3.582-8,8s3.582,8,8,8h16
			v21.504L3.673,50.597c-3.716,2.39-4.79,7.34-2.4,11.056l26.08,40.504c-4.363,11.757-2.959,24.88,3.792,35.448l4.328,6.728
			c2.39,3.716,7.34,4.79,11.056,2.4l53.816-34.648c3.716-2.39,4.79-7.34,2.4-11.056l-4.336-6.728
			c-6.827-10.507-18.182-17.208-30.68-18.104l-26.12-40.52c-0.446-0.637-0.985-1.203-1.6-1.68V16.005h400v17.992
			c-0.615,0.477-1.154,1.043-1.6,1.68l-26.08,40.496c-12.512,0.884-23.885,7.586-30.72,18.104l-4.336,6.728
			c-2.39,3.716-1.316,8.666,2.4,11.056l53.816,34.648c3.716,2.39,8.666,1.316,11.056-2.4l4.328-6.728
			c6.74-10.563,8.141-23.675,3.784-35.424l26.08-40.504C481.127,57.937,480.052,52.987,476.337,50.597z M69.561,93.821
			c0.372-0.3,0.715-0.635,1.024-1c5.925,1.368,11.081,4.996,14.368,10.112l-40.36,25.992c-3.265-5.089-4.44-11.242-3.28-17.176
			c0.468-0.161,0.921-0.365,1.352-0.608L69.561,93.821z M54.177,84.693l-13.456,8.664l-21.656-33.6l13.456-8.696L54.177,84.693z
			 M435.425,128.925l-40.36-25.992c3.3-5.114,8.467-8.737,14.4-10.096c0.306,0.358,0.643,0.687,1.008,0.984l26.896,17.32
			c0.431,0.243,0.884,0.447,1.352,0.608C439.876,117.685,438.695,123.838,435.425,128.925z M439.297,93.357l-13.456-8.664
			l21.656-33.6l13.456,8.664L439.297,93.357z"/>
	</g>
</g>
<g>
	<g>
		<path d="M236.009,368.005c-101.376,0-204,19.2-204,56s102.624,56,204,56s204-19.2,204-56S337.385,368.005,236.009,368.005z
			 M236.009,464.005c-114.76,0-188-23.688-188-40s73.24-40,188-40s188,23.688,188,40S350.769,464.005,236.009,464.005z"/>
	</g>
</g>
<g>
	<g>
		<path d="M64.009,375.701l-8-208c-0.058-4.316-3.603-7.769-7.919-7.711c-0.131,0.002-0.262,0.007-0.393,0.015
			c-4.415,0.169-7.857,3.885-7.688,8.3c0,0.001,0,0.003,0,0.004l8,208c0.164,4.299,3.698,7.699,8,7.696h0.312
			c4.415-0.169,7.857-3.885,7.688-8.3C64.009,375.703,64.009,375.702,64.009,375.701z"/>
	</g>
</g>
<g>
	<g>
		<path d="M389.393,354.085l-139.2-126.528l115.112-101.552c3.314-2.925,3.629-7.982,0.704-11.296s-7.982-3.629-11.296-0.704
			l-116.416,102.72l-112.904-102.64c-3.27-2.974-8.331-2.734-11.304,0.536c-2.974,3.27-2.734,8.331,0.536,11.304l111.6,101.456
			L82.713,354.005c-3.31,2.923-3.625,7.976-0.704,11.288c2.92,3.316,7.975,3.637,11.291,0.716c0.002-0.001,0.003-0.003,0.005-0.004
			l144.8-127.792l140.52,127.712c3.27,2.974,8.331,2.734,11.304-0.536C392.902,362.119,392.662,357.058,389.393,354.085z"/>
	</g>
</g>
<g>
	<g>
		<path d="M432.649,160.005c-4.418-0.353-8.287,2.942-8.64,7.36l-16,200c-0.366,4.403,2.906,8.269,7.309,8.636
			c0.017,0.001,0.034,0.003,0.051,0.004c0.219,0,0.432,0,0.64,0c4.18,0.013,7.666-3.193,8-7.36l16-200
			C440.362,164.227,437.067,160.358,432.649,160.005z"/>
	</g>
</g>
<g>
	<g>
		<path d="M280.009,320.005h-8v-8c0-4.418-3.582-8-8-8s-8,3.582-8,8v8h-8c-4.418,0-8,3.582-8,8s3.582,8,8,8h8v8c0,4.418,3.582,8,8,8
			s8-3.582,8-8v-8h8c4.418,0,8-3.582,8-8S284.427,320.005,280.009,320.005z"/>
	</g>
</g>
<g>
	<g>
		<path d="M400.009,208.005h-8v-8c0-4.418-3.582-8-8-8s-8,3.582-8,8v8h-8c-4.418,0-8,3.582-8,8s3.582,8,8,8h8v8c0,4.418,3.582,8,8,8
			s8-3.582,8-8v-8h8c4.418,0,8-3.582,8-8S404.427,208.005,400.009,208.005z"/>
	</g>
</g>
<g>
	<g>
		<path d="M168.009,216.005h-8v-8c0-4.418-3.582-8-8-8s-8,3.582-8,8v8h-8c-4.418,0-8,3.582-8,8s3.582,8,8,8h8v8c0,4.418,3.582,8,8,8
			s8-3.582,8-8v-8h8c4.418,0,8-3.582,8-8S172.427,216.005,168.009,216.005z"/>
	</g>
</g>
<g>
	<g>
		<path d="M20.009,360.005c-6.627,0-12,5.373-12,12c0,6.627,5.373,12,12,12s12-5.373,12-12
			C32.009,365.377,26.636,360.005,20.009,360.005z M20.009,376.005c-2.209,0-4-1.791-4-4c0-2.209,1.791-4,4-4s4,1.791,4,4
			C24.009,374.214,22.218,376.005,20.009,376.005z"/>
	</g>
</g>
<g>
	<g>
		<path d="M452.009,328.005c-6.627,0-12,5.373-12,12c0,6.627,5.373,12,12,12c6.627,0,12-5.373,12-12
			C464.009,333.377,458.636,328.005,452.009,328.005z M452.009,344.005c-2.209,0-4-1.791-4-4c0-2.209,1.791-4,4-4
			c2.209,0,4,1.791,4,4C456.009,342.214,454.218,344.005,452.009,344.005z"/>
	</g>
</g>
<g>
	<g>
		<path d="M204.009,88.005c-6.627,0-12,5.373-12,12s5.373,12,12,12c6.627,0,12-5.373,12-12S210.636,88.005,204.009,88.005z
			 M204.009,104.005c-2.209,0-4-1.791-4-4c0-2.209,1.791-4,4-4c2.209,0,4,1.791,4,4
			C208.009,102.214,206.218,104.005,204.009,104.005z"/>
	</g>
</g>
<g>
</g>
<g>
</g>
<g>
</g>
<g>
</g>
<g>
</g>
<g>
</g>
<g>
</g>
<g>
</g>
<g>
</g>
<g>
</g>
<g>
</g>
<g>
</g>
<g>
</g>
<g>
</g>
<g>
</g>
</svg>
