<?xml version="1.0" encoding="iso-8859-1"?>
<!-- Generator: Adobe Illustrator 19.0.0, SVG Export Plug-In . SVG Version: 6.00 Build 0)  -->
<svg version="1.1" id="Capa_1" xmlns="http://www.w3.org/2000/svg" xmlns:xlink="http://www.w3.org/1999/xlink" x="0px" y="0px"
	 viewBox="0 0 512.003 512.003" style="enable-background:new 0 0 512.003 512.003;" xml:space="preserve">
<g>
	<g>
		<path d="M493.27,181.643c13.601-21.116,20.134-46.184,18.481-71.504c-1.861-28.528-14.031-55.384-34.268-75.62
			C455.223,12.26,425.627,0,394.147,0c-11.344,0-22.625,1.678-33.441,4.877c-0.717,0.137-1.418,0.36-2.096,0.654
			c-9.943,3.142-19.465,7.574-28.24,13.212l-0.487-0.487c-4.711-4.71-10.988-7.305-17.678-7.305c-6.689,0-12.967,2.595-17.678,7.305
			c-9.747,9.748-9.747,25.608,0,35.355l0.474,0.474c-9.544,14.813-15.639,31.612-17.82,49.195L86.187,322.258
			c-19.205,22.018-21.104,52.276-5.823,74.025L2.93,473.718c-3.905,3.905-3.905,10.237,0,14.143l21.213,21.213
			c1.953,1.952,4.512,2.929,7.071,2.929c2.559,0,5.118-0.977,7.071-2.929l77.438-77.438c9.393,6.591,20.593,10.155,32.383,10.155
			c15.04,0,29.828-5.674,41.64-15.976l218.977-190.992c17.582-2.182,34.382-8.276,49.194-17.821l0.475,0.475
			c4.711,4.71,10.988,7.305,17.678,7.305c6.689,0,12.967-2.595,17.678-7.306c9.746-9.747,9.746-25.607,0-35.355L493.27,181.643z
			 M31.214,487.859l-7.07-7.07L93.9,411.032l7.071,7.071L31.214,487.859z M375.635,237.143l-22.411-22.411
			c-3.906-3.904-10.236-3.904-14.143,0c-3.905,3.905-3.905,10.237,0,14.143l21.446,21.445L176.599,410.743
			c-8.168,7.124-18.287,11.048-28.493,11.048c-9.919,0-18.822-3.659-25.745-10.583l-21.566-21.566
			c-14.264-14.264-14.063-37.58,0.465-54.237l186.003-213.256l102.593,102.593L375.635,237.143z M408.135,214.736L297.267,103.868
			c1.792-12.473,5.963-24.433,12.267-35.25l133.85,133.851C432.568,208.773,420.608,212.944,408.135,214.736z M479.605,203.334
			c-1.259,1.259-2.755,1.446-3.535,1.446c-0.78,0-2.276-0.188-3.535-1.446L308.669,39.469c-1.917-1.916-1.917-5.154,0-7.07
			c1.259-1.259,2.755-1.446,3.535-1.446c0.78,0,2.276,0.188,3.535,1.446l6.395,6.395L473.21,189.87
			c0.003,0.003,0.007,0.006,0.01,0.009l6.385,6.385C481.521,198.18,481.521,201.418,479.605,203.334z M478.731,167.105
			L344.885,33.259c4.811-2.816,9.828-5.19,15.006-7.123l24.647,24.647c1.953,1.952,4.512,2.929,7.071,2.929
			c2.56,0,5.118-0.977,7.071-2.929c3.905-3.905,3.905-10.237,0-14.143l-15.974-15.974c3.77-0.435,7.585-0.667,11.439-0.667
			c26.138,0,50.712,10.179,69.194,28.662C494.916,80.236,500.72,129.33,478.731,167.105z"/>
	</g>
</g>
<g>
	<g>
		<path d="M286.513,229.952c-0.021-0.026-0.041-0.054-0.063-0.08c-0.247-0.303-0.506-0.599-0.766-0.893
			c-0.08-0.091-0.155-0.185-0.237-0.274c-0.21-0.232-0.431-0.456-0.648-0.683c-0.134-0.139-0.262-0.282-0.398-0.419
			c-0.41-0.41-0.833-0.803-1.263-1.185c-5.5-4.912-12.517-7.602-19.95-7.602c-7.498,0-14.574,2.732-20.095,7.725
			c-0.38,0.344-0.754,0.697-1.119,1.063l-35.355,35.356c-11.696,11.697-11.695,30.729,0.001,42.426
			c5.65,5.651,13.184,8.764,21.213,8.764c8.028,0,15.561-3.112,21.213-8.763l35.355-35.356c0.144-0.144,0.276-0.293,0.416-0.438
			c0.212-0.22,0.426-0.437,0.63-0.662c0.089-0.101,0.171-0.203,0.257-0.301c0.253-0.286,0.504-0.573,0.745-0.867
			c0.028-0.035,0.055-0.071,0.083-0.107c4.311-5.318,6.656-11.898,6.656-18.84C293.188,241.864,290.835,235.275,286.513,229.952z
			 M234.903,291.242c-1.873,1.873-4.384,2.905-7.07,2.905c-2.686,0-5.197-1.032-7.071-2.906c-3.898-3.898-3.898-10.243,0-14.142
			l15.346-15.346c1.451,3.031,3.421,5.827,5.867,8.274c2.446,2.447,5.243,4.416,8.274,5.867L234.903,291.242z M270.985,255.071
			c-0.016,0.02-0.028,0.04-0.044,0.059c-0.212,0.261-0.44,0.514-0.683,0.756l-0.011,0.011c-1.887,1.88-4.393,2.917-7.059,2.917
			c-2.671,0-5.183-1.04-7.072-2.929c-1.888-1.889-2.928-4.399-2.928-7.07c0-2.671,1.04-5.182,2.929-7.07
			c0.185-0.186,0.381-0.355,0.578-0.524c1.798-1.536,4.072-2.381,6.493-2.381c2.687,0,5.197,1.032,7.07,2.905
			c0.243,0.243,0.471,0.496,0.684,0.757c0.01,0.012,0.017,0.024,0.027,0.036C273.911,246.181,273.916,251.423,270.985,255.071z"/>
	</g>
</g>
<g>
	<g>
		<path d="M419.183,57.146l-0.167-0.168c-3.895-3.916-10.225-3.935-14.143-0.041c-3.916,3.894-3.935,10.226-0.041,14.143
			l0.167,0.168c1.955,1.966,4.522,2.949,7.092,2.949c2.55,0,5.1-0.969,7.051-2.908C423.058,67.395,423.077,61.063,419.183,57.146z"
			/>
	</g>
</g>
<g>
	<g>
		<path d="M332.888,194.397l-0.168-0.167c-3.917-3.892-10.248-3.874-14.143,0.041c-3.894,3.917-3.875,10.249,0.041,14.143
			l0.168,0.167c1.951,1.939,4.501,2.908,7.051,2.908c2.568,0,5.138-0.984,7.092-2.949
			C336.822,204.623,336.804,198.291,332.888,194.397z"/>
	</g>
</g>
<g>
</g>
<g>
</g>
<g>
</g>
<g>
</g>
<g>
</g>
<g>
</g>
<g>
</g>
<g>
</g>
<g>
</g>
<g>
</g>
<g>
</g>
<g>
</g>
<g>
</g>
<g>
</g>
<g>
</g>
</svg>
