<?xml version="1.0" encoding="iso-8859-1"?>
<!-- Generator: Adobe Illustrator 19.0.0, SVG Export Plug-In . SVG Version: 6.00 Build 0)  -->
<svg version="1.1" id="Capa_1" xmlns="http://www.w3.org/2000/svg" xmlns:xlink="http://www.w3.org/1999/xlink" x="0px" y="0px"
	 viewBox="0 0 511.998 511.998" style="enable-background:new 0 0 511.998 511.998;" xml:space="preserve">
<g>
	<g>
		<path d="M436.063,1.914c-2.587-1.881-5.92-2.408-8.965-1.423L164.427,85.68c-4.123,1.337-6.915,5.178-6.915,9.512l-0.002,225.193
			c-2.501-0.272-5.043-0.408-7.617-0.408c-13.631,0-27.388,3.783-39.784,10.939c-16.075,9.28-28.249,23.261-34.279,39.366
			c-6.286,16.788-5.226,33.867,2.987,48.091c9.967,17.264,29.278,27.571,51.656,27.572c0.002,0,0.002,0,0.004,0
			c13.588,0,27.325-3.784,39.726-10.943c23.227-13.41,37.848-36.299,38.273-59.842c0.014-0.213,0.021-0.428,0.021-0.645V179.238
			l180.705-58.606l0.005,111.805c-2.502-0.271-5.044-0.407-7.618-0.407c-13.63,0-27.387,3.782-39.782,10.938
			c-33.822,19.528-47.86,58.76-31.293,87.456c9.969,17.265,29.28,27.572,51.658,27.572c13.591,0,27.329-3.784,39.729-10.943
			c23.411-13.517,38.08-36.662,38.283-60.487V10.003C440.183,6.803,438.651,3.796,436.063,1.914z M391.901,329.733
			c-9.364,5.406-19.645,8.265-29.73,8.265c-15.148,0-27.984-6.569-34.337-17.573c-11.054-19.146-0.299-46.123,23.973-60.137
			c9.359-5.403,19.657-8.26,29.782-8.26c5.117,0,10.008,0.744,14.537,2.212c3.043,0.986,6.375,0.456,8.963-1.427
			c2.587-1.882,4.118-4.888,4.118-8.087L409.2,106.876c0-3.2-1.532-6.207-4.12-8.089c-2.588-1.881-5.921-2.408-8.965-1.423
			l-200.703,65.092c-4.123,1.337-6.915,5.178-6.915,9.512V374.01c-0.007,0.14-0.011,0.28-0.012,0.421
			c-0.139,16.436-11.241,33.412-28.282,43.251c-9.365,5.406-19.643,8.264-29.726,8.264c0,0-0.002,0-0.003,0
			c-15.149-0.001-27.985-6.569-34.337-17.572c-5.169-8.952-5.729-19.989-1.577-31.078c4.408-11.771,13.481-22.092,25.548-29.059
			c9.36-5.403,19.66-8.26,29.785-8.26c5.117,0,10.007,0.744,14.536,2.211c3.046,0.987,6.376,0.456,8.962-1.427
			c2.588-1.881,4.119-4.888,4.119-8.087l0.002-230.213l242.671-78.703l0.001,262.725
			C420.044,302.918,408.942,319.894,391.901,329.733z"/>
	</g>
</g>
<g>
	<g>
		<path d="M511.344,431.763c-0.004-0.017-0.006-0.032-0.01-0.048l-0.083-0.312c-0.025-0.091-0.047-0.184-0.074-0.275L492.546,361.6
			c-0.015-0.055-0.037-0.107-0.052-0.162c-0.054-0.188-0.116-0.375-0.181-0.562c-0.051-0.146-0.104-0.291-0.161-0.434
			c-0.06-0.147-0.126-0.294-0.193-0.44c-0.081-0.174-0.164-0.346-0.253-0.514c-0.028-0.053-0.049-0.107-0.078-0.159
			c-0.037-0.066-0.081-0.126-0.12-0.191c-0.103-0.177-0.21-0.35-0.323-0.518c-0.076-0.113-0.155-0.225-0.235-0.334
			c-0.111-0.151-0.224-0.299-0.343-0.443c-0.098-0.119-0.197-0.234-0.3-0.348c-0.11-0.123-0.223-0.241-0.338-0.357
			c-0.12-0.121-0.242-0.238-0.367-0.352c-0.11-0.1-0.223-0.196-0.337-0.291c-0.136-0.113-0.274-0.223-0.415-0.327
			c-0.118-0.087-0.237-0.171-0.358-0.253c-0.143-0.096-0.286-0.189-0.433-0.278c-0.134-0.081-0.27-0.157-0.407-0.232
			c-0.138-0.075-0.277-0.147-0.418-0.216c-0.157-0.076-0.316-0.145-0.477-0.214c-0.127-0.053-0.254-0.105-0.383-0.152
			c-0.181-0.068-0.363-0.129-0.548-0.186c-0.115-0.035-0.231-0.07-0.348-0.102c-0.197-0.053-0.396-0.1-0.596-0.141
			c-0.113-0.022-0.225-0.045-0.338-0.064c-0.201-0.034-0.403-0.06-0.606-0.082c-0.123-0.013-0.245-0.024-0.368-0.033
			c-0.19-0.013-0.38-0.02-0.571-0.021c-0.146-0.002-0.292,0-0.438,0.005c-0.167,0.005-0.333,0.015-0.5,0.029
			c-0.176,0.014-0.351,0.034-0.526,0.059c-0.141,0.02-0.281,0.041-0.422,0.066c-0.199,0.035-0.397,0.079-0.595,0.128
			c-0.073,0.018-0.145,0.027-0.218,0.047c-0.056,0.015-0.108,0.037-0.164,0.053c-0.185,0.054-0.369,0.114-0.553,0.179
			c-0.15,0.053-0.3,0.107-0.446,0.166c-0.142,0.058-0.283,0.121-0.423,0.186c-0.181,0.083-0.359,0.17-0.534,0.263
			c-0.049,0.026-0.101,0.046-0.149,0.073l-68.64,38.15c-0.064,0.035-0.121,0.078-0.184,0.114c-0.181,0.106-0.358,0.216-0.531,0.331
			c-0.111,0.074-0.219,0.151-0.326,0.229c-0.153,0.112-0.302,0.227-0.447,0.347c-0.119,0.098-0.235,0.197-0.349,0.3
			c-0.12,0.108-0.237,0.22-0.352,0.333c-0.125,0.123-0.245,0.249-0.362,0.379c-0.094,0.103-0.186,0.211-0.276,0.318
			c-0.119,0.145-0.235,0.29-0.345,0.439c-0.08,0.107-0.156,0.216-0.231,0.326c-0.105,0.154-0.206,0.311-0.301,0.47
			c-0.072,0.119-0.14,0.241-0.207,0.363c-0.084,0.153-0.165,0.309-0.24,0.466c-0.067,0.139-0.129,0.279-0.189,0.422
			c-0.062,0.147-0.122,0.293-0.177,0.442c-0.06,0.159-0.113,0.321-0.164,0.483c-0.043,0.139-0.085,0.275-0.121,0.415
			c-0.047,0.175-0.087,0.353-0.125,0.53c-0.028,0.135-0.054,0.27-0.077,0.404c-0.03,0.181-0.054,0.361-0.074,0.543
			c-0.016,0.143-0.029,0.287-0.038,0.431c-0.012,0.171-0.018,0.343-0.02,0.516c-0.003,0.163-0.001,0.325,0.005,0.488
			c0.005,0.152,0.014,0.305,0.027,0.458c0.015,0.188,0.036,0.375,0.062,0.562c0.019,0.132,0.039,0.264,0.063,0.395
			c0.037,0.204,0.081,0.406,0.13,0.609c0.018,0.07,0.027,0.142,0.046,0.213l14.841,55.388c-7.799,0.464-15.796,3.62-22.22,8.83
			c-7.543,6.115-11.838,14.178-11.782,22.119c0.044,6.241,2.759,11.798,7.643,15.645c4.229,3.332,9.734,5.093,15.919,5.093
			c8.412,0,17.235-3.242,24.207-8.896c7.544-6.117,11.838-14.18,11.782-22.121c-0.012-1.741-0.24-3.427-0.657-5.039
			c-0.002-0.008-0.003-0.017-0.005-0.024l-0.043-0.162c-0.04-0.148-0.076-0.297-0.119-0.444l-18.227-68.026l50.619-28.135
			l9.903,36.957c-7.799,0.464-15.796,3.62-22.221,8.83c-7.543,6.116-11.837,14.179-11.781,22.12
			c0.044,6.241,2.758,11.797,7.643,15.644c4.229,3.332,9.734,5.093,15.919,5.093c8.411,0,17.235-3.242,24.208-8.896
			c7.543-6.117,11.836-14.18,11.78-22.12C511.983,435.047,511.758,433.369,511.344,431.763z M420.6,487.569
			c-3.37,2.733-7.819,4.431-11.611,4.431c-1.86,0-3.05-0.415-3.544-0.804c-0.008-0.007-0.016-0.013-0.022-0.017
			c-0.075-0.799,0.78-3.581,4.381-6.5c3.371-2.733,7.82-4.432,11.611-4.432c1.86,0,3.05,0.415,3.544,0.805
			c0.008,0.006,0.015,0.012,0.022,0.018C425.057,481.867,424.2,484.65,420.6,487.569z M487.62,443.365
			c-3.372,2.733-7.821,4.431-11.613,4.431c-1.86,0-3.05-0.415-3.544-0.804c-0.008-0.007-0.015-0.013-0.022-0.017
			c-0.075-0.799,0.781-3.581,4.381-6.5c3.371-2.733,7.82-4.432,11.611-4.432c1.861,0,3.051,0.416,3.544,0.804
			c0.008,0.006,0.015,0.012,0.022,0.018C492.074,437.662,491.219,440.445,487.62,443.365z"/>
	</g>
</g>
<g>
	<g>
		<path d="M144.919,1.342c-4.784-2.762-10.899-1.123-13.66,3.66L82.761,89.004c-8.439-11.013-23.237-19.288-39.664-21.005
			c-2.027-0.211-4.058-0.318-6.038-0.318c-12.508,0-23.522,4.323-30.217,11.86c-5.213,5.869-7.573,13.411-6.643,21.234
			c2.214,18.637,22.785,35.202,46.831,37.715c2.027,0.211,4.059,0.318,6.038,0.318c12.508,0,23.521-4.323,30.216-11.86
			c1.166-1.313,2.181-2.713,3.056-4.177c0.043-0.07,0.095-0.132,0.136-0.203l62.104-107.566
			C151.34,10.219,149.701,4.104,144.919,1.342z M69.275,112.363l-0.053,0.093c-0.246,0.414-0.541,0.817-0.89,1.211
			c-3.411,3.839-10.92,5.8-19.223,4.932c-15.903-1.662-28.073-11.971-29.048-20.183c-0.26-2.189,0.291-3.967,1.735-5.593
			c2.86-3.221,8.566-5.143,15.264-5.143c1.288,0,2.621,0.07,3.96,0.21c15.903,1.662,28.072,11.97,29.047,20.183
			C70.26,109.694,70.004,111.088,69.275,112.363z"/>
	</g>
</g>
<g>
	<g>
		<path d="M388.837,66.966c-1.703-5.253-7.344-8.129-12.596-6.428l-39.034,12.658c-5.254,1.704-8.131,7.344-6.428,12.598
			c1.371,4.229,5.292,6.918,9.51,6.918c1.022,0,2.062-0.158,3.086-0.49l39.034-12.658C387.663,77.86,390.54,72.22,388.837,66.966z"
			/>
	</g>
</g>
<g>
	<g>
		<path d="M322.471,88.473c-1.712-5.25-7.356-8.12-12.607-6.406l-0.225,0.073c-5.251,1.712-8.119,7.356-6.407,12.607
			c1.376,4.221,5.294,6.902,9.505,6.902c1.027,0,2.072-0.16,3.102-0.496l0.225-0.073C321.315,99.368,324.183,93.724,322.471,88.473z
			"/>
	</g>
</g>
<g>
</g>
<g>
</g>
<g>
</g>
<g>
</g>
<g>
</g>
<g>
</g>
<g>
</g>
<g>
</g>
<g>
</g>
<g>
</g>
<g>
</g>
<g>
</g>
<g>
</g>
<g>
</g>
<g>
</g>
</svg>
