<?xml version="1.0" encoding="iso-8859-1"?>
<!-- Generator: Adobe Illustrator 19.0.0, SVG Export Plug-In . SVG Version: 6.00 Build 0)  -->
<svg version="1.1" id="Capa_1" xmlns="http://www.w3.org/2000/svg" xmlns:xlink="http://www.w3.org/1999/xlink" x="0px" y="0px"
	 viewBox="0 0 512 512" style="enable-background:new 0 0 512 512;" xml:space="preserve">
<path style="fill:#465066;" d="M415.334,83.963c-45.953-45.953-107.05-71.26-172.037-71.26S117.213,38.011,71.26,83.963
	C25.307,129.916,0,191.013,0,256s25.307,126.084,71.26,172.037s107.05,71.26,172.037,71.26s126.084-25.307,172.037-71.26
	s71.26-107.05,71.26-172.037S461.287,129.916,415.334,83.963z"/>
<path style="fill:#677189;" d="M243.297,12.703c-64.987,0-126.084,25.308-172.037,71.26C25.307,129.916,0,191.013,0,256
	s25.307,126.084,71.26,172.037s107.05,71.26,172.037,71.26V12.703z"/>
<path style="fill:#E65CA3;" d="M243.297,170.7c-47.035,0-85.301,38.265-85.301,85.301s38.266,85.301,85.301,85.301
	s85.301-38.265,85.301-85.301S290.332,170.7,243.297,170.7z"/>
<path style="fill:#FF80C0;" d="M243.297,170.7c-47.035,0-85.301,38.265-85.301,85.301s38.266,85.301,85.301,85.301V170.7z"/>
<path style="fill:#465066;" d="M243.297,228.787c-15.005,0-27.213,12.208-27.213,27.213s12.208,27.213,27.213,27.213
	S270.51,271.005,270.51,256S258.302,228.787,243.297,228.787z"/>
<path style="fill:#677189;" d="M243.297,228.787c-15.005,0-27.213,12.208-27.213,27.213s12.208,27.213,27.213,27.213V228.787z"/>
<path style="fill:#EBBE99;" d="M308.057,231.842v25.168l-23.378-47.222c-6.421-12.97-21.935-18.56-35.154-12.666l0,0l-4.542,2.316
	c-11.805,6.019-17.488,19.723-13.409,32.33l29.534,91.272c10.827,33.458,28.617,64.244,52.199,90.332l13.997,15.484v9.256
	c0,8.284,6.716,15,15,15h124.99c8.233,0,14.927-6.636,14.999-14.868l0.083-9.388l0,0c19.374-36.146,29.521-76.518,29.54-117.529
	l0.037-79.485L308.057,231.842L308.057,231.842z"/>
<path style="fill:#FFE0B3;" d="M308.057,231.842v25.168l-23.378-47.222c-6.421-12.97-21.935-18.56-35.154-12.666l0,0l-4.542,2.316
	c-11.805,6.019-17.488,19.723-13.409,32.33l29.534,91.272c10.827,33.458,28.617,64.244,52.199,90.332l13.997,15.484v9.256
	c0,8.284,6.716,15,15,15h42.23v-221.27L308.057,231.842L308.057,231.842z"/>
<g>
	<path style="fill:#EBBE99;" d="M511.974,253.51L512,134.981c0-14.079-11.413-25.493-25.493-25.493l0,0
		c-14.079,0-25.493,11.414-25.493,25.493V253.51H511.974z"/>
	<path style="fill:#EBBE99;" d="M410.029,253.51V69.199c0-14.079-11.414-25.493-25.493-25.493l0,0
		c-14.079,0-25.493,11.414-25.493,25.493V253.51H410.029z"/>
	<path style="fill:#EBBE99;" d="M435.521,56.452L435.521,56.452c-14.079,0-25.493,11.414-25.493,25.493V253.51h50.986V81.945
		C461.014,67.866,449.601,56.452,435.521,56.452z"/>
	<path style="fill:#EBBE99;" d="M333.55,85.698L333.55,85.698c-14.079,0-25.493,11.414-25.493,25.493V253.51h50.986V111.191
		C359.043,97.112,347.629,85.698,333.55,85.698z"/>
</g>
<g>
	<path style="fill:#FFE0B3;" d="M486.507,253.51V109.489l0,0c-14.079,0-25.493,11.414-25.493,25.493V253.51H486.507z"/>
	<path style="fill:#FFE0B3;" d="M384.536,253.51V43.706l0,0c-14.079,0-25.493,11.414-25.493,25.493V253.51H384.536z"/>
	<path style="fill:#FFE0B3;" d="M435.521,56.452L435.521,56.452c-14.079,0-25.493,11.414-25.493,25.493V253.51h25.493V56.452z"/>
	<path style="fill:#FFE0B3;" d="M333.55,85.698L333.55,85.698c-14.079,0-25.493,11.414-25.493,25.493V253.51h25.493V85.698z"/>
</g>
<g>
</g>
<g>
</g>
<g>
</g>
<g>
</g>
<g>
</g>
<g>
</g>
<g>
</g>
<g>
</g>
<g>
</g>
<g>
</g>
<g>
</g>
<g>
</g>
<g>
</g>
<g>
</g>
<g>
</g>
</svg>
