<?xml version="1.0" encoding="iso-8859-1"?>
<!-- Generator: Adobe Illustrator 19.0.0, SVG Export Plug-In . SVG Version: 6.00 Build 0)  -->
<svg version="1.1" id="Capa_1" xmlns="http://www.w3.org/2000/svg" xmlns:xlink="http://www.w3.org/1999/xlink" x="0px" y="0px"
	 viewBox="0 0 472 472" style="enable-background:new 0 0 472 472;" xml:space="preserve">
<path style="fill:#CFDFE8;" d="M192,169.912V400h64V169.912C235.439,178.029,212.561,178.029,192,169.912z"/>
<circle style="fill:#E9686A;" cx="224" cy="88" r="88"/>
<path style="fill:#CFDFE8;" d="M328,80H120c-4.418,0-8,3.582-8,8s3.582,8,8,8h208c4.418,0,8-3.582,8-8S332.418,80,328,80z"/>
<path style="fill:#FDBD40;" d="M208,400h32v32h-32V400z"/>
<path style="fill:#238892;" d="M360,472h-16V368c0-8.837-7.163-16-16-16s-16,7.163-16,16v64c-0.026,22.08-17.92,39.974-40,40h-16
	c-22.08-0.026-39.974-17.92-40-40h16c0,13.255,10.745,24,24,24h16c13.255,0,24-10.745,24-24v-64c0-17.673,14.327-32,32-32
	s32,14.327,32,32V472z"/>
<g>
	<path style="fill:#CFDFE8;" d="M192.16,64c-4.418,0.022-8.018-3.542-8.04-7.96c-0.022-4.418,3.542-8.018,7.96-8.04h0.08
		c4.418,0,8,3.582,8,8S196.578,64,192.16,64z"/>
	<path style="fill:#CFDFE8;" d="M224.16,64c-4.418,0.022-8.018-3.542-8.04-7.96s3.542-8.018,7.96-8.04h0.08c4.418,0,8,3.582,8,8
		S228.578,64,224.16,64z"/>
	<path style="fill:#CFDFE8;" d="M256.16,64c-4.418,0.022-8.018-3.542-8.04-7.96c-0.022-4.418,3.542-8.018,7.96-8.04h0.08
		c4.418,0,8,3.582,8,8S260.578,64,256.16,64z"/>
	<path style="fill:#CFDFE8;" d="M224.16,40c-4.418,0.022-8.018-3.542-8.04-7.96s3.542-8.018,7.96-8.04h0.08c4.418,0,8,3.582,8,8
		S228.578,40,224.16,40z"/>
</g>
<g>
</g>
<g>
</g>
<g>
</g>
<g>
</g>
<g>
</g>
<g>
</g>
<g>
</g>
<g>
</g>
<g>
</g>
<g>
</g>
<g>
</g>
<g>
</g>
<g>
</g>
<g>
</g>
<g>
</g>
</svg>
