<?xml version="1.0" encoding="iso-8859-1"?>
<!-- Generator: Adobe Illustrator 19.0.0, SVG Export Plug-In . SVG Version: 6.00 Build 0)  -->
<svg version="1.1" id="Capa_1" xmlns="http://www.w3.org/2000/svg" xmlns:xlink="http://www.w3.org/1999/xlink" x="0px" y="0px"
	 viewBox="0 0 512 512" style="enable-background:new 0 0 512 512;" xml:space="preserve">
<path style="fill:#D3D3D3;" d="M147.621,354.79h-16.674V329.78c-0.05-41.418-33.614-74.982-75.032-75.032v-16.674
	c50.621,0.058,91.647,41.084,91.705,91.705V354.79z"/>
<path style="fill:#4EBE80;" d="M497.769,21.316v83.369L447.748,63l-1.251-2.001c18.216-11.697,35.323-25.036,51.105-39.85
	L497.769,21.316z"/>
<path style="fill:#62BEFF;" d="M447.748,63v75.032l-50.021-50.021l-0.333-0.834c17.041-7.395,33.464-16.148,49.104-26.178
	L447.748,63z"/>
<path style="fill:#FFCB5A;" d="M397.393,87.177l0.333,0.834l-8.337,75.032l-58.358-50.021l-0.834-4.252
	C353.266,103.834,375.776,96.598,397.393,87.177z"/>
<path style="fill:#62BEFF;" d="M330.198,108.769l0.834,4.252l-16.674,66.695l-41.684-58.358l-41.684,58.358l-25.011-66.695
	C247.313,118.949,289.364,117.506,330.198,108.769z"/>
<path style="fill:#4EBE80;" d="M205.979,113.021l-50.021,58.358l-16.507-74.448C161.043,104.459,183.328,109.853,205.979,113.021z"
	/>
<path style="fill:#FFCB5A;" d="M138.867,96.764l-49.604,49.604l-8.337-75.032l0.5-0.834
	C99.734,80.991,118.959,89.778,138.867,96.764z"/>
<path style="fill:#62BEFF;" d="M81.426,70.503l-0.5,0.834l-50.021,41.684V37.989l1.084-1.334
	C47.462,49.344,64.002,60.666,81.426,70.503z"/>
<g>
	<path style="fill:#00448F;" d="M256.283,120.791c-17.016,0-34.014-1.217-50.855-3.643c-22.918-3.21-45.461-8.67-67.312-16.282
		c-0.183-0.067-0.834-0.308-1.025-0.392l3.802-7.42l-1.901,3.71l1.251-3.96l1.075,0.383c21.201,7.345,43.068,12.597,65.286,15.707
		c40.842,5.886,82.41,4.46,122.76-4.21c22.793-4.877,45.036-12.022,66.403-21.334c16.84-7.311,33.064-15.948,48.529-25.844
		c17.991-11.563,34.898-24.752,50.496-39.383c2.835-2.576,5.619-5.286,8.404-8.078l5.902,5.902
		c-2.885,2.876-5.769,5.669-8.645,8.337c-15.973,14.973-33.272,28.454-51.689,40.284c-15.832,10.138-32.455,19-49.696,26.495
		c-21.876,9.529-44.644,16.849-67.979,21.843C306.505,118.165,281.427,120.808,256.283,120.791z"/>
	<path style="fill:#00448F;" d="M137.492,100.699c-20.142-7.07-39.608-15.965-58.133-26.578
		c-17.632-9.946-34.365-21.401-50.021-34.239C20,32.154,11.371,24.35,2.943,15.93l5.902-5.902
		c8.228,8.237,16.674,15.89,25.794,23.41c15.281,12.53,31.613,23.718,48.829,33.431c18.091,10.363,37.099,19.05,56.774,25.961
		L137.492,100.699z"/>
</g>
<path style="fill:#D3D3D3;" d="M170.53,393.682l-12.505-11.088l11.872-13.339c31.622-35.565,86.078-38.758,121.643-7.136
	c1.259,1.117,2.484,2.268,3.668,3.46l-11.788,11.788c-27.136-27.137-71.138-27.128-98.267,0.008
	c-0.959,0.959-1.892,1.943-2.793,2.96L170.53,393.682z"/>
<path style="fill:#ABABAB;" d="M193.79,231.296c-1-5.286-2.359-10.496-4.06-15.598l15.84-5.269
	c1.934,5.811,3.476,11.738,4.619,17.749L193.79,231.296z"/>
<path style="fill:#D3D3D3;" d="M170.189,352.348L158.4,340.559l2.434-2.443c24.06-24.077,36.732-57.258,34.856-91.247l16.674-0.934
	c2.134,38.733-12.314,76.541-39.733,103.977L170.189,352.348z"/>
<path style="fill:#ABABAB;" d="M236.884,293.989l-11.788-11.788c6.686-6.678,14.256-12.414,22.51-17.024l8.095,14.581
	C248.805,283.618,242.478,288.404,236.884,293.989z"/>
<path style="fill:#D3D3D3;" d="M358.485,293.989c-22.793-22.885-56.516-31.013-87.237-21.042l-5.11-15.84
	c36.674-11.93,76.933-2.218,104.136,25.119L358.485,293.989z"/>
<path style="fill:#EBBB53;" d="M414.4,229.737c0,46.044-37.324,83.369-83.369,83.369C331.032,267.061,368.356,229.737,414.4,229.737
	z"/>
<path style="fill:#46AB74;" d="M105.936,329.78c46.044,0,83.369,37.324,83.369,83.369
	C143.261,413.148,105.936,375.824,105.936,329.78z"/>
<g>
	<path style="fill:#4EBE80;" d="M189.305,413.148H64.252l41.684-83.369C105.936,375.824,143.261,413.148,189.305,413.148z"/>
	<polygon style="fill:#4EBE80;" points="477.177,355.374 497.769,396.474 429.24,362.21 	"/>
</g>
<g>
	<polygon style="fill:#62BEFF;" points="189.305,413.148 105.936,454.833 43.41,454.833 64.252,413.148 	"/>
	<polygon style="fill:#62BEFF;" points="456.085,313.106 477.177,355.374 429.24,362.21 377.968,336.532 	"/>
</g>
<g>
	<polygon style="fill:#FFCB5A;" points="105.936,454.833 22.568,496.517 43.41,454.833 	"/>
	<path style="fill:#FFCB5A;" d="M414.4,229.737l41.684,83.369l-78.116,23.427l-46.937-23.427
		C377.076,313.106,414.4,275.782,414.4,229.737z"/>
</g>
<path style="fill:#ABABAB;" d="M365.28,199.366l-16.224-3.81c1.667-7.086,4.427-13.873,8.178-20.117l14.289,8.587
	C368.664,188.787,366.555,193.955,365.28,199.366z"/>
<path style="fill:#D3D3D3;" d="M375.159,268.979l-7.311-7.311c-12.905-12.855-20.309-30.221-20.667-48.429l16.674-0.35
	c0.275,13.906,5.936,27.17,15.782,36.991l7.311,7.311L375.159,268.979z"/>
<g>
	
		<rect x="297.658" y="376.331" transform="matrix(-0.7071 0.7071 -0.7071 -0.7071 796.8078 446.1902)" style="fill:#ABABAB;" width="16.674" height="23.576"/>
	<rect x="22.568" y="238.074" style="fill:#ABABAB;" width="16.674" height="16.674"/>
</g>
<g>
	<rect x="339.369" y="446.521" style="fill:#D3D3D3;" width="16.674" height="33.347"/>
	<rect x="331.032" y="454.858" style="fill:#D3D3D3;" width="33.347" height="16.674"/>
</g>
<g>
	<rect x="180.968" y="12.979" style="fill:#FFBD49;" width="16.674" height="33.347"/>
	<rect x="172.631" y="21.316" style="fill:#FFBD49;" width="33.347" height="16.674"/>
</g>
<g>
	<rect x="5.894" y="154.706" style="fill:#FFDB6F;" width="50.021" height="16.674"/>
	<rect x="22.568" y="138.032" style="fill:#FFDB6F;" width="16.674" height="50.021"/>
</g>
<g>
	<rect x="306.021" y="46.326" style="fill:#FB5968;" width="50.021" height="16.674"/>
	<rect x="322.695" y="29.653" style="fill:#FB5968;" width="16.674" height="50.021"/>
</g>
<path d="M421.904,226.011c-1.426-2.818-4.344-4.569-7.503-4.51v-0.1c-16.115,0-31.93,4.277-45.853,12.389
	c-2.96-6.578-4.569-13.689-4.719-20.901l-16.674,0.35c0.225,10.546,2.826,20.909,7.603,30.321
	c-5.936,5.085-11.196,10.896-15.665,17.307c-23.035-10.204-49.021-11.555-72.989-3.785l5.11,15.84
	c19.533-6.294,40.676-5.377,59.592,2.584c-5.352,11.813-8.12,24.635-8.112,37.599h0.108c-0.058,3.16,1.692,6.069,4.502,7.503
	l166.737,83.369c1.159,0.559,2.434,0.842,3.727,0.834c4.602,0.025,8.354-3.685,8.379-8.295c0.008-1.309-0.292-2.601-0.875-3.768
	L421.904,226.011z M345.513,283.535c4.669,3.06,9.029,6.569,13.014,10.471l11.788-11.788c-4.977-4.994-10.463-9.462-16.349-13.339
	c3.01-4.102,6.428-7.895,10.196-11.313c1.201,1.392,2.418,2.784,3.727,4.093l7.311,7.311l11.788-11.788l-7.311-7.311
	c-0.684-0.684-1.301-1.426-1.943-2.143c8.562-4.827,17.991-7.912,27.745-9.07c-4.16,34.323-31.205,61.368-65.528,65.528
	c0.834-7.12,2.693-14.081,5.519-20.667L345.513,283.535z M358.202,317.366c28.871-9.004,51.48-31.613,60.484-60.484l25.552,51.105
	l-65.503,19.65L358.202,317.366z M400.503,338.517l51.263-15.406l12.814,25.619l-33.956,4.852L400.503,338.517z M456.86,366.695
	l15.615-2.234l6.669,13.389L456.86,366.695z"/>
<path d="M55.915,238.074v16.674c39.525,0.042,72.239,30.746,74.79,70.188c-8.053-2.293-16.39-3.468-24.769-3.493v0.1
	c-3.143-0.042-6.036,1.709-7.461,4.51L15.106,492.79c-2.093,4.102-0.467,9.121,3.635,11.213c2.368,1.209,5.177,1.217,7.553,0.017
	l166.737-83.369c2.81-1.434,4.56-4.344,4.502-7.503h0.108c-0.017-13.522-3.043-26.861-8.862-39.067
	c27.512-23.968,68.887-22.535,94.673,3.276l11.788-11.788c-31.138-31.188-80.826-33.789-115.049-6.011
	c-2.393-3.31-5.002-6.453-7.803-9.421l0.242-0.225c27.412-27.437,41.851-65.244,39.717-103.969l-16.674,0.934
	c1.876,33.981-10.788,67.153-34.84,91.239l-0.992,0.992c-3.877-2.826-7.962-5.352-12.222-7.545v-1.784
	C147.562,279.158,106.537,238.133,55.915,238.074z M101.693,356.908c6.111,19.433,18.499,36.282,35.223,47.904H77.725
	L101.693,356.908z M41.209,477.876l7.353-14.706h22.059L41.209,477.876z M103.969,446.496h-47.07l12.505-25.011h84.586
	L103.969,446.496z M168.163,371.247l-10.088,11.346l12.505,11.088l5.727-6.453c2.059,5.486,3.46,11.188,4.168,16.999
	c-34.323-4.16-61.368-31.205-65.528-65.528c5.486,0.659,10.888,1.934,16.09,3.793v12.297h16.674v-3.985
	c8.062,5.436,14.998,12.38,20.434,20.442L168.163,371.247L168.163,371.247z"/>
<path d="M143.928,89.47c-0.709-0.492-1.484-0.875-2.309-1.125c-0.55-0.133-1.109-0.217-1.667-0.25
	C91.722,70.978,47.937,43.3,11.788,7.085L0,18.873c7.278,7.278,14.84,14.114,22.568,20.617v73.531c0,4.602,3.735,8.337,8.337,8.337
	c1.951,0,3.835-0.684,5.336-1.934l38.108-31.755l6.669,59.617c0.5,4.577,4.61,7.887,9.187,7.386
	c1.884-0.208,3.643-1.042,4.985-2.384l39.25-39.267l13.381,60.209c1,4.494,5.452,7.328,9.946,6.328
	c1.759-0.392,3.343-1.342,4.519-2.709l40.851-47.645l20.008,53.481c1.609,4.31,6.419,6.503,10.73,4.885
	c1.559-0.584,2.901-1.617,3.868-2.968l34.931-48.896l34.898,48.854c1.567,2.193,4.093,3.493,6.786,3.493
	c0.525,0,1.042-0.05,1.559-0.15c3.193-0.609,5.736-3.01,6.528-6.161l13.406-53.606l48.112,41.234
	c3.493,3.001,8.762,2.593,11.755-0.9c1.092-1.276,1.776-2.843,1.959-4.51l6.419-57.791l37.758,37.758
	c3.26,3.251,8.537,3.251,11.788,0c1.559-1.559,2.443-3.685,2.443-5.894V80.799l36.349,30.288c3.535,2.943,8.795,2.468,11.738-1.067
	c1.251-1.501,1.934-3.385,1.934-5.336V24.475c1.959-1.876,3.968-3.677,5.894-5.602L500.212,7.085
	C406.88,100.241,268.68,132.196,143.928,89.47z M39.242,95.222V52.804c9.121,6.828,18.483,13.164,28.095,19.008L39.242,95.222z
	 M95.632,128.211L90.83,84.993c10.788,5.519,21.843,10.488,33.131,14.89L95.632,128.211z M160.476,153.297l-9.804-44.185
	c12.964,3.927,26.144,7.128,39.467,9.579L160.476,153.297z M233.299,162.142l-14.765-39.375c12.447,1.301,24.952,1.959,37.466,1.976
	c1.359,0,2.718-0.083,4.077-0.092L233.299,162.142z M310.648,160.183l-26.169-36.682c12.255-0.925,24.452-2.476,36.549-4.644
	L310.648,160.183z M382.845,146.452l-38.158-32.706c14.723-3.71,29.204-8.337,43.352-13.856L382.845,146.452z M439.411,117.907
	l-28.062-28.062c9.521-4.51,18.891-9.412,28.062-14.798V117.907z M489.432,86.885l-29.738-24.777
	c10.296-7.02,20.217-14.573,29.738-22.618V86.885z"/>
<path d="M205.554,210.429l-15.84,5.269c1.701,5.102,3.06,10.313,4.06,15.598l16.382-3.118
	C209.022,222.167,207.479,216.232,205.554,210.429z"/>
<path d="M255.7,279.758l-8.137-14.548c-8.237,4.61-15.798,10.346-22.468,17.024l11.788,11.788
	C242.469,288.429,248.805,283.627,255.7,279.758z"/>
<path d="M371.524,184.01l-14.289-8.587c-3.752,6.244-6.511,13.031-8.178,20.117l16.224,3.827
	C366.555,193.955,368.664,188.77,371.524,184.01z"/>
<rect x="297.658" y="376.331" transform="matrix(-0.7071 0.7071 -0.7071 -0.7071 796.8078 446.1902)" width="16.674" height="23.576"/>
<rect x="22.568" y="238.074" width="16.674" height="16.674"/>
<polygon points="339.369,446.496 339.369,454.833 331.032,454.833 331.032,471.506 339.369,471.506 339.369,479.843 
	356.042,479.843 356.042,471.506 364.379,471.506 364.379,454.833 356.042,454.833 356.042,446.496 "/>
<polygon points="197.642,46.326 197.642,37.989 205.979,37.989 205.979,21.316 197.642,21.316 197.642,12.979 180.968,12.979 
	180.968,21.316 172.631,21.316 172.631,37.989 180.968,37.989 180.968,46.326 "/>
<polygon points="22.568,138.032 22.568,154.706 5.894,154.706 5.894,171.379 22.568,171.379 22.568,188.053 39.242,188.053 
	39.242,171.379 55.915,171.379 55.915,154.706 39.242,154.706 39.242,138.032 "/>
<polygon points="339.369,79.674 339.369,63 356.042,63 356.042,46.326 339.369,46.326 339.369,29.653 322.695,29.653 
	322.695,46.326 306.021,46.326 306.021,63 322.695,63 322.695,79.674 "/>
<g>
</g>
<g>
</g>
<g>
</g>
<g>
</g>
<g>
</g>
<g>
</g>
<g>
</g>
<g>
</g>
<g>
</g>
<g>
</g>
<g>
</g>
<g>
</g>
<g>
</g>
<g>
</g>
<g>
</g>
</svg>
