<?xml version="1.0" encoding="UTF-8" standalone="no"?>
<svg width="192px" height="274px" viewBox="0 0 192 274" version="1.1" xmlns="http://www.w3.org/2000/svg" xmlns:xlink="http://www.w3.org/1999/xlink">
    <!-- Generator: Sketch 41.2 (35397) - http://www.bohemiancoding.com/sketch -->
    <title>Group 2</title>
    <desc>Created with Sketch.</desc>
    <defs></defs>
    <g id="Page-1" stroke="none" stroke-width="1" fill="none" fill-rule="evenodd">
        <g id="Group-2">
            <g id="028-placeholder" transform="translate(8.000000, 0.000000)">
                <path d="M150.396,200.976981 C180.533143,152.020392 202.671429,79.12024 159.060571,30.1734568 C142.056571,11.0886358 117.429143,0 92,0 C66.5702857,0 41.9434286,11.0886358 24.9388571,30.1734568 C-18.672,79.12024 3.46628571,152.019815 33.6034286,200.976981 C49.9474286,227.526716 70.1394286,251.559688 91.9994286,273.62736 C113.86,251.560265 134.052,227.527293 150.396,200.976981 Z" id="Shape" fill="#2FC1A2"></path>
                <ellipse id="Oval" fill="#000000" cx="91.9994286" cy="89.3101558" rx="73.9761429" ry="74.6769695"></ellipse>
            </g>
            <g id="146-garland" transform="translate(0.000000, 7.000000)">
                <g id="Layer_1">
                    <polygon id="Shape" fill="#CDD6E0" points="68.4585146 114.268125 37.5368304 135.607813 36.3769591 101.614375"></polygon>
                    <polygon id="Shape" fill="#FF7058" points="105.578749 122.923125 79.2972749 148.261875 71.1770877 114.924687"></polygon>
                    <polygon id="Shape" fill="#CDD6E0" points="108.297684 123.266562 122.580164 154.917187 143.460386 125.922187"></polygon>
                    <g id="Group" transform="translate(0.000000, 81.562500)" fill="#FF7058">
                        <polygon id="Shape" points="143.859216 44.3596875 167.458374 71.6984375 178.659708 39.0484375"></polygon>
                        <polygon id="Shape" points="36.3769591 19.708125 0.0177660819 33.3621875 9.29782456 0.055625"></polygon>
                    </g>
                    <polygon id="Shape" fill="#84DBFF" points="117.178912 39.2825 148.100596 60.27875 149.260468 26.285"></polygon>
                    <polygon id="Shape" fill="#FFD15C" points="80.0586784 47.6246875 106.340152 73.2765625 114.460339 39.9390625"></polygon>
                    <polygon id="Shape" fill="#84DBFF" points="77.3397427 48.28125 63.0572632 79.93125 42.1770409 50.936875"></polygon>
                    <g id="Group" transform="translate(6.888889, 6.562500)" fill="#FFD15C">
                        <polygon id="Shape" points="34.8893216 44.061875 11.2901637 71.3690625 0.0888304094 39.063125"></polygon>
                        <polygon id="Shape" points="142.371579 19.3790625 178.730772 33.0640625 169.450713 0.07"></polygon>
                    </g>
                    <g id="Group" opacity="0.8" transform="translate(6.888889, 6.562500)">
                        <path d="M70.2333099,42.2496875 C58.0167719,43.968125 46.1631696,44.7178125 35.3603041,44.468125 L38.0792398,48.2175 C47.6130994,48.28 57.8721053,47.5925 68.4933216,46.1553125 L70.2333099,42.2496875 Z" id="Shape" fill="#66A8C4"></path>
                        <g transform="translate(0.000000, 33.750000)" id="Shape" fill="#C4A046">
                            <path d="M107.426421,0.2515625 C102.02517,1.9075 96.4063743,3.4071875 90.678807,4.750625 C85.0237544,6.0315625 79.4049591,7.0940625 73.8224211,7.9375 L77.0123392,11.061875 C81.9059883,10.2184375 86.8362573,9.2184375 91.8386784,8.0625 C96.8048421,6.9378125 101.698854,5.6878125 106.411216,4.344375 L107.426421,0.2515625 Z"></path>
                            <path d="M34.5267485,10.718125 C21.6579415,10.374375 10.2753216,8.6559375 1.4299883,5.5003125 L0.0525730994,5.3128125 L1.50250292,9.530625 C9.84023392,12.2175 20.0263626,13.8421875 31.3727251,14.3421875 L34.5267485,10.718125 Z"></path>
                        </g>
                        <path d="M142.371579,19.94125 C133.09152,24.7840625 122.325275,29.220625 110.688854,33.00125 L114.567661,35.656875 C124.64538,32.37625 133.961696,28.564375 142.22655,24.3778125 L142.371579,19.94125 Z" id="Shape" fill="#66A8C4"></path>
                        <path d="M170.683099,4.381875 L169.486971,0.1015625 C163.614374,6.9128125 154.443088,13.5678125 143.024211,19.6290625 L147.809088,21.41 C157.197918,16.1296875 164.991789,10.380625 170.683099,4.381875 Z" id="Shape" fill="#C4A046"></path>
                    </g>
                    <g id="Group" opacity="0.8" transform="translate(7.976608, 81.562500)" fill="#C45643">
                        <path d="M79.0782807,42.1728125 C83.9719298,43.32875 88.8659415,44.2975 93.687076,45.1409375 L96.623193,42.2978125 C91.1856842,41.454375 85.7119181,40.391875 80.238152,39.1734375 C74.5105848,37.7675 68.8917895,36.2365625 63.4542807,34.518125 L64.3607135,38.29875 C69.1455906,39.704375 74.0758596,40.9853125 79.0782807,42.1728125 Z" id="Shape"></path>
                        <path d="M169.08814,43.6728125 L170.501813,39.5175 C161.54807,42.860625 149.839135,44.7353125 136.498982,45.0790625 L139.326327,48.3596875 C150.636433,47.921875 160.750409,46.3284375 169.08814,43.6728125 Z" id="Shape"></path>
                        <path d="M23.4338246,21.5828125 L27.8927485,19.895625 C16.546386,13.834375 7.44761404,7.116875 1.57501754,0.243125 L1.32121637,0.055625 L0.161345029,4.2421875 C5.88891228,10.335 13.8278129,16.209375 23.4338246,21.5828125 Z" id="Shape"></path>
                    </g>
                    <g id="Group" fill="#F2F2F2">
                        <path d="M97.8573918,45.2815625 C59.1780936,54.2796875 22.0578596,53.62375 1.17763743,44.281875 C0.0177660819,43.625625 -0.381064327,42.6259375 0.416233918,41.62625 C0.815064327,40.6265625 2.33750877,40.2828125 3.13516959,40.97 C22.8555205,49.968125 59.576924,50.311875 96.6975205,41.9696875 C133.817754,33.28375 165.500842,17.286875 177.499474,0.94625 C178.260877,-0.0534375 179.420749,-0.0534375 180.218409,0.29 C181.378281,0.94625 181.378281,1.9459375 180.979813,2.6334375 C168.219415,20.28625 136.500433,36.626875 97.8573918,45.2815625 Z" id="Shape"></path>
                        <path d="M87.7800351,120.610937 C126.459333,129.609062 163.579567,128.953125 184.459789,119.61125 C185.619661,119.2675 186.018491,117.955312 185.221193,117.267812 C184.822363,116.268125 183.299918,115.924375 182.502257,116.611562 C162.781906,125.609687 126.060503,125.953437 88.9399064,117.61125 C51.8196725,108.613125 20.1003275,92.6159375 8.13795322,75.963125 C7.37654971,74.9634375 6.21667836,74.9634375 5.41901754,75.306875 C4.62135673,75.650625 4.2591462,76.9628125 4.65761404,77.6503125 C17.4180117,95.2721875 49.1369942,111.6125 87.7800351,120.610937 Z" id="Shape"></path>
                    </g>
                </g>
            </g>
        </g>
    </g>
</svg>