<?xml version="1.0" encoding="UTF-8" standalone="no"?>
<svg width="201px" height="274px" viewBox="0 0 201 274" version="1.1" xmlns="http://www.w3.org/2000/svg" xmlns:xlink="http://www.w3.org/1999/xlink">
    <!-- Generator: Sketch 41.2 (35397) - http://www.bohemiancoding.com/sketch -->
    <title>cultural</title>
    <desc>Created with Sketch.</desc>
    <defs></defs>
    <g id="Page-1" stroke="none" stroke-width="1" fill="none" fill-rule="evenodd">
        <g id="cultural">
            <g id="Page-1">
                <g id="Group">
                    <g id="Group-2">
                        <g id="028-placeholder" transform="translate(7.000000, 0.000000)">
                            <path d="M150.396,200.976981 C180.533143,152.020392 202.671429,79.12024 159.060571,30.1734568 C142.056571,11.0886358 117.429143,0 92,0 C66.5702857,0 41.9434286,11.0886358 24.9388571,30.1734568 C-18.672,79.12024 3.46628571,152.019815 33.6034286,200.976981 C49.9474286,227.526716 70.1394286,251.559688 91.9994286,273.62736 C113.86,251.560265 134.052,227.527293 150.396,200.976981 Z" id="Shape" fill="#8627EC"></path>
                            <ellipse id="Oval" fill="#1D1111" cx="91.9994286" cy="89.3101558" rx="80.2334562" ry="80.9935626"></ellipse>
                        </g>
                        <g id="003-museum" transform="translate(0.000000, 22.000000)">
                            <g id="Capa_1">
                                <polygon id="Shape" fill="#E18F4E" points="0.144027086 0 29.6729743 70.1047822 87.2542275 70.1047822 116.783175 0"></polygon>
                                <polygon id="Shape" fill="#C27749" points="87.2542275 70.1047822 29.6729743 70.1047822 0.144027086 140.210049 116.783175 140.210049"></polygon>
                                <polygon id="Shape" fill="#FFA754" points="44.437448 44.2768576 0.144027086 0 0.144027086 140.210049 44.437448 95.9331915"></polygon>
                                <polygon id="Shape" fill="#A45E43" points="72.4897539 44.2768576 72.4897539 95.9331915 116.783175 140.210049 116.783175 0"></polygon>
                                <polygon id="Shape" fill="#FF7DA2" points="14.9085007 14.7589525 14.9085007 125.451097 28.9348961 125.451097 101.636719 125.451097 101.636719 14.7589525"></polygon>
                                <rect id="Rectangle-path" fill="#0C0C60" x="58.4638434" y="56.5761463" width="22.1467104" height="46.7365215"></rect>
                                <rect id="Rectangle-path" fill="#F8DE0A" x="36.3171329" y="56.5761463" width="29.5289472" height="46.7365215"></rect>
                                <path d="M70.4720459,93.4735277 L48.5710738,93.4735277 L22.2902526,125.451097 L87.9923057,125.451097 L87.9923057,103.312668 C87.9931689,97.8785268 80.14932,93.4735277 70.4720459,93.4735277 Z" id="Shape" fill="#58F4DD"></path>
                                <path d="M58.4638434,34.4377175 L58.4638434,43.4726562 L58.4638434,78.7145752 C70.6949921,78.7145752 80.6105538,68.8027213 80.6105538,56.5761463 L58.4638434,34.4377175 Z" id="Shape" fill="#BA1075"></path>
                                <path d="M58.4638434,34.4377175 L36.3171329,56.5761463 C36.3171329,68.8027213 46.2326947,78.7145752 58.4638434,78.7145752 C62.5407313,78.7145752 65.8460802,68.8027213 65.8460802,56.5761463 C65.8460802,44.3495714 62.5407313,34.4377175 58.4638434,34.4377175 Z" id="Shape" fill="#50E3C2"></path>
                                <path d="M58.4638434,34.4377175 C46.2326947,34.4377175 36.3171329,44.3495714 36.3171329,56.5761463 C41.3785199,56.5761463 46.0433863,54.878843 49.7731908,52.0225761 C55.0566853,47.9765008 58.4638434,41.6047982 58.4638434,34.4377175 Z" id="Shape" fill="#180D4F"></path>
                                <path d="M80.6105538,56.5761463 C80.6105538,44.3495714 70.6949921,34.4377175 58.4638434,34.4377175 C58.4638434,46.6642925 68.3789202,56.5761463 80.6105538,56.5761463 Z" id="Shape" fill="#07082A"></path>
                                <path d="M156.155428,87.3238833 L178.302138,87.3238833 L178.302138,93.419934 L156.155428,93.419934 C144.622107,93.419934 135.239009,101.167841 135.239009,110.692144 C135.239009,120.216447 144.621622,127.964354 156.155428,127.964354 L178.302138,127.964354 L178.302138,134.060405 L156.155428,134.060405 C140.551523,134.060405 127.856772,123.577825 127.856772,110.692144 C127.856772,97.8064634 140.551039,87.3238833 156.155428,87.3238833 Z" id="Shape" fill="#FFD9D4"></path>
                                <path d="M190.605543,81.174239 L175.841069,81.174239 L175.841069,140.210049 L200.448364,140.210049 L200.448364,91.0133791 C200.448849,85.5792381 196.042202,81.174239 190.605543,81.174239 Z" id="Shape" fill="#CF301B"></path>
                                <path d="M175.841069,81.174239 L165.998248,81.174239 C160.562075,81.174239 156.155428,85.5792381 156.155428,91.0133791 L156.155428,140.210049 L185.684375,140.210049 L185.684375,91.0133791 C185.684375,85.5792381 181.277728,81.174239 175.841069,81.174239 Z" id="Shape" fill="#FF4128"></path>
                                <path d="M182.237261,44.6743925 L175.302138,74.4152864 C187.533287,74.4152864 197.448849,64.5034326 197.448849,52.2768576 L182.237261,44.6743925 Z" id="Shape" fill="#FFB4A9"></path>
                                <path d="M182.684375,52.2768576 C182.684375,49.6058392 182.526285,47.0453456 182.237261,44.6743925 L162.012366,34.5666963 C156.63487,38.6061876 153.154943,45.0350527 153.154943,52.2768576 C153.154943,64.5034326 163.070504,74.4152864 175.301653,74.4152864 C179.379026,74.4152864 182.684375,64.5034326 182.684375,52.2768576 Z" id="Shape" fill="#FFD9D4"></path>
                                <ellipse id="Oval" fill="#FF8646" cx="175.302138" cy="19.068972" rx="11.0731127" ry="11.068972"></ellipse>
                                <path d="M175.302138,30.1384288 L182.634426,49.7343001 C187.267055,51.3781157 192.252235,52.2768576 197.448364,52.2768576 C197.448849,40.0497979 187.533287,30.1384288 175.302138,30.1384288 Z" id="Shape" fill="#FF6337"></path>
                                <path d="M175.302138,30.1384288 C170.315503,30.1384288 165.714396,31.7866072 162.012851,34.567181 C167.196371,41.4643228 174.349232,46.795695 182.634426,49.7347849 C182.213498,38.7060478 179.091942,30.1384288 175.302138,30.1384288 Z" id="Shape" fill="#FF8646"></path>
                            </g>
                        </g>
                    </g>
                </g>
            </g>
        </g>
    </g>
</svg>