<?xml version="1.0" encoding="UTF-8" standalone="no"?>
<svg width="184px" height="274px" viewBox="0 0 184 274" version="1.1" xmlns="http://www.w3.org/2000/svg" xmlns:xlink="http://www.w3.org/1999/xlink">
    <!-- Generator: Sketch 41.2 (35397) - http://www.bohemiancoding.com/sketch -->
    <title>Group 2</title>
    <desc>Created with Sketch.</desc>
    <defs></defs>
    <g id="Page-1" stroke="none" stroke-width="1" fill="none" fill-rule="evenodd">
        <g id="Group-2">
            <g id="028-placeholder">
                <path d="M92,273.62736 C113.86,251.560265 134.052,227.527293 150.396,200.976981 C180.533143,152.020392 202.671429,79.12024 159.060571,30.1734568 C142.056571,11.0886358 117.429143,0 92,0 C66.5702857,0 41.9434286,11.0886358 24.9388571,30.1734568 C-18.672,79.12024 3.46628571,152.019815 33.6034286,200.976981 C49.9474286,227.526716 70.1394286,251.559688 91.9994286,273.62736 L92,273.62736 Z" id="Shape" fill="#000000"></path>
                <ellipse id="Oval" fill="#FDE7F2" cx="91.9994286" cy="89.3101558" rx="80.9528571" ry="81.7197789"></ellipse>
            </g>
            <g id="054-dj-3" transform="translate(23.000000, 20.000000)">
                <g id="Capa_1">
                    <ellipse id="Oval" fill="#4A5058" cx="68.5985742" cy="68.7487635" rx="68.5985742" ry="68.6910373"></ellipse>
                    <g id="Group" opacity="0.1" transform="translate(11.652344, 11.668050)" fill="#000000">
                        <path d="M25.3147168,79.8278838 C24.5603809,79.8278838 23.8216836,79.4569627 23.3813477,78.7753029 C20.0892539,73.6782075 17.9765,67.7999668 17.2724531,61.7758755 C17.124959,60.5126556 18.027709,59.3685726 19.2892285,59.2208797 C20.5498281,59.0722656 21.6929844,59.9771535 21.8407852,61.2403734 C22.4724648,66.6436017 24.2899238,71.7017012 27.2434863,76.2737344 C27.9331211,77.341668 27.627707,78.7673195 26.5612109,79.4581909 C26.175457,79.7084398 25.7424805,79.8278838 25.3147168,79.8278838 Z" id="Shape"></path>
                        <path d="M23.7790605,41.5293527 C23.4110918,41.5293527 23.0372969,41.4406141 22.6904863,41.2536183 C21.572168,40.6502573 21.1539102,39.2537759 21.756459,38.1339502 C27.2382734,27.9440581 36.8223262,20.6327967 48.0508926,18.0753444 C50.9517129,17.4145643 53.9445254,17.0795685 56.9459238,17.0795685 C58.2163359,17.0795685 59.2457285,18.1106556 59.2457285,19.382473 C59.2457285,20.6542905 58.2163359,21.6853776 56.9459238,21.6853776 C54.2873496,21.6853776 51.637668,21.9816846 49.0707793,22.5663154 C39.1377695,24.8289959 30.657623,31.2992365 25.8056484,40.318332 C25.390457,41.0905726 24.597791,41.5293527 23.7790605,41.5293527 Z" id="Shape"></path>
                        <path d="M36.7039629,110.065328 C36.4194004,110.065328 36.1302383,110.012207 35.8499687,109.899826 C22.1394531,104.404481 11.2389922,93.9502158 5.15677539,80.4628714 C4.63395312,79.3037427 5.14880273,77.9395021 6.30606445,77.4162822 C7.46424609,76.8924481 8.82603711,77.4082988 9.34855273,78.5674274 C14.8582715,90.7847967 25.1405449,100.646448 37.5591836,105.6241 C38.7385234,106.096656 39.3116348,107.436946 38.8397148,108.617876 C38.4797187,109.517851 37.6165254,110.065328 36.7039629,110.065328 Z" id="Shape"></path>
                        <path d="M94.5918867,19.9238091 C94.0209219,19.9238091 93.4487305,19.712249 93.0031816,19.285751 C83.2483301,9.95161826 70.4433242,4.81092116 56.9459238,4.81092116 C48.5734082,4.81092116 40.5774473,6.73522822 33.1803555,10.5298008 C32.0494648,11.1104398 30.6640625,10.6621411 30.0848184,9.53034025 C29.5055742,8.39823237 29.9523496,7.0106556 31.0829336,6.43063071 C39.135623,2.29952697 47.8371641,0.205112033 56.9459238,0.205112033 C71.6324766,0.205112033 85.5665332,5.79871369 96.1808984,15.955751 C97.0989805,16.8345394 97.1324043,18.2921245 96.2544922,19.211751 C95.8031172,19.6852282 95.1978086,19.9238091 94.5918867,19.9238091 Z" id="Shape"></path>
                        <path d="M2.44821875,59.3817759 C1.17780664,59.3817759 0.148414062,58.3506888 0.148414062,57.0788714 C0.148414062,45.6819502 3.5030625,34.6854274 9.84991016,25.2785228 C10.5607031,24.2247137 11.9902617,23.947444 13.042959,24.6595021 C14.0956562,25.3715602 14.3722461,26.8030456 13.6614531,27.8571618 C7.830375,36.4998091 4.74833008,46.6046473 4.74833008,57.0788714 C4.74802344,58.3509959 3.71863086,59.3817759 2.44821875,59.3817759 Z" id="Shape"></path>
                    </g>
                    <ellipse id="Oval" fill="#EEEDED" cx="68.5985742" cy="68.7487635" rx="22.6300781" ry="22.6605809"></ellipse>
                    <path d="M136.782264,61.198 C134.654484,59.3166805 131.709814,58.442805 128.770664,59.1456515 C123.813512,60.3305726 120.839711,65.3662573 122.14968,70.2631535 L118.866172,57.9920498 C117.59484,53.2406971 112.7999,50.2226639 108.021826,51.3649046 C103.064674,52.5501328 100.09118,57.5858174 101.401455,62.4830207 L98.4344004,51.3943817 C97.1458965,46.5785477 92.202543,43.7207967 87.3931914,45.0110373 C82.5838398,46.301278 79.7296289,51.2516017 81.0184395,56.0671286 L85.0759082,71.2306805 C83.7870977,66.4151535 78.8437441,63.5570954 74.0346992,64.8476432 C69.2253477,66.1378838 66.3714434,71.0882075 67.6599473,75.9037344 L76.3866328,108.515627 L78.143377,115.081054 C78.3393203,115.813378 77.5530938,116.417353 76.8974961,116.038448 L66.7026152,110.144548 C62.3253203,107.614116 56.5696758,109.068938 54.1260566,113.499112 C51.7572578,117.793568 53.2499844,123.214913 57.5116758,125.678714 L76.9689434,136.927635 C110.906395,132.793154 137.197455,103.84595 137.197455,68.7469212 C137.196535,66.1953029 137.053027,63.6774606 136.782264,61.198 Z" id="Shape" fill="#000000" opacity="0.1"></path>
                    <path d="M155.760252,102.06473 L150.849402,83.7118091 L144.413322,59.6599668 C143.14199,54.9089212 138.347357,51.8905809 133.56959,53.0328216 C128.612438,54.2177427 125.638637,59.2534274 126.948605,64.1503237 L123.665098,51.8792199 C122.393766,47.1278672 117.598826,44.109834 112.820752,45.2520747 C107.8636,46.4373029 104.890105,51.4732946 106.200381,56.3704979 L116.01748,93.0573029 L103.233326,45.2815519 C101.944822,40.4657178 97.0014688,37.6079668 92.1921172,38.8982075 C87.3827656,40.1884481 84.5285547,45.1387718 85.8173652,49.9546058 L98.6015195,97.7303568 L89.874834,65.1184647 C88.5860234,60.3026307 83.6426699,57.4448797 78.8333184,58.7351203 C74.0239668,60.025361 71.1700625,64.9756846 72.4585664,69.7912116 L81.185252,102.403104 L82.9419961,108.968531 C83.1379395,109.700855 82.3517129,110.30483 81.6961152,109.925925 L71.5012344,104.032025 C67.1239395,101.501593 61.3682949,102.956415 58.9246758,107.386589 C56.555877,111.681046 58.0486035,117.10239 62.3102949,119.566191 L103.008865,143.09512 C110.928779,147.673909 120.57692,149.254622 130.110684,146.771784 C149.449281,141.735793 160.932053,121.392548 155.760252,102.06473 Z" id="Shape" fill="#F3DE6A"></path>
                    <g id="Group" transform="translate(87.392578, 54.041494)" fill="#F5A85B">
                        <path d="M11.2071016,45.9929959 C10.1915078,45.9929959 9.26238672,45.3144066 8.98733008,44.2854689 L0.260644531,11.6735768 C-0.0680742187,10.4450539 0.659890625,9.18214108 1.88675977,8.85297925 C3.11362891,8.52473859 4.3748418,9.25276349 4.70356055,10.4812863 L13.4302461,43.0931784 C13.7589648,44.3220083 13.031,45.5846141 11.8041309,45.9137759 C11.6045078,45.9672033 11.4039648,45.9929959 11.2071016,45.9929959 Z" id="Shape"></path>
                        <path d="M28.6230625,41.3199419 C27.6074687,41.3199419 26.6783477,40.6413527 26.403291,39.6124149 L16.5861914,2.92560996 C16.2574727,1.69708714 16.9854375,0.434481328 18.2123066,0.105012448 C19.4397891,-0.22353527 20.7003887,0.50479668 21.0288008,1.73362656 L30.8459004,38.4204315 C31.1746191,39.6489544 30.4466543,40.9115602 29.2197852,41.241029 C29.0204687,41.2941494 28.8199258,41.3199419 28.6230625,41.3199419 Z" id="Shape"></path>
                        <path d="M46.0393301,36.646888 C45.024043,36.646888 44.0946152,35.9682988 43.8195586,34.939361 L37.3350293,10.7060498 C37.0063105,9.47752697 37.7342754,8.21461411 38.9611445,7.88545228 C40.1880137,7.55751867 41.4489199,8.28554357 41.7779453,9.51375934 L48.2624746,33.7470705 C48.5911934,34.9755934 47.8632285,36.2385062 46.6363594,36.567668 C46.4364297,36.6214025 46.2361934,36.646888 46.0393301,36.646888 Z" id="Shape"></path>
                    </g>
                </g>
            </g>
        </g>
    </g>
</svg>