<?xml version="1.0" encoding="UTF-8" standalone="no"?>
<svg width="214px" height="312px" viewBox="0 0 214 312" version="1.1" xmlns="http://www.w3.org/2000/svg" xmlns:xlink="http://www.w3.org/1999/xlink">
    <!-- Generator: Sketch 41.2 (35397) - http://www.bohemiancoding.com/sketch -->
    <title>Group 2</title>
    <desc>Created with Sketch.</desc>
    <defs></defs>
    <g id="Page-1" stroke="none" stroke-width="1" fill="none" fill-rule="evenodd">
        <g id="Group-2">
            <g id="028-placeholder" transform="translate(14.000000, 38.000000)">
                <path d="M150.396,200.976981 C180.533143,152.020392 202.671429,79.12024 159.060571,30.1734568 C142.056571,11.0886358 117.429143,0 92,0 C66.5702857,0 41.9434286,11.0886358 24.9388571,30.1734568 C-18.672,79.12024 3.46628571,152.019815 33.6034286,200.976981 C49.9474286,227.526716 70.1394286,251.559688 91.9994286,273.62736 C113.86,251.560265 134.052,227.527293 150.396,200.976981 Z" id="Shape" fill="#E9D70C"></path>
                <ellipse id="Oval" fill="#000000" cx="91.9994286" cy="89.3101558" rx="81.9883571" ry="82.7650889"></ellipse>
            </g>
            <g id="050-tent">
                <g id="Layer_1">
                    <g id="Group" transform="translate(13.375000, 5.025641)" fill="#F95428">
                        <path d="M168.787902,99.8222137 C168.862719,97.4647692 168.970137,95.1022991 169.115172,92.7352222 C162.800082,93.8086154 103.65416,77.3659744 93.6199844,77.3613675 C83.5816289,77.3613675 24.4398867,93.8086154 18.1247969,92.7352222 C20.0846523,125.081085 15.8234609,156.691111 0.354019531,187.331188 L23.6821094,187.331188 L23.6821094,187.331188 L23.6821094,187.331188 L56.3095859,187.331188 L66.2313281,187.331188 L66.2313281,187.331188 L121.013238,187.331188 L121.013238,187.331188 L130.93498,187.331188 L163.562457,187.331188 L186.890547,187.331188 C172.548785,158.931709 167.838277,129.703 168.787902,99.8222137 Z" id="Shape"></path>
                        <polygon id="Shape" points="116.190715 11.4463162 97.128832 22.4704786 93.2722344 13.4971966 97.128832 0.417547009"></polygon>
                    </g>
                    <path d="M110.503832,55.8013675 L103.486973,55.8013675 L103.486973,3.64317094 C103.486973,1.70159829 105.057699,0.127735043 106.995402,0.127735043 L106.995402,0.127735043 C108.933105,0.127735043 110.503832,1.70159829 110.503832,3.64317094 L110.503832,55.8013675 Z" id="Shape" fill="#666666"></path>
                    <g id="Group" transform="translate(57.679688, 41.880342)" fill="#F2F2F2">
                        <path d="M49.3157148,62.2362821 C39.2773594,62.2362821 29.2385859,61.9033333 19.2186211,61.2332479 C13.8953711,60.8768462 8.58131641,60.4270513 3.27185938,59.8834444 L3.27185938,59.8742308 C-4.55126172,52.0354872 5.23213281,47.6581538 12.8333125,40.0384444 C24.6910859,28.151547 49.3152969,15.0241538 49.3152969,0.0288974359 C49.3152969,14.8436496 68.7959844,24.4644017 80.4272187,36.2884786 C88.1157539,44.1046068 95.3587344,52.2247863 95.3587344,59.8742308 L95.363332,59.8742308 L95.363332,59.8834444 C90.0492773,60.4270513 84.730625,60.877265 79.4119727,61.2332479 C69.3882461,61.9037521 59.3494727,62.2408889 49.3157148,62.2362821 Z" id="Shape"></path>
                        <path d="M119.258187,150.476487 L86.6307109,150.476487 C81.2326445,123.759761 79.2443672,96.3071966 79.3522031,68.2687265 C79.3522031,65.9251026 79.3756094,63.5814786 79.4132266,61.2332479 C84.7318789,60.8768462 90.0505312,60.4270513 95.3645859,59.8834444 C98.8496094,59.5270427 102.334633,59.1287607 105.814641,58.6881795 C105.725613,61.0456239 105.665008,63.3942735 105.632406,65.7425043 C105.196465,94.6575299 108.836137,122.958171 119.258187,150.476487 Z" id="Shape"></path>
                        <path d="M49.3157148,62.2362821 L49.3157148,101.256615 C42.0087852,122.582923 32.634582,139.592624 21.9270586,150.476487 L12.0053164,150.476487 C17.3987852,123.759761 19.3870625,96.3071966 19.2792266,68.2687265 C19.2792266,65.9251026 19.2558203,63.5814786 19.2182031,61.2332479 C29.2385859,61.9037521 39.2769414,62.2362821 49.3157148,62.2362821 Z" id="Shape"></path>
                    </g>
                    <path d="M50.4968945,100.568521 C51.6617734,131.934803 48.3217852,162.60294 37.0575273,192.356829 L13.7294375,192.356829 C29.1988789,161.717171 33.4604883,130.106726 31.5002148,97.7608632 C37.8153047,98.8342564 44.1538008,99.7669316 50.4968945,100.568521 Z" id="Shape" fill="#CCCCCC"></path>
                    <path d="M134.388656,192.356829 L79.6067461,192.356829 C90.3142695,181.473385 99.6884727,164.463684 106.995402,143.136957 C114.301914,164.463684 123.681133,181.473385 134.388656,192.356829 Z" id="Shape" fill="#4D4D4D"></path>
                    <path d="M31.5002148,97.7608632 C21.4150469,96.0500513 11.3762734,93.9970769 1.39852344,91.5973333 C43.896332,91.5973333 81.8520742,72.2720684 106.994984,41.9088205 C106.994984,66.516453 84.4526758,91.9767692 60.9515469,101.754154 L60.9515469,101.763368 C57.4665234,101.406966 53.9815,101.008684 50.4964766,100.568103 C44.1538008,99.7669316 37.8153047,98.8342564 31.5002148,97.7608632 Z" id="Shape" fill="#E54728"></path>
                    <path d="M182.490172,97.7608632 C176.175082,98.8342564 169.841184,99.7669316 163.493492,100.568521 C160.013066,101.009103 156.528043,101.407385 153.043438,101.763786 L153.043438,101.754573 L153.03884,101.754573 C129.537711,91.9725812 106.995402,66.516453 106.995402,41.9092393 C132.143328,72.2724872 170.094055,91.5977521 212.596879,91.5977521 C202.614113,93.9970769 192.575758,96.0546581 182.490172,97.7608632 Z" id="Shape" fill="#F95428"></path>
                    <path d="M76.959332,110.149068 C77.06675,138.187538 75.0788906,165.640103 69.6854219,192.356829 L37.0575273,192.356829 C47.4749805,164.838513 51.1142344,136.532846 50.6791289,107.622846 C50.6465273,105.274615 50.5855039,102.921778 50.4968945,100.568521 C53.981918,101.009103 57.4669414,101.407385 60.9519648,101.763786 C66.2614219,102.307393 71.5750586,102.757607 76.8987266,103.11359 C76.9359258,105.461821 76.959332,107.805444 76.959332,110.149068 Z" id="Shape" fill="#E54728"></path>
                    <path d="M210.49157,195.872265 L3.50842969,195.872265 C1.57072656,195.872265 0,194.298402 0,192.356829 C0,190.415256 1.57072656,188.841393 3.50842969,188.841393 L210.49157,188.841393 C212.429273,188.841393 214,190.415256 214,192.356829 C214,194.298402 212.429691,195.872265 210.49157,195.872265 Z" id="Shape" fill="#666666"></path>
                    <g id="Group" transform="translate(50.156250, 97.581197)" fill="#E54728">
                        <path d="M26.7420586,5.53239316 C26.7796758,7.88062393 26.803082,10.2242479 26.803082,12.5678718 C26.7842734,12.5678718 26.7608672,12.563265 26.7420586,12.563265 C21.4188086,12.2068632 16.1047539,11.7570684 10.7952969,11.2134615 C7.37129688,10.8620855 3.94687891,10.4730171 0.522878906,10.0416496 C0.490277344,7.6934188 0.429253906,5.3405812 0.340644531,2.98732479 C3.82566797,3.42790598 7.31069141,3.82618803 10.7957148,4.18258974 C16.1047539,4.72619658 21.4188086,5.17641026 26.7420586,5.53239316 Z" id="Shape"></path>
                        <path d="M56.8391523,6.53542735 C66.8729102,6.54003419 76.9116836,6.20247863 86.9362461,5.53239316 C86.8986289,7.88062393 86.8752227,10.2242479 86.8752227,12.5678718 C76.8694688,13.2333504 66.8541016,13.570906 56.8391523,13.5662991 L56.8391523,6.53542735 L56.8391523,6.53542735 Z" id="Shape"></path>
                        <path d="M132.333922,0.179666667 C132.188887,2.54674359 132.081469,4.90879487 132.006652,7.26665812 C125.799398,8.31659829 119.577934,9.23042735 113.33766,10.0181966 C113.276637,10.0274103 113.216031,10.0324359 113.155426,10.0416496 C113.188027,7.6934188 113.249051,5.34518803 113.33766,2.98732479 C119.685352,2.18573504 126.01925,1.25305983 132.333922,0.179666667 Z" id="Shape"></path>
                    </g>
                    <g id="Group" transform="translate(76.488281, 100.512821)" fill="#CCCCCC">
                        <path d="M0.410027344,2.60076923 C10.4299922,3.2708547 20.4683477,3.60380342 30.5071211,3.60380342 L30.5071211,10.6346752 C20.4871562,10.6346752 10.472207,10.3017265 0.471050781,9.63624786 C0.471050781,7.29262393 0.447644531,4.949 0.410027344,2.60076923 Z" id="Shape"></path>
                        <path d="M87.0056289,0.0557008547 C86.9166016,2.4131453 86.8559961,4.76179487 86.8233945,7.11002564 C83.4039922,7.54139316 79.9795742,7.93046154 76.5555742,8.28183761 C71.2415195,8.82544444 65.9228672,9.27565812 60.6042148,9.63164103 C60.5854063,9.63164103 60.562,9.63624786 60.5436094,9.63624786 C60.5436094,7.29262393 60.5670156,4.949 60.6042148,2.60076923 C65.9228672,2.24436752 71.2415195,1.79457265 76.5555742,1.25096581 C80.0401797,0.894564103 83.5252031,0.496282051 87.0056289,0.0557008547 Z" id="Shape"></path>
                    </g>
                </g>
            </g>
        </g>
    </g>
</svg>