<?xml version="1.0" encoding="UTF-8" standalone="no"?>
<svg width="184px" height="274px" viewBox="0 0 184 274" version="1.1" xmlns="http://www.w3.org/2000/svg" xmlns:xlink="http://www.w3.org/1999/xlink">
    <!-- Generator: Sketch 41.2 (35397) - http://www.bohemiancoding.com/sketch -->
    <title>Group 2</title>
    <desc>Created with Sketch.</desc>
    <defs></defs>
    <g id="Page-1" stroke="none" stroke-width="1" fill="none" fill-rule="evenodd">
        <g id="Group-2">
            <path d="M150.396,200.976981 C180.533143,152.020392 202.671429,79.12024 159.060571,30.1734568 C142.056571,11.0886358 117.429143,0 92,0 C66.5702857,0 41.9434286,11.0886358 24.9388571,30.1734568 C-18.672,79.12024 3.46628571,152.019815 33.6034286,200.976981 C49.9474286,227.526716 70.1394286,251.559688 91.9994286,273.62736 C113.86,251.560265 134.052,227.527293 150.396,200.976981 Z" id="Shape" fill-opacity="0.794355752" fill="#050E71"></path>
            <ellipse id="Oval" fill="#000000" cx="91.9994286" cy="89.3101558" rx="76.2709953" ry="76.9935626"></ellipse>
            <g id="Capa_1" transform="translate(23.000000, 4.000000)">
                <path d="M69.0899009,8.73593164 C69.0599111,8.73593164 69.0302154,8.73799609 69.0002256,8.73829102 C77.0092513,11.580748 82.748465,19.2398691 82.748465,28.2470781 C82.748465,39.6449238 73.5607248,48.8883652 62.2093128,48.9370273 C64.361812,49.700875 66.6766085,50.1205488 69.0899009,50.1205488 C80.4830632,50.1205488 89.7187282,40.856168 89.7187282,29.4282402 C89.7190222,18.0003125 80.4830632,8.73593164 69.0899009,8.73593164 Z" id="Shape" fill="#000000" opacity="0.1"></path>
                <ellipse id="Oval" fill="#DFE3E5" cx="69.0910769" cy="82.03375" rx="60.7792137" ry="60.96625"></ellipse>
                <path d="M58.4732376,21.9970937 C32.7967248,26.5344668 12.6809573,47.239752 8.94076581,73.2574648 C15.2965333,67.9223281 25.4360068,61.8339609 38.270441,57.707709 C42.8750427,41.9178867 51.2268923,29.4600918 58.4732376,21.9970937 Z" id="Shape" fill="#000000" opacity="0.1"></path>
                <path d="M69.0899009,52.860373 C80.4495453,52.860373 90.850106,54.7953555 99.9093607,57.7080039 C95.304759,41.9178867 86.9529094,29.4600918 79.7065641,21.9970937 C76.2589197,21.3877852 72.7116034,21.0683848 69.0899009,21.0683848 C65.4681983,21.0683848 61.9208821,21.3877852 58.4732376,21.9970937 C51.2265983,29.4600918 42.8750427,41.9178867 38.270441,57.7080039 C47.3299897,54.7953555 57.7302564,52.860373 69.0899009,52.860373 Z" id="Shape" fill="#FFFFFF" opacity="0.45"></path>
                <path d="M129.23933,73.2574648 C125.499138,47.239457 105.383371,26.5344668 79.7068581,21.9970937 C86.9534974,29.4600918 95.305053,41.9178867 99.9096547,57.7080039 C112.743795,61.8342559 122.883562,67.922623 129.23933,73.2574648 Z" id="Shape" fill="#FDB876"></path>
                <path d="M79.7065641,142.071291 C105.383077,137.533918 125.498844,116.828928 129.239036,90.8109199 C122.883268,96.1460566 112.743795,102.234424 99.9093607,106.360676 C95.304759,122.150498 86.9532034,134.608588 79.7065641,142.071291 Z" id="Shape" fill="#E8618C"></path>
                <path d="M34.7648752,82.0343398 C34.7648752,73.3025879 36.1038291,65.1376758 38.270735,57.7080039 C25.4363009,61.8342559 15.2968274,67.922623 8.94105983,73.2577598 C8.52884786,76.1241055 8.31156923,79.0535645 8.31156923,82.0343398 C8.31156923,85.0151152 8.52884786,87.9445742 8.94105983,90.8109199 C15.2968274,96.1460566 25.4363009,102.234424 38.270735,106.360676 C36.1038291,98.9310039 34.7648752,90.7657969 34.7648752,82.0343398 Z" id="Shape" fill="#80CBDE"></path>
                <path d="M103.415221,82.0343398 C103.415221,73.3025879 102.076267,65.1376758 99.9093607,57.7080039 C112.743795,61.8342559 122.883268,67.922623 129.239036,73.2577598 C129.651248,76.1241055 129.868526,79.0535645 129.868526,82.0343398 C129.868526,85.0151152 129.651248,87.9445742 129.239036,90.8109199 C122.883268,96.1460566 112.743795,102.234424 99.9093607,106.360676 C102.076267,98.9310039 103.415221,90.7657969 103.415221,82.0343398 Z" id="Shape" fill="#000000" opacity="0.1"></path>
                <path d="M8.94076581,90.8109199 C12.6809573,116.828928 32.7970188,137.533918 58.4732376,142.071291 C51.2265983,134.608293 42.8750427,122.150498 38.270441,106.360676 C25.4360068,102.234424 15.2965333,96.1460566 8.94076581,90.8109199 Z" id="Shape" fill="#FFE584"></path>
                <path d="M69.0899009,111.208307 C57.7302564,111.208307 47.3299897,109.273324 38.270441,106.360676 C42.8750427,122.150793 51.2268923,134.608588 58.4732376,142.071291 C61.9208821,142.6806 65.4681983,143 69.0899009,143 C72.7116034,143 76.2589197,142.6806 79.7065641,142.071291 C86.9532034,134.608293 95.304759,122.150498 99.9093607,106.360676 C90.850106,109.273324 80.4495453,111.208307 69.0899009,111.208307 Z" id="Shape" fill="#000000" opacity="0.1"></path>
                <g id="Group" transform="translate(31.330769, 71.214664)" fill="#4A5058">
                    <path d="M3.42862073,12.4518472 C1.65389603,12.4518472 0.215092178,11.0090455 0.215092178,9.22842959 L0.215092178,3.52212093 C0.215092178,1.74150506 1.65389603,0.298703361 3.42862073,0.298703361 C5.20334543,0.298703361 6.64214928,1.74150506 6.64214928,3.52212093 L6.64214928,9.22842959 C6.64214928,11.0086157 5.2037739,12.4518472 3.42862073,12.4518472 Z" id="Shape"></path>
                    <path d="M71.9701854,12.4518472 C70.1954607,12.4518472 68.7566568,11.0090455 68.7566568,9.22842959 L68.7566568,3.52212093 C68.7566568,1.74150506 70.1954607,0.298703361 71.9701854,0.298703361 C73.7449101,0.298703361 75.1837139,1.74150506 75.1837139,3.52212093 L75.1837139,9.22842959 C75.1837139,11.0086157 73.7449101,12.4518472 71.9701854,12.4518472 Z" id="Shape"></path>
                    <path d="M46.7349884,13.5946561 C46.7349884,19.0306275 42.2454748,23.4149052 36.7824762,23.2202108 C31.5791308,23.0345419 27.5305133,18.5862257 27.5305133,13.3638594 L27.5305133,6.58909529 C27.5305133,5.13855739 28.7028085,3.96265466 30.1488964,3.96265466 L44.1170338,3.96265466 C45.5631217,3.96265466 46.7354169,5.13855739 46.7354169,6.58909529 L46.7354169,13.5946561 L46.7349884,13.5946561 L46.7349884,13.5946561 Z" id="Shape"></path>
                </g>
                <g id="Group" transform="translate(0.000000, 0.552734)" fill="#FDB876">
                    <path d="M16.322065,13.9368281 C15.1042462,13.9368281 14.1169368,12.9467754 14.1169368,11.7249141 L14.1169368,2.48943555 C14.1169368,1.26757422 15.1042462,0.277521484 16.322065,0.277521484 C17.5398838,0.277521484 18.5271932,1.26757422 18.5271932,2.48943555 L18.5271932,11.7246191 C18.5271932,12.9464805 17.5398838,13.9368281 16.322065,13.9368281 Z" id="Shape"></path>
                    <path d="M11.4366769,18.83725 L2.22982564,18.83725 C1.01200684,18.83725 0.0246974359,17.8471973 0.0246974359,16.6253359 C0.0246974359,15.4034746 1.01200684,14.4134219 2.22982564,14.4134219 L11.4366769,14.4134219 C12.6544957,14.4134219 13.6418051,15.4034746 13.6418051,16.6253359 C13.6418051,17.8471973 12.6547897,18.83725 11.4366769,18.83725 Z" id="Shape"></path>
                    <path d="M16.322065,32.9728555 C15.1042462,32.9728555 14.1169368,31.9828027 14.1169368,30.7609414 L14.1169368,21.5254629 C14.1169368,20.3036016 15.1042462,19.3135488 16.322065,19.3135488 C17.5398838,19.3135488 18.5271932,20.3036016 18.5271932,21.5254629 L18.5271932,30.7609414 C18.5271932,31.9825078 17.5398838,32.9728555 16.322065,32.9728555 Z" id="Shape"></path>
                    <path d="M30.4143043,18.83725 L21.207453,18.83725 C19.9896342,18.83725 19.0023248,17.8471973 19.0023248,16.6253359 C19.0023248,15.4034746 19.9896342,14.4134219 21.207453,14.4134219 L30.4143043,14.4134219 C31.6321231,14.4134219 32.6194325,15.4034746 32.6194325,16.6253359 C32.6194325,17.8471973 31.6321231,18.83725 30.4143043,18.83725 Z" id="Shape"></path>
                </g>
                <g id="Group" transform="translate(4.704274, 5.566406)" fill="#E8618C">
                    <path d="M5.4798906,7.66649414 C4.91567179,7.66649414 4.35145299,7.45061133 3.92071795,7.0188457 L0.798550427,3.88736523 C-0.062625641,3.02353906 -0.062625641,1.62295508 0.798550427,0.759423828 C1.6597265,-0.104697266 3.05571966,-0.104402344 3.91718974,0.759128906 L7.03935726,3.89060938 C7.90053333,4.75443555 7.90053333,6.15501953 7.03935726,7.01855078 C6.60891624,7.45061133 6.04440342,7.66649414 5.4798906,7.66649414 Z" id="Shape"></path>
                    <path d="M2.35772308,23.1121426 C1.79350427,23.1121426 1.22899145,22.8962598 0.798550427,22.4644941 C-0.062625641,21.600373 -0.062625641,20.200084 0.798550427,19.3362578 L3.92071795,16.2044824 C4.78189402,15.3409512 6.1781812,15.3409512 7.03935726,16.2044824 C7.90053333,17.0686035 7.90053333,18.4688926 7.03935726,19.3330137 L3.91718974,22.4647891 C3.4864547,22.8962598 2.92194188,23.1121426 2.35772308,23.1121426 Z" id="Shape"></path>
                    <path d="M20.8778598,23.1121426 C20.313641,23.1121426 19.7491282,22.8962598 19.3186872,22.4641992 L16.1965197,19.3324238 C15.3353436,18.4685977 15.3353436,17.0680137 16.1965197,16.2044824 C17.0576957,15.3409512 18.4539829,15.3406563 19.314865,16.2047773 L22.4370325,19.3365527 C23.2982085,20.2003789 23.2982085,21.6009629 22.4370325,22.4644941 C22.0065915,22.8962598 21.4423726,23.1121426 20.8778598,23.1121426 Z" id="Shape"></path>
                    <path d="M17.7559863,7.66649414 C17.1914735,7.66649414 16.6272547,7.45061133 16.1968137,7.01855078 C15.3356376,6.15472461 15.3356376,4.75414063 16.1968137,3.89060938 L19.3189812,0.759128906 C20.1801573,-0.104402344 21.5764444,-0.104697266 22.4373265,0.759423828 C23.2985026,1.62325 23.2985026,3.02383398 22.4373265,3.88736523 L19.315159,7.0188457 C18.8844239,7.45061133 18.3202051,7.66649414 17.7559863,7.66649414 Z" id="Shape"></path>
                </g>
                <g id="Group" transform="translate(110.256410, 7.630859)" fill="#80CBDE">
                    <path d="M16.3135385,13.695877 C15.0957197,13.695877 14.1084103,12.7058242 14.1084103,11.4839629 L14.1084103,2.2487793 C14.1084103,1.02691797 15.0957197,0.0368652344 16.3135385,0.0368652344 C17.5313573,0.0368652344 18.5186667,1.02691797 18.5186667,2.2487793 L18.5186667,11.4839629 C18.5186667,12.7058242 17.5313573,13.695877 16.3135385,13.695877 Z" id="Shape"></path>
                    <path d="M11.4284444,18.5965938 L2.22159316,18.5965938 C1.00377436,18.5965938 0.0164649573,17.6062461 0.0164649573,16.3846797 C0.0164649573,15.1628184 1.00377436,14.1727656 2.22159316,14.1727656 L11.4284444,14.1727656 C12.6462632,14.1727656 13.6335726,15.1628184 13.6335726,16.3846797 C13.6335726,17.6062461 12.6462632,18.5965938 11.4284444,18.5965938 Z" id="Shape"></path>
                    <path d="M16.3135385,32.7319043 C15.0957197,32.7319043 14.1084103,31.7418516 14.1084103,30.5199902 L14.1084103,21.2848066 C14.1084103,20.0629453 15.0957197,19.0728926 16.3135385,19.0728926 C17.5313573,19.0728926 18.5186667,20.0629453 18.5186667,21.2848066 L18.5186667,30.5199902 C18.5186667,31.7418516 17.5313573,32.7319043 16.3135385,32.7319043 Z" id="Shape"></path>
                    <path d="M30.4060718,18.5965938 L21.1989265,18.5965938 C19.9811077,18.5965938 18.9937983,17.6062461 18.9937983,16.3846797 C18.9937983,15.1628184 19.9811077,14.1727656 21.1989265,14.1727656 L30.4060718,14.1727656 C31.6238906,14.1727656 32.6112,15.1628184 32.6112,16.3846797 C32.6112,17.6062461 31.6238906,18.5965938 30.4060718,18.5965938 Z" id="Shape"></path>
                </g>
                <g id="Group" transform="translate(114.960684, 12.349609)" fill="#FFE584">
                    <path d="M5.4713641,7.72105469 C4.9071453,7.72105469 4.34263248,7.50517188 3.91219145,7.07311133 L0.790023932,3.94133594 C-0.0711521368,3.07750977 -0.0711521368,1.67692578 0.790023932,0.813394531 C1.6512,-0.0501367187 3.04748718,-0.0504316406 3.90836923,0.813689453 L7.03053675,3.94546484 C7.89171282,4.80929102 7.89171282,6.209875 7.03053675,7.07340625 C6.60009573,7.50487695 6.03587692,7.72105469 5.4713641,7.72105469 Z" id="Shape"></path>
                    <path d="M2.3494906,23.1664082 C1.78527179,23.1664082 1.22075897,22.9505254 0.790317949,22.5187598 C-0.0708581197,21.6549336 -0.0708581197,20.2543496 0.790317949,19.3905234 L3.91248547,16.258748 C4.77366154,15.394627 6.16994872,15.3949219 7.03083077,16.2584531 C7.89200684,17.1222793 7.89200684,18.5228633 7.03083077,19.3866895 L3.90866325,22.5184648 C3.47822222,22.9502305 2.9137094,23.1664082 2.3494906,23.1664082 Z" id="Shape"></path>
                    <path d="M20.8693333,23.1664082 C20.3051145,23.1664082 19.7406017,22.9505254 19.3101607,22.5184648 L16.1879932,19.3866895 C15.3268171,18.5228633 15.3268171,17.1222793 16.1879932,16.2584531 C17.0491692,15.3949219 18.4454564,15.394627 19.3066325,16.258748 L22.4288,19.3905234 C23.2899761,20.2543496 23.2899761,21.6549336 22.4288,22.5187598 C21.998065,22.9502305 21.4338462,23.1664082 20.8693333,23.1664082 Z" id="Shape"></path>
                    <path d="M17.7474598,7.72105469 C17.182947,7.72105469 16.6187282,7.50517188 16.1882872,7.07340625 C15.3271111,6.20958008 15.3271111,4.80899609 16.1882872,3.94546484 L19.3104547,0.813689453 C20.1716308,-0.0504316406 21.5679179,-0.0501367187 22.4288,0.813394531 C23.2899761,1.6772207 23.2899761,3.07780469 22.4288,3.94133594 L19.3066325,7.07311133 C18.8761915,7.50487695 18.3116786,7.72105469 17.7474598,7.72105469 Z" id="Shape"></path>
                </g>
                <path d="M107.705518,34.9536016 C116.353737,45.4855566 121.547843,58.9782324 121.547843,73.6880508 C121.547843,107.358396 94.3362667,134.653711 60.7692171,134.653711 C46.1045265,134.653711 32.6532444,129.443621 22.1536,120.768789 C33.3009641,134.344043 50.1875419,143 69.0899009,143 C102.65695,143 129.868526,115.704686 129.868526,82.0343398 C129.868821,63.0738125 121.239125,46.1352695 107.705518,34.9536016 Z" id="Shape" fill="#000000" opacity="0.1"></path>
            </g>
        </g>
    </g>
</svg>