<?xml version="1.0" encoding="UTF-8" standalone="no"?>
<svg width="215px" height="278px" viewBox="0 0 215 278" version="1.1" xmlns="http://www.w3.org/2000/svg" xmlns:xlink="http://www.w3.org/1999/xlink">
    <!-- Generator: Sketch 41.2 (35397) - http://www.bohemiancoding.com/sketch -->
    <title>Group 2</title>
    <desc>Created with Sketch.</desc>
    <defs></defs>
    <g id="Page-1" stroke="none" stroke-width="1" fill="none" fill-rule="evenodd">
        <g id="Group-2">
            <g id="028-placeholder" transform="translate(18.000000, 4.000000)">
                <path d="M150.396,200.976981 C180.533143,152.020392 202.671429,79.12024 159.060571,30.1734568 C142.056571,11.0886358 117.429143,0 92,0 C66.5702857,0 41.9434286,11.0886358 24.9388571,30.1734568 C-18.672,79.12024 3.46628571,152.019815 33.6034286,200.976981 C49.9474286,227.526716 70.1394286,251.559688 91.9994286,273.62736 C113.86,251.560265 134.052,227.527293 150.396,200.976981 Z" id="Shape" fill="#A2E356"></path>
                <ellipse id="Oval" fill="#FDE7F2" cx="91.9994286" cy="89.3101558" rx="73.9761429" ry="74.6769695"></ellipse>
            </g>
            <g id="054-microphone-1">
                <g id="Layer_1">
                    <path d="M10.816569,212 C9.19642259,212 7.57357741,211.695127 6.08746862,211.084483 C3.49577406,210.020117 1.52254184,208.11152 0.530303347,205.71154 C-0.230742678,203.870643 0.649947699,201.763431 2.4967887,201.004834 C4.34273013,200.246238 6.45719665,201.124542 7.21869247,202.965439 C7.54164226,203.746452 8.28019874,204.186277 8.84333682,204.41807 C10.0474268,204.912593 11.5825628,204.914834 12.7551674,204.422554 C16.8932427,202.687018 18.6595711,197.467856 20.3683264,192.420409 C20.5549895,191.868051 20.738954,191.325107 20.9229184,190.796062 C22.9316841,185.017368 26.1359937,178.102125 33.1414854,175.907934 C35.047249,175.310741 37.0776046,176.367037 37.6762762,178.266218 C38.2753975,180.165848 37.2161402,182.189669 35.3103766,182.786413 C31.3841527,184.016218 29.212113,188.974444 27.7583891,193.156589 C27.5807218,193.6677 27.4035042,194.191813 27.2226883,194.724893 C25.2098745,200.671267 22.7049895,208.072066 15.5609623,211.067895 C14.0807008,211.689298 12.450659,212 10.816569,212 Z" id="Shape" fill="#696578"></path>
                    <path d="M171.359948,82.9090253 C171.394132,81.9110136 171.01136,80.9430409 170.302939,80.2369006 L134.497343,44.5465497 C133.788923,43.8404094 132.818274,43.4588694 131.81659,43.4924951 C130.815356,43.5261209 129.873044,43.9726706 129.2141,44.7254386 L24.3548222,164.543782 C23.1044038,165.972203 23.1781695,168.122456 24.5230439,169.463002 L44.9835774,189.85768 C46.3284519,191.198226 48.4856485,191.271306 49.918682,190.024912 L170.123473,85.5031384 C170.877772,84.8467641 171.325764,83.9074854 171.359948,82.9090253 Z" id="Shape" fill="#AD7DC9"></path>
                    <path d="M50.6320502,134.517797 L24.3548222,164.543782 C23.1044038,165.972203 23.1781695,168.122456 24.5230439,169.463002 L44.9835774,189.85768 C46.3284519,191.198226 48.4856485,191.271306 49.918682,190.024912 L80.0416213,163.832261 L50.6320502,134.517797 Z" id="Shape" fill="#878493"></path>
                    <path d="M134.497343,44.5465497 C133.788923,43.8404094 132.818274,43.4588694 131.81659,43.4924951 C130.815356,43.5261209 129.873044,43.9726706 129.2141,44.7254386 L24.3548222,164.543782 C23.1044038,165.972203 23.1781695,168.122456 24.5230439,169.463002 L27.6823745,172.612164 L139.657793,49.6899415 L134.497343,44.5465497 Z" id="Shape" fill="#8A6CBD"></path>
                    <path d="M114.03681,109.335712 C113.11069,109.335712 112.185471,108.983762 111.479749,108.279864 L106.364728,103.181754 C104.952385,101.773957 104.951935,99.4914425 106.364728,98.0836452 C107.777071,96.6753996 110.066506,96.675848 111.479299,98.0831969 L116.59387,103.181306 C118.006663,104.589103 118.006663,106.871618 116.59432,108.279415 C115.888149,108.983314 114.962479,109.335712 114.03681,109.335712 Z" id="Shape" fill="#696578"></path>
                    <path d="M200.993065,13.9547563 C182.660042,-4.3197076 152.829916,-4.3197076 134.496893,13.9547563 C116.16387,32.2292203 116.163421,61.962885 134.496893,80.2369006 C152.830366,98.5109162 182.660042,98.5113645 200.993065,80.2369006 C219.326088,61.9624366 219.326538,32.2292203 200.993065,13.9547563 Z" id="Shape" fill="#FCDE76"></path>
                    <path d="M144.726935,80.2369006 C126.393462,61.9624366 126.393462,32.2287719 144.726935,13.9547563 C152.593326,6.11368421 162.576883,1.6405653 172.86,0.528226121 C159.177364,-0.951754386 144.963525,3.52181287 134.496893,13.9547563 C116.163421,32.2292203 116.163421,61.962885 134.496893,80.2369006 C144.963975,90.6698441 159.177364,95.142963 172.86,93.6634308 C162.576883,92.5510916 152.593326,88.0779727 144.726935,80.2369006 Z" id="Shape" fill="#FCCF6F"></path>
                    <path d="M208.666046,77.6880702 L137.054854,6.30736842 C134.234665,3.49625731 129.645,3.49625731 126.824812,6.30736842 L124.267301,8.85664717 C121.447113,11.6677583 121.447113,16.2426511 124.267301,19.0537622 L195.878494,90.4344639 C198.698682,93.245575 203.288347,93.245575 206.108536,90.4344639 L208.666046,87.8851852 C211.486234,85.0740741 211.486234,80.4991813 208.666046,77.6880702 Z" id="Shape" fill="#878493"></path>
                    <path d="M144.726935,80.2369006 C158.531015,93.9965497 178.852113,97.3936452 195.876695,90.4326706 L134.498692,29.2526706 C127.515241,46.2220078 130.923755,66.4776998 144.726935,80.2369006 Z" id="Shape" fill="#FCDE76"></path>
                    <path d="M137.054854,6.30736842 C134.234665,3.49625731 129.645,3.49625731 126.824812,6.30736842 L124.267301,8.85664717 C121.447113,11.6677583 121.447113,16.2426511 124.267301,19.0537622 L134.499142,29.2526706 C136.790377,23.6846979 140.198441,18.4700195 144.727835,13.955653 L137.054854,6.30736842 Z" id="Shape" fill="#787485"></path>
                    <g id="Group" transform="translate(7.646444, 31.000000)" fill="#F59F3F">
                        <path d="M32.3975314,59.6066277 C26.2898222,59.6066277 21.3205335,54.6537817 21.3205335,48.5652827 C21.3205335,46.6983821 19.8024895,45.1852242 17.9295607,45.1852242 C16.0570816,45.1852242 14.5385879,46.6979337 14.5385879,48.5652827 C14.5385879,54.6537817 9.56929916,59.6066277 3.46158996,59.6066277 C1.58911088,59.6066277 0.0706171548,61.1193372 0.0706171548,62.9866862 C0.0706171548,64.8540351 1.58866109,66.3667446 3.46158996,66.3667446 C9.56929916,66.3667446 14.5385879,71.3195906 14.5385879,77.4080897 C14.5385879,79.2749903 16.0566318,80.7881481 17.9295607,80.7881481 C19.8020397,80.7881481 21.3205335,79.2754386 21.3205335,77.4080897 C21.3205335,71.3195906 26.2898222,66.3667446 32.3975314,66.3667446 C34.2700105,66.3667446 35.7885042,64.8540351 35.7885042,62.9866862 C35.7885042,61.1193372 34.2700105,59.6066277 32.3975314,59.6066277 Z" id="Shape"></path>
                        <path d="M177.07454,106.475068 C170.966381,106.475068 165.997542,101.522222 165.997542,95.4337232 C165.997542,93.5668226 164.479948,92.0536647 162.606569,92.0536647 C160.73364,92.0536647 159.215596,93.5663743 159.215596,95.4337232 C159.215596,101.522222 154.246757,106.475068 148.138598,106.475068 C146.265669,106.475068 144.747626,107.987778 144.747626,109.855127 C144.747626,111.722027 146.26522,113.235185 148.138598,113.235185 C154.246757,113.235185 159.215596,118.188031 159.215596,124.27653 C159.215596,126.143431 160.73319,127.656589 162.606569,127.656589 C164.479498,127.656589 165.997542,126.143879 165.997542,124.27653 C165.997542,118.188031 170.966381,113.235185 177.07454,113.235185 C178.947469,113.235185 180.465513,111.722476 180.465513,109.855127 C180.465063,107.988226 178.947019,106.475068 177.07454,106.475068 Z" id="Shape"></path>
                        <path d="M94.3269142,14.4214035 C88.219205,14.4214035 83.2499163,9.4685575 83.2499163,3.38005848 C83.2499163,1.51315789 81.7318724,0 79.8589435,0 C77.9864644,0 76.4679707,1.51270955 76.4679707,3.38005848 C76.4679707,9.4685575 71.498682,14.4214035 65.3909728,14.4214035 C63.5184937,14.4214035 62,15.9341131 62,17.801462 C62,19.6688109 63.5180439,21.1815205 65.3909728,21.1815205 C71.498682,21.1815205 76.4679707,26.1343665 76.4679707,32.2228655 C76.4679707,34.0897661 77.9860146,35.602924 79.8589435,35.602924 C81.7314226,35.602924 83.2499163,34.0902144 83.2499163,32.2228655 C83.2499163,26.1343665 88.219205,21.1815205 94.3269142,21.1815205 C96.1993933,21.1815205 97.717887,19.6688109 97.717887,17.801462 C97.717887,15.9341131 96.1998431,14.4214035 94.3269142,14.4214035 Z" id="Shape"></path>
                    </g>
                </g>
            </g>
        </g>
    </g>
</svg>