<?xml version="1.0" encoding="UTF-8" standalone="no"?>
<svg width="28px" height="46px" viewBox="0 0 37 55" version="1.1" xmlns="http://www.w3.org/2000/svg" xmlns:xlink="http://www.w3.org/1999/xlink">
    <title>placeholder</title>
    <desc>Created with Sketch.</desc>
    <defs></defs>
    <g id="Page-1" stroke="none" stroke-width="1" fill="none" fill-rule="evenodd">
        <g id="028-placeholder">
            <path d="M18.5,54.9252 C22.8957609,50.4956737 26.9561087,45.6715368 30.2426739,40.3420947 C36.3028602,30.5150421 40.7545807,15.8818 31.9850062,6.05671579 C28.5657236,2.22582105 23.6134689,0 18.5,0 C13.3864161,0 8.4342764,2.22582105 5.01487888,6.05671579 C-3.75469565,15.8818 0.697024845,30.5149263 6.75721118,40.3420947 C10.0437764,45.6714211 14.1041242,50.4955579 18.4998851,54.9252 L18.5,54.9252 Z" id="Shape" fill="#FA4755"></path>
            <ellipse id="Oval" fill="#EFEDEE" cx="18.4998851" cy="17.9272211" rx="14.0570124" ry="14.1649895"></ellipse>
            <g id="Group" transform="translate(10.686335, 16.326316)" fill="#3A484A">
                <path d="M0.934307453,3.15815789 C0.444,3.15815789 0.0465372671,2.75764211 0.0465372671,2.26356842 L0.0465372671,1.00898947 C0.0465372671,0.514915789 0.444,0.1144 0.934307453,0.1144 C1.42461491,0.1144 1.82207764,0.514915789 1.82207764,1.00898947 L1.82207764,2.26356842 C1.82207764,2.75764211 1.42461491,3.15815789 0.934307453,3.15815789 Z" id="Shape"></path>
                <path d="M14.6927919,3.15815789 C14.2024845,3.15815789 13.8050217,2.75764211 13.8050217,2.26356842 L13.8050217,1.00898947 C13.8050217,0.514915789 14.2024845,0.1144 14.6927919,0.1144 C15.1830994,0.1144 15.5805621,0.514915789 15.5805621,1.00898947 L15.5805621,2.26356842 C15.5805621,2.75764211 15.1830994,3.15815789 14.6927919,3.15815789 Z" id="Shape"></path>
                <path d="M7.95754691,4.48119703 C6.96815553,4.48119703 6.03858091,4.06363128 5.40722313,3.33557433 C5.0594686,2.93460639 5.1000895,2.32547955 5.49787709,1.97505378 C5.89554085,1.62475281 6.50027211,1.66543615 6.84802665,2.06652889 C7.11602551,2.37552255 7.5205007,2.55273216 7.95742306,2.55273216 C8.39434543,2.55273216 8.79894446,2.37552255 9.06681948,2.06652889 C9.41469786,1.66556094 10.0190576,1.62462802 10.416969,1.97517858 C10.8148805,2.32560435 10.8555014,2.93473118 10.507623,3.33569913 C9.87651291,4.06363128 8.94681444,4.48119703 7.95754691,4.48119703 Z" id="Shape"></path>
            </g>
        </g>
    </g>
</svg>