<?xml version="1.0" encoding="UTF-8" standalone="no"?>
<svg width="184px" height="274px" viewBox="0 0 268 274" version="1.1" xmlns="http://www.w3.org/2000/svg" xmlns:xlink="http://www.w3.org/1999/xlink">
    <!-- Generator: Sketch 41.2 (35397) - http://www.bohemiancoding.com/sketch -->
    <title>Group 2</title>
    <desc>Created with Sketch.</desc>
    <defs></defs>
    <g id="Page-1" stroke="none" stroke-width="1" fill="none" fill-rule="evenodd">
        <g id="Group-2">
            <g id="028-placeholder" transform="translate(66.000000, 0.000000)">
                <path d="M92,273.62736 C113.86,251.560265 134.052,227.527293 150.396,200.976981 C180.533143,152.020392 202.671429,79.12024 159.060571,30.1734568 C142.056571,11.0886358 117.429143,0 92,0 C66.5702857,0 41.9434286,11.0886358 24.9388571,30.1734568 C-18.672,79.12024 3.46628571,152.019815 33.6034286,200.976981 C49.9474286,227.526716 70.1394286,251.559688 91.9994286,273.62736 L92,273.62736 Z" id="Shape" fill="#2281E0"></path>
                <ellipse id="Oval" fill="#FDE7F2" cx="91.9994286" cy="89.3101558" rx="80.9528571" ry="81.7197789"></ellipse>
            </g>
            <g id="023-heavy-metal-1">
                <g id="Capa_1">
                    <rect id="Rectangle-path" fill="#676775" x="62.0592734" y="58.8088996" width="40.9270547" height="40.8684081"></rect>
                    <rect id="Rectangle-path" fill="#4C4C59" x="62.0592734" y="81.8970085" width="40.9270547" height="17.7802991"></rect>
                    <path d="M227.402187,229.713675 L211.424781,229.713675 L211.424781,237.675128 L227.402187,237.675128 C229.600625,237.675128 231.382406,235.89312 231.382406,233.694402 C231.382406,231.495684 229.600625,229.713675 227.402187,229.713675 Z" id="Shape" fill="#DDB200"></path>
                    <rect id="Rectangle-path" fill="#BA9806" x="211.422687" y="229.713675" width="10.9670625" height="7.96145299"></rect>
                    <path d="M95.5247266,69.9548291 L95.5247266,15.8171581 C95.5247266,7.33010684 102.428344,0.42508547 110.914836,0.42508547 C119.401328,0.42508547 126.304945,7.33010684 126.304945,15.8171581 L126.304945,69.9548291 L95.5247266,69.9548291 Z" id="Shape" fill="#F5C882"></path>
                    <path d="M95.5247266,69.9548291 L95.5247266,15.8171581 C95.5247266,7.33010684 102.428344,0.42508547 110.914836,0.42508547 C119.401328,0.42508547 126.304945,7.33010684 126.304945,15.8171581 L126.304945,69.9548291 L95.5247266,69.9548291 Z" id="Shape" fill="#F9B264"></path>
                    <path d="M110.788688,13.8189423 C110.788688,8.89014957 113.107516,4.48590812 116.72918,1.56946581 C114.933789,0.833942308 112.971422,0.42508547 110.914836,0.42508547 C102.428344,0.42508547 95.5247266,7.33010684 95.5247266,15.8171581 L95.5247266,69.9548291 L110.788688,69.9548291 L110.788688,13.8189423 Z" id="Shape" fill="#EA9939"></path>
                    <path d="M255.528578,75.2621154 L231.912648,75.2621154 L231.912648,83.2235684 L255.528578,83.2235684 C258.015953,83.2235684 260.039562,85.2474359 260.039562,87.7351282 L260.039562,184.333707 C260.039562,191.211506 254.445062,196.80672 247.568141,196.80672 L69.2554922,196.80672 C57.9895469,196.80672 48.8236328,205.97328 48.8236328,217.241186 C48.8236328,228.509092 57.9890234,237.675652 69.2554922,237.675652 L192.376367,237.675652 L192.376367,229.713675 L69.2554922,229.713675 C62.3785703,229.713675 56.7840703,224.118462 56.7840703,217.240662 C56.7840703,210.362863 62.3785703,204.76765 69.2554922,204.76765 L247.568141,204.76765 C258.745102,204.76765 267.850297,195.743483 267.993195,184.5986 L268,184.5986 L268,87.7346047 C268,80.8578526 262.4055,75.2621154 255.528578,75.2621154 Z" id="Shape" fill="#C6C5CA"></path>
                    <path d="M31.0456016,110.292404 C13.9271016,110.292404 0,96.3635256 0,79.2428419 C0,62.1221581 13.9271016,48.1932799 31.0456016,48.1932799 C39.4755625,48.1932799 47.6542734,51.6892415 53.4837969,57.7859722 L54.6615312,59.0167308 L54.6615312,99.4563889 L53.4843203,100.687147 C47.6474688,106.791731 39.4687578,110.292404 31.0456016,110.292404 Z" id="Shape" fill="#ABAAB0"></path>
                    <path d="M31.0456016,92.5121047 C17.0159062,92.5121047 5.13596875,83.1539423 1.30335938,70.3526923 C0.459578125,73.1712393 0,76.1541667 0,79.2428419 C0,96.3635256 13.9271016,110.292404 31.0456016,110.292404 C39.4687578,110.292404 47.6474687,106.791731 53.4843203,100.687671 L54.6615312,99.4569124 L54.6615312,81.6766132 L53.4843203,82.9073718 C47.6474688,89.0109081 39.4687578,92.5121047 31.0456016,92.5121047 Z" id="Shape" fill="#929296"></path>
                    <path d="M201.196812,0.431891026 C192.826,0.68107906 186.273086,7.76985043 186.273086,16.1443483 L186.273086,57.4818162 L186.273086,88.2659615 C186.273086,89.6448718 186.080461,90.9787607 185.727664,92.246688 L153.370328,92.246688 C162.011234,92.246688 169.012211,85.0872436 168.753633,76.3881731 C168.505,68.0162927 161.417133,61.4625427 153.04318,61.4625427 L135.236359,61.4625427 L103.087352,61.4625427 C98.9108437,61.4625427 95.5247266,64.8485684 95.5247266,69.0261325 L95.5247266,92.6398397 C95.5247266,126.175 122.404289,153.887222 155.934648,154.079872 C189.602148,154.273045 217.053305,126.936699 217.053305,93.3088782 L217.053305,15.8171581 C217.053305,7.17514957 209.894773,0.173279915 201.196812,0.431891026 Z" id="Shape" fill="#FFC477"></path>
                    <path d="M109.929727,92.6393162 L109.929727,69.025609 C109.929727,64.8485684 113.31532,61.4620192 117.492352,61.4620192 L103.087352,61.4620192 C98.9108437,61.4620192 95.5247266,64.8480449 95.5247266,69.025609 L95.5247266,92.6393162 C95.5247266,126.174476 122.404289,153.886699 155.934648,154.079348 C158.501586,154.094006 161.031883,153.946902 163.517164,153.651122 C133.237352,150.038942 109.929727,123.865823 109.929727,92.6393162 Z" id="Shape" fill="#FFA733"></path>
                    <path d="M200.678609,88.2659615 L200.678609,57.4818162 L200.678609,16.1443483 C200.678609,10.1962927 203.985687,4.8994765 208.900242,2.23902778 C206.613344,1.01507479 203.985687,0.34917735 201.197336,0.431891026 C192.826523,0.68107906 186.273609,7.76932692 186.273609,16.1443483 L186.273609,57.4818162 L186.273609,88.2659615 C186.273609,89.6448718 186.080984,90.9787607 185.728187,92.246688 L200.133187,92.246688 C200.485461,90.9787607 200.678609,89.6448718 200.678609,88.2659615 Z" id="Shape" fill="#F5AF73"></path>
                    <path d="M196.202695,77.3367628 C199.392523,77.3367628 201.978828,74.7501282 201.978828,71.5598932 L201.978828,15.8171581 C201.978828,10.1973397 205.007438,5.27378205 209.516328,2.58663462 C206.965617,1.06637821 203.942242,0.260181624 200.722578,0.453354701 C192.545961,0.943878205 186.273609,7.94313034 186.273609,16.1354487 L186.273609,77.3362393 L196.202695,77.3367628 L196.202695,77.3367628 Z" id="Shape" fill="#FFA733"></path>
                    <path d="M175.128578,99.6773077 L175.128578,58.8088996 L229.330531,58.8088996 C233.973422,58.8088996 237.750547,62.5865064 237.750547,67.2299893 L237.750547,91.2562179 C237.750547,95.8997009 233.973422,99.6773077 229.330531,99.6773077 L175.128578,99.6773077 Z" id="Shape" fill="#676775"></path>
                    <path d="M229.330531,81.8970085 L180.435711,81.8970085 L180.435711,99.6773077 L229.330531,99.6773077 C233.973422,99.6773077 237.750547,95.8997009 237.750547,91.2562179 L237.750547,73.4759188 C237.750547,78.1194017 233.973422,81.8970085 229.330531,81.8970085 Z" id="Shape" fill="#4C4C59"></path>
                    <g id="Group" transform="translate(125.625000, 46.591880)" fill="#F9B264">
                        <path d="M44.6958047,57.0661538 C44.4581641,57.0661538 44.22,57.0614423 43.9813125,57.0514957 C36.1768594,56.7311111 30.0437422,50.220812 29.8291328,42.4116987 L29.0984141,15.8166346 C28.9314375,9.72304487 32.4018281,4.02313034 38.0104609,1.63595085 C40.0717578,0.758557692 42.3413828,0.274839744 44.6958047,0.274839744 C53.7114922,0.274839744 61.0458984,7.17986111 61.0458984,15.6669124 L61.0458984,41.6740812 C61.0458984,50.1611325 53.7104453,57.0661538 44.6958047,57.0661538 Z" id="Shape"></path>
                        <path d="M15.0739531,57.0661538 C14.8499219,57.0661538 14.6253672,57.0609188 14.3997656,57.0499252 C6.83766406,56.6819017 0.961554687,50.2857265 0.828601562,42.7153312 L0.280039062,11.4584615 C2.28009375,4.4340812 9.07064844,-0.330331197 16.4526875,0.337660256 C24.4476719,1.06114316 30.4640625,7.97820513 30.4640625,16.0061432 L30.4640625,41.6746047 C30.4640625,50.1611325 23.5599219,57.0661538 15.0739531,57.0661538 Z" id="Shape"></path>
                    </g>
                    <g id="Group" transform="translate(125.625000, 46.591880)" fill="#EA9939">
                        <path d="M42.0356953,42.4111752 L41.3049766,15.8161111 C41.1374766,9.72252137 44.6083906,4.02260684 50.2170234,1.63490385 C50.4138359,1.55114316 50.6148359,1.47418803 50.8158359,1.39723291 C48.9241328,0.675320513 46.8591719,0.274316239 44.6952813,0.274316239 C44.4356563,0.274316239 44.1776016,0.280074786 43.9205938,0.29159188 C35.4068828,0.675844017 28.8843281,8.05306624 29.1183047,16.5730983 L29.8275625,42.382906 C30.0416484,50.168985 36.1271328,56.6934188 43.9069844,57.0473077 C44.1702734,57.0593483 44.4330391,57.0651068 44.6952813,57.0651068 C46.9141328,57.0651068 49.0303906,56.6463034 50.9613516,55.8893162 C50.9864766,55.8793697 50.987,55.8442949 50.961875,55.8333013 C45.8033984,53.5565812 42.1995313,48.3634188 42.0356953,42.4111752 Z" id="Shape"></path>
                        <path d="M13.0362109,42.7148077 L12.5546484,15.2873718 C12.4557187,9.6780235 15.4633906,4.36969017 20.4883906,1.87623932 C20.7124219,1.76525641 20.9390703,1.65898504 21.1683359,1.55951923 C19.7068984,0.913514957 18.1235,0.488429487 16.4532109,0.337136752 C9.07064844,-0.330331197 2.28061719,4.43355769 0.2805625,11.457938 L0.829125,42.7179487 C0.962078125,50.2935791 6.84708594,56.6881838 14.4144219,57.0499252 C14.6353125,57.0603953 14.8556797,57.0656303 15.0739531,57.0656303 C17.3032734,57.0656303 19.4221484,56.5850534 21.3368828,55.7280769 C16.4762422,53.4246581 13.1356641,48.4016346 13.0362109,42.7148077 Z" id="Shape"></path>
                    </g>
                    <path d="M119.800711,92.246688 L153.014914,92.246688 C161.697172,92.246688 168.760961,85.3416667 168.760961,76.8546154 C168.760961,68.3675641 161.696648,61.4625427 153.014914,61.4625427 L119.800711,61.4625427 L119.800711,92.246688 L119.800711,92.246688 Z" id="Shape" fill="#F5C882"></path>
                    <path d="M197.152734,244.574915 C191.021711,244.574915 186.058477,239.475983 186.280937,233.294968 C186.493453,227.395075 191.53782,222.813365 197.440625,222.813365 L214.876328,222.813365 C216.371789,222.813365 217.58407,224.025801 217.58407,225.521453 L217.58407,241.866303 C217.58407,243.361955 216.371789,244.574391 214.876328,244.574391 L197.152734,244.574391 L197.152734,244.574915 Z" id="Shape" fill="#676775"></path>
                    <path d="M214.876328,234.192254 L197.152734,234.192254 C193.048984,234.192254 189.470766,231.905588 187.61832,228.541549 C186.82793,229.960246 186.342703,231.568451 186.280414,233.294968 C186.057953,239.475459 191.021187,244.574915 197.152211,244.574915 L214.876328,244.574915 C216.371789,244.574915 217.58407,243.362479 217.58407,241.866827 L217.58407,231.484167 C217.58407,232.979818 216.372312,234.192254 214.876328,234.192254 Z" id="Shape" fill="#4C4C59"></path>
                    <path d="M61.8258203,106.046261 C57.5828359,106.046261 54.1307656,102.59375 54.1307656,98.3502244 L54.1307656,60.1354594 C54.1307656,55.8919338 57.5828359,52.4394231 61.8258203,52.4394231 C66.0688047,52.4394231 69.520875,55.8919338 69.520875,60.1354594 L69.520875,98.3502244 C69.520875,102.59375 66.0688047,106.046261 61.8258203,106.046261 Z" id="Shape" fill="#DDB200"></path>
                    <path d="M61.8258203,88.2659615 C57.5828359,88.2659615 54.1307656,84.8134509 54.1307656,80.5699252 L54.1307656,98.3502244 C54.1307656,102.59375 57.5828359,106.046261 61.8258203,106.046261 C66.0688047,106.046261 69.520875,102.59375 69.520875,98.3502244 L69.520875,80.5699252 C69.520875,84.8134509 66.0688047,88.2659615 61.8258203,88.2659615 Z" id="Shape" fill="#BA9806"></path>
                    <g id="Group" transform="translate(23.031250, 56.538462)" fill="#929296">
                        <path d="M22.4015547,6.65426282 L18.6197188,10.4365812 C18.048125,11.0082479 17.1216406,11.0082479 16.5495234,10.4365812 L12.7676875,6.65426282 C12.1960938,6.08259615 12.1960938,5.15599359 12.7676875,4.58380342 L16.5495234,0.801485043 C17.1211172,0.229818376 18.0476016,0.229818376 18.6197188,0.801485043 L22.4015547,4.58380342 C22.9731484,5.15599359 22.9731484,6.08259615 22.4015547,6.65426282 Z" id="Shape"></path>
                        <path d="M21.7948906,21.3511218 L18.6197187,24.5266987 C18.048125,25.0983654 17.1216406,25.0983654 16.5495234,24.5266987 L13.3743516,21.3511218 C12.8027578,20.7794551 12.8027578,19.8528526 13.3743516,19.2806624 L16.5495234,16.1050855 C17.1211172,15.5334188 18.0476016,15.5334188 18.6197187,16.1050855 L21.7948906,19.2806624 C22.3664844,19.8528526 22.3664844,20.7794551 21.7948906,21.3511218 Z" id="Shape"></path>
                        <path d="M7.90338281,13.3100962 L5.33435156,15.8794551 C4.76275781,16.4511218 3.83627344,16.4511218 3.26415625,15.8794551 L0.695125,13.3100962 C0.12353125,12.7384295 0.12353125,11.8118269 0.695125,11.2396368 L3.26415625,8.67027778 C3.83575,8.09861111 4.76223438,8.09861111 5.33435156,8.67027778 L7.90338281,11.2396368 C8.47497656,11.8118269 8.47497656,12.7384295 7.90338281,13.3100962 Z" id="Shape"></path>
                    </g>
                </g>
            </g>
        </g>
    </g>
</svg>